<?xml version="1.0" encoding="UTF-8"?>
<svg id="Layer_1" xmlns="http://www.w3.org/2000/svg" version="1.1" xmlns:xlink="http://www.w3.org/1999/xlink" viewBox="0 0 1359.76 821.36">
  <!-- Generator: Adobe Illustrator 29.8.2, SVG Export Plug-In . SVG Version: 2.1.1 Build 3)  -->
  <defs>
    <style>
      .st0, .st1, .st2, .st3, .st4 {
        fill: #e83150;
      }

      .st0, .st2, .st4 {
        fill-rule: evenodd;
      }

      .st1, .st2, .st4 {
        isolation: isolate;
      }

      .st1, .st4, .st5 {
        opacity: .1;
      }

      .st6 {
        opacity: .11;
      }

      .st7 {
        display: none;
      }

      .st8 {
        fill: url(#linear-gradient);
      }
    </style>
    <linearGradient id="linear-gradient" x1="890.14" y1="-842.77" x2="283.5" y2="867.84" gradientTransform="translate(0 1080) scale(1 -1)" gradientUnits="userSpaceOnUse">
      <stop offset="0" stop-color="#e83150"/>
      <stop offset=".26" stop-color="#941f33"/>
      <stop offset=".5" stop-color="#51111b"/>
      <stop offset=".66" stop-color="#27080d"/>
      <stop offset=".75" stop-color="#180508"/>
      <stop offset=".85" stop-color="#080102"/>
      <stop offset=".93" stop-color="#000"/>
    </linearGradient>
  </defs>
  <g id="Layer_11" data-name="Layer_1" class="st7">
    <g>
      <rect class="st8" x="-559.74" y=".5" width="1919" height="1079"/>
      <path d="M1358.76,1v1078H-559.24V1h1918M1359.76,0H-560.24v1080h1920V0h0Z"/>
    </g>
  </g>
  <g id="Layer_2" class="st7">
    <g class="st6">
      <path class="st3" d="M1286.23,10c35.03,0,63.53,28.5,63.53,63.53s-28.5,63.53-63.53,63.53-63.53-28.5-63.53-63.53,28.5-63.53,63.53-63.53M1286.23,0c-40.61,0-73.53,32.92-73.53,73.53s32.92,73.53,73.53,73.53,73.53-32.92,73.53-73.53S1326.84,0,1286.23,0h0Z"/>
    </g>
    <g class="st6">
      <path class="st3" d="M1139.17,10c35.03,0,63.53,28.5,63.53,63.53s-28.5,63.53-63.53,63.53-63.53-28.5-63.53-63.53,28.5-63.53,63.53-63.53M1139.17,0c-40.61,0-73.53,32.92-73.53,73.53s32.92,73.53,73.53,73.53,73.53-32.92,73.53-73.53S1179.78,0,1139.17,0h0Z"/>
    </g>
    <g class="st6">
      <path class="st3" d="M992.11,10c35.03,0,63.53,28.5,63.53,63.53s-28.5,63.53-63.53,63.53-63.53-28.5-63.53-63.53,28.5-63.53,63.53-63.53M992.11,0c-40.61,0-73.53,32.92-73.53,73.53s32.92,73.53,73.53,73.53,73.53-32.92,73.53-73.53S1032.72,0,992.11,0h0Z"/>
    </g>
    <g class="st6">
      <path class="st3" d="M845.05,10c35.03,0,63.53,28.5,63.53,63.53s-28.5,63.53-63.53,63.53-63.53-28.5-63.53-63.53,28.5-63.53,63.53-63.53M845.05,0c-40.61,0-73.53,32.92-73.53,73.53s32.92,73.53,73.53,73.53,73.53-32.92,73.53-73.53S885.66,0,845.05,0h0Z"/>
    </g>
    <g class="st6">
      <path class="st3" d="M698,10c35.03,0,63.53,28.5,63.53,63.53s-28.5,63.53-63.53,63.53-63.53-28.5-63.53-63.53,28.5-63.53,63.53-63.53M698,0c-40.61,0-73.53,32.92-73.53,73.53s32.92,73.53,73.53,73.53,73.53-32.92,73.53-73.53S738.6,0,698,0h0Z"/>
    </g>
    <g class="st6">
      <path class="st3" d="M550.94,10c35.03,0,63.53,28.5,63.53,63.53s-28.5,63.53-63.53,63.53-63.53-28.5-63.53-63.53,28.5-63.53,63.53-63.53M550.94,0c-40.61,0-73.53,32.92-73.53,73.53s32.92,73.53,73.53,73.53,73.53-32.92,73.53-73.53S591.55,0,550.94,0h0Z"/>
    </g>
    <g class="st6">
      <path class="st3" d="M403.88,10c35.03,0,63.53,28.5,63.53,63.53s-28.5,63.53-63.53,63.53-63.53-28.5-63.53-63.53,28.5-63.53,63.53-63.53M403.88,0c-40.61,0-73.53,32.92-73.53,73.53s32.92,73.53,73.53,73.53,73.53-32.92,73.53-73.53S444.49,0,403.88,0h0Z"/>
    </g>
    <g class="st6">
      <path class="st3" d="M256.82,10c35.03,0,63.53,28.5,63.53,63.53s-28.5,63.53-63.53,63.53-63.53-28.5-63.53-63.53,28.5-63.53,63.53-63.53M256.82,0c-40.61,0-73.53,32.92-73.53,73.53s32.92,73.53,73.53,73.53,73.53-32.92,73.53-73.53S297.43,0,256.82,0h0Z"/>
    </g>
    <g class="st6">
      <path class="st3" d="M109.76,10c35.03,0,63.53,28.5,63.53,63.53s-28.5,63.53-63.53,63.53-63.53-28.5-63.53-63.53S74.73,10,109.76,10M109.76,0C69.15,0,36.23,32.92,36.23,73.53s32.92,73.53,73.53,73.53,73.53-32.92,73.53-73.53S150.37,0,109.76,0h0Z"/>
    </g>
    <g class="st6">
      <path class="st3" d="M-37.3,10c35.03,0,63.53,28.5,63.53,63.53s-28.5,63.53-63.53,63.53-63.53-28.5-63.53-63.53S-72.33,10-37.3,10M-37.3,0c-40.61,0-73.53,32.92-73.53,73.53s32.92,73.53,73.53,73.53S36.23,114.14,36.23,73.53,3.31,0-37.3,0h0Z"/>
    </g>
    <g class="st6">
      <path class="st3" d="M-184.36,10c35.03,0,63.53,28.5,63.53,63.53s-28.5,63.53-63.53,63.53-63.53-28.5-63.53-63.53,28.5-63.53,63.53-63.53M-184.36,0c-40.61,0-73.53,32.92-73.53,73.53s32.92,73.53,73.53,73.53,73.53-32.92,73.53-73.53S-143.75,0-184.36,0h0Z"/>
    </g>
    <g class="st6">
      <path class="st3" d="M-331.42,10c35.03,0,63.53,28.5,63.53,63.53s-28.5,63.53-63.53,63.53-63.53-28.5-63.53-63.53,28.5-63.53,63.53-63.53M-331.42,0c-40.61,0-73.53,32.92-73.53,73.53s32.92,73.53,73.53,73.53,73.53-32.92,73.53-73.53S-290.81,0-331.42,0h0Z"/>
    </g>
    <g class="st6">
      <path class="st3" d="M1286.23,157.06c35.03,0,63.53,28.5,63.53,63.53s-28.5,63.53-63.53,63.53-63.53-28.5-63.53-63.53,28.5-63.53,63.53-63.53M1286.23,147.06c-40.61,0-73.53,32.92-73.53,73.53s32.92,73.53,73.53,73.53,73.53-32.92,73.53-73.53-32.92-73.53-73.53-73.53h0Z"/>
    </g>
    <g class="st6">
      <path class="st3" d="M-331.42,157.06c35.03,0,63.53,28.5,63.53,63.53s-28.5,63.53-63.53,63.53-63.53-28.5-63.53-63.53,28.5-63.53,63.53-63.53M-331.42,147.06c-40.61,0-73.53,32.92-73.53,73.53s32.92,73.53,73.53,73.53,73.53-32.92,73.53-73.53-32.92-73.53-73.53-73.53h0Z"/>
    </g>
    <g class="st6">
      <path class="st3" d="M1139.17,157.06c35.03,0,63.53,28.5,63.53,63.53s-28.5,63.53-63.53,63.53-63.53-28.5-63.53-63.53,28.5-63.53,63.53-63.53M1139.17,147.06c-40.61,0-73.53,32.92-73.53,73.53s32.92,73.53,73.53,73.53,73.53-32.92,73.53-73.53-32.92-73.53-73.53-73.53h0Z"/>
    </g>
    <g class="st6">
      <path class="st3" d="M992.11,157.06c35.03,0,63.53,28.5,63.53,63.53s-28.5,63.53-63.53,63.53-63.53-28.5-63.53-63.53,28.5-63.53,63.53-63.53M992.11,147.06c-40.61,0-73.53,32.92-73.53,73.53s32.92,73.53,73.53,73.53,73.53-32.92,73.53-73.53-32.92-73.53-73.53-73.53h0Z"/>
    </g>
    <g class="st6">
      <path class="st3" d="M845.05,157.06c35.03,0,63.53,28.5,63.53,63.53s-28.5,63.53-63.53,63.53-63.53-28.5-63.53-63.53,28.5-63.53,63.53-63.53M845.05,147.06c-40.61,0-73.53,32.92-73.53,73.53s32.92,73.53,73.53,73.53,73.53-32.92,73.53-73.53-32.92-73.53-73.53-73.53h0Z"/>
    </g>
    <g class="st6">
      <path class="st3" d="M698,157.06c35.03,0,63.53,28.5,63.53,63.53s-28.5,63.53-63.53,63.53-63.53-28.5-63.53-63.53,28.5-63.53,63.53-63.53M698,147.06c-40.61,0-73.53,32.92-73.53,73.53s32.92,73.53,73.53,73.53,73.53-32.92,73.53-73.53-32.92-73.53-73.53-73.53h0Z"/>
    </g>
    <g class="st6">
      <path class="st3" d="M550.94,157.06c35.03,0,63.53,28.5,63.53,63.53s-28.5,63.53-63.53,63.53-63.53-28.5-63.53-63.53,28.5-63.53,63.53-63.53M550.94,147.06c-40.61,0-73.53,32.92-73.53,73.53s32.92,73.53,73.53,73.53,73.53-32.92,73.53-73.53-32.92-73.53-73.53-73.53h0Z"/>
    </g>
    <g class="st6">
      <path class="st3" d="M403.88,157.06c35.03,0,63.53,28.5,63.53,63.53s-28.5,63.53-63.53,63.53-63.53-28.5-63.53-63.53,28.5-63.53,63.53-63.53M403.88,147.06c-40.61,0-73.53,32.92-73.53,73.53s32.92,73.53,73.53,73.53,73.53-32.92,73.53-73.53-32.92-73.53-73.53-73.53h0Z"/>
    </g>
    <g class="st6">
      <path class="st3" d="M256.82,157.06c35.03,0,63.53,28.5,63.53,63.53s-28.5,63.53-63.53,63.53-63.53-28.5-63.53-63.53,28.5-63.53,63.53-63.53M256.82,147.06c-40.61,0-73.53,32.92-73.53,73.53s32.92,73.53,73.53,73.53,73.53-32.92,73.53-73.53-32.92-73.53-73.53-73.53h0Z"/>
    </g>
    <g class="st6">
      <path class="st3" d="M109.76,157.06c35.03,0,63.53,28.5,63.53,63.53s-28.5,63.53-63.53,63.53-63.53-28.5-63.53-63.53,28.5-63.53,63.53-63.53M109.76,147.06c-40.61,0-73.53,32.92-73.53,73.53s32.92,73.53,73.53,73.53,73.53-32.92,73.53-73.53-32.92-73.53-73.53-73.53h0Z"/>
    </g>
    <g class="st6">
      <path class="st3" d="M-37.3,157.06c35.03,0,63.53,28.5,63.53,63.53s-28.5,63.53-63.53,63.53-63.53-28.5-63.53-63.53,28.5-63.53,63.53-63.53M-37.3,147.06c-40.61,0-73.53,32.92-73.53,73.53s32.92,73.53,73.53,73.53,73.53-32.92,73.53-73.53S3.31,147.06-37.3,147.06h0Z"/>
    </g>
    <g class="st6">
      <path class="st3" d="M-184.36,157.06c35.03,0,63.53,28.5,63.53,63.53s-28.5,63.53-63.53,63.53-63.53-28.5-63.53-63.53,28.5-63.53,63.53-63.53M-184.36,147.06c-40.61,0-73.53,32.92-73.53,73.53s32.92,73.53,73.53,73.53,73.53-32.92,73.53-73.53-32.92-73.53-73.53-73.53h0Z"/>
    </g>
    <g class="st6">
      <path class="st3" d="M1286.23,304.12c35.03,0,63.53,28.5,63.53,63.53s-28.5,63.53-63.53,63.53-63.53-28.5-63.53-63.53,28.5-63.53,63.53-63.53M1286.23,294.12c-40.61,0-73.53,32.92-73.53,73.53s32.92,73.53,73.53,73.53,73.53-32.92,73.53-73.53-32.92-73.53-73.53-73.53h0Z"/>
    </g>
    <g class="st6">
      <path class="st3" d="M1139.17,304.12c35.03,0,63.53,28.5,63.53,63.53s-28.5,63.53-63.53,63.53-63.53-28.5-63.53-63.53,28.5-63.53,63.53-63.53M1139.17,294.12c-40.61,0-73.53,32.92-73.53,73.53s32.92,73.53,73.53,73.53,73.53-32.92,73.53-73.53-32.92-73.53-73.53-73.53h0Z"/>
    </g>
    <g class="st6">
      <path class="st3" d="M992.11,304.12c35.03,0,63.53,28.5,63.53,63.53s-28.5,63.53-63.53,63.53-63.53-28.5-63.53-63.53,28.5-63.53,63.53-63.53M992.11,294.12c-40.61,0-73.53,32.92-73.53,73.53s32.92,73.53,73.53,73.53,73.53-32.92,73.53-73.53-32.92-73.53-73.53-73.53h0Z"/>
    </g>
    <g class="st6">
      <path class="st3" d="M845.05,304.12c35.03,0,63.53,28.5,63.53,63.53s-28.5,63.53-63.53,63.53-63.53-28.5-63.53-63.53,28.5-63.53,63.53-63.53M845.05,294.12c-40.61,0-73.53,32.92-73.53,73.53s32.92,73.53,73.53,73.53,73.53-32.92,73.53-73.53-32.92-73.53-73.53-73.53h0Z"/>
    </g>
    <g class="st6">
      <path class="st3" d="M698,304.12c35.03,0,63.53,28.5,63.53,63.53s-28.5,63.53-63.53,63.53-63.53-28.5-63.53-63.53,28.5-63.53,63.53-63.53M698,294.12c-40.61,0-73.53,32.92-73.53,73.53s32.92,73.53,73.53,73.53,73.53-32.92,73.53-73.53-32.92-73.53-73.53-73.53h0Z"/>
    </g>
    <g class="st6">
      <path class="st3" d="M550.94,304.12c35.03,0,63.53,28.5,63.53,63.53s-28.5,63.53-63.53,63.53-63.53-28.5-63.53-63.53,28.5-63.53,63.53-63.53M550.94,294.12c-40.61,0-73.53,32.92-73.53,73.53s32.92,73.53,73.53,73.53,73.53-32.92,73.53-73.53-32.92-73.53-73.53-73.53h0Z"/>
    </g>
    <g class="st6">
      <path class="st3" d="M403.88,304.12c35.03,0,63.53,28.5,63.53,63.53s-28.5,63.53-63.53,63.53-63.53-28.5-63.53-63.53,28.5-63.53,63.53-63.53M403.88,294.12c-40.61,0-73.53,32.92-73.53,73.53s32.92,73.53,73.53,73.53,73.53-32.92,73.53-73.53-32.92-73.53-73.53-73.53h0Z"/>
    </g>
    <g class="st6">
      <path class="st3" d="M256.82,304.12c35.03,0,63.53,28.5,63.53,63.53s-28.5,63.53-63.53,63.53-63.53-28.5-63.53-63.53,28.5-63.53,63.53-63.53M256.82,294.12c-40.61,0-73.53,32.92-73.53,73.53s32.92,73.53,73.53,73.53,73.53-32.92,73.53-73.53-32.92-73.53-73.53-73.53h0Z"/>
    </g>
    <g class="st6">
      <path class="st3" d="M109.76,304.12c35.03,0,63.53,28.5,63.53,63.53s-28.5,63.53-63.53,63.53-63.53-28.5-63.53-63.53,28.5-63.53,63.53-63.53M109.76,294.12c-40.61,0-73.53,32.92-73.53,73.53s32.92,73.53,73.53,73.53,73.53-32.92,73.53-73.53-32.92-73.53-73.53-73.53h0Z"/>
    </g>
    <g class="st6">
      <path class="st3" d="M-37.3,304.12c35.03,0,63.53,28.5,63.53,63.53s-28.5,63.53-63.53,63.53-63.53-28.5-63.53-63.53,28.5-63.53,63.53-63.53M-37.3,294.12c-40.61,0-73.53,32.92-73.53,73.53s32.92,73.53,73.53,73.53,73.53-32.92,73.53-73.53S3.31,294.12-37.3,294.12h0Z"/>
    </g>
    <g class="st6">
      <path class="st3" d="M-184.36,304.12c35.03,0,63.53,28.5,63.53,63.53s-28.5,63.53-63.53,63.53-63.53-28.5-63.53-63.53,28.5-63.53,63.53-63.53M-184.36,294.12c-40.61,0-73.53,32.92-73.53,73.53s32.92,73.53,73.53,73.53,73.53-32.92,73.53-73.53-32.92-73.53-73.53-73.53h0Z"/>
    </g>
    <g class="st6">
      <path class="st3" d="M1286.23,451.18c35.03,0,63.53,28.5,63.53,63.53s-28.5,63.53-63.53,63.53-63.53-28.5-63.53-63.53,28.5-63.53,63.53-63.53M1286.23,441.18c-40.61,0-73.53,32.92-73.53,73.53s32.92,73.53,73.53,73.53,73.53-32.92,73.53-73.53-32.92-73.53-73.53-73.53h0Z"/>
    </g>
    <g class="st6">
      <path class="st3" d="M992.11,451.18c35.03,0,63.53,28.5,63.53,63.53s-28.5,63.53-63.53,63.53-63.53-28.5-63.53-63.53,28.5-63.53,63.53-63.53M992.11,441.18c-40.61,0-73.53,32.92-73.53,73.53s32.92,73.53,73.53,73.53,73.53-32.92,73.53-73.53-32.92-73.53-73.53-73.53h0Z"/>
    </g>
    <g class="st6">
      <path class="st3" d="M845.05,451.18c35.03,0,63.53,28.5,63.53,63.53s-28.5,63.53-63.53,63.53-63.53-28.5-63.53-63.53,28.5-63.53,63.53-63.53M845.05,441.18c-40.61,0-73.53,32.92-73.53,73.53s32.92,73.53,73.53,73.53,73.53-32.92,73.53-73.53-32.92-73.53-73.53-73.53h0Z"/>
    </g>
    <g class="st6">
      <path class="st3" d="M698,451.18c35.03,0,63.53,28.5,63.53,63.53s-28.5,63.53-63.53,63.53-63.53-28.5-63.53-63.53,28.5-63.53,63.53-63.53M698,441.18c-40.61,0-73.53,32.92-73.53,73.53s32.92,73.53,73.53,73.53,73.53-32.92,73.53-73.53-32.92-73.53-73.53-73.53h0Z"/>
    </g>
    <g class="st6">
      <path class="st3" d="M550.94,451.18c35.03,0,63.53,28.5,63.53,63.53s-28.5,63.53-63.53,63.53-63.53-28.5-63.53-63.53,28.5-63.53,63.53-63.53M550.94,441.18c-40.61,0-73.53,32.92-73.53,73.53s32.92,73.53,73.53,73.53,73.53-32.92,73.53-73.53-32.92-73.53-73.53-73.53h0Z"/>
    </g>
    <g class="st6">
      <path class="st3" d="M256.82,451.18c35.03,0,63.53,28.5,63.53,63.53s-28.5,63.53-63.53,63.53-63.53-28.5-63.53-63.53,28.5-63.53,63.53-63.53M256.82,441.18c-40.61,0-73.53,32.92-73.53,73.53s32.92,73.53,73.53,73.53,73.53-32.92,73.53-73.53-32.92-73.53-73.53-73.53h0Z"/>
    </g>
    <g class="st6">
      <path class="st3" d="M109.76,451.18c35.03,0,63.53,28.5,63.53,63.53s-28.5,63.53-63.53,63.53-63.53-28.5-63.53-63.53,28.5-63.53,63.53-63.53M109.76,441.18c-40.61,0-73.53,32.92-73.53,73.53s32.92,73.53,73.53,73.53,73.53-32.92,73.53-73.53-32.92-73.53-73.53-73.53h0Z"/>
    </g>
    <g class="st6">
      <path class="st3" d="M-37.3,451.18c35.03,0,63.53,28.5,63.53,63.53s-28.5,63.53-63.53,63.53-63.53-28.5-63.53-63.53,28.5-63.53,63.53-63.53M-37.3,441.18c-40.61,0-73.53,32.92-73.53,73.53s32.92,73.53,73.53,73.53,73.53-32.92,73.53-73.53S3.31,441.18-37.3,441.18h0Z"/>
    </g>
    <g class="st6">
      <path class="st3" d="M-184.36,451.18c35.03,0,63.53,28.5,63.53,63.53s-28.5,63.53-63.53,63.53-63.53-28.5-63.53-63.53,28.5-63.53,63.53-63.53M-184.36,441.18c-40.61,0-73.53,32.92-73.53,73.53s32.92,73.53,73.53,73.53,73.53-32.92,73.53-73.53-32.92-73.53-73.53-73.53h0Z"/>
    </g>
    <g class="st6">
      <path class="st3" d="M992.11,598.24c35.03,0,63.53,28.5,63.53,63.53s-28.5,63.53-63.53,63.53-63.53-28.5-63.53-63.53,28.5-63.53,63.53-63.53M992.11,588.24c-40.61,0-73.53,32.92-73.53,73.53s32.92,73.53,73.53,73.53,73.53-32.92,73.53-73.53-32.92-73.53-73.53-73.53h0Z"/>
    </g>
    <g class="st6">
      <path class="st3" d="M845.05,598.24c35.03,0,63.53,28.5,63.53,63.53s-28.5,63.53-63.53,63.53-63.53-28.5-63.53-63.53,28.5-63.53,63.53-63.53M845.05,588.24c-40.61,0-73.53,32.92-73.53,73.53s32.92,73.53,73.53,73.53,73.53-32.92,73.53-73.53-32.92-73.53-73.53-73.53h0Z"/>
    </g>
    <g class="st6">
      <path class="st3" d="M550.94,598.24c35.03,0,63.53,28.5,63.53,63.53s-28.5,63.53-63.53,63.53-63.53-28.5-63.53-63.53,28.5-63.53,63.53-63.53M550.94,588.24c-40.61,0-73.53,32.92-73.53,73.53s32.92,73.53,73.53,73.53,73.53-32.92,73.53-73.53-32.92-73.53-73.53-73.53h0Z"/>
    </g>
    <g class="st6">
      <path class="st3" d="M256.82,598.24c35.03,0,63.53,28.5,63.53,63.53s-28.5,63.53-63.53,63.53-63.53-28.5-63.53-63.53,28.5-63.53,63.53-63.53M256.82,588.24c-40.61,0-73.53,32.92-73.53,73.53s32.92,73.53,73.53,73.53,73.53-32.92,73.53-73.53-32.92-73.53-73.53-73.53h0Z"/>
    </g>
    <g class="st6">
      <path class="st3" d="M109.76,598.24c35.03,0,63.53,28.5,63.53,63.53s-28.5,63.53-63.53,63.53-63.53-28.5-63.53-63.53,28.5-63.53,63.53-63.53M109.76,588.24c-40.61,0-73.53,32.92-73.53,73.53s32.92,73.53,73.53,73.53,73.53-32.92,73.53-73.53-32.92-73.53-73.53-73.53h0Z"/>
    </g>
    <g class="st6">
      <path class="st3" d="M-184.36,598.24c35.03,0,63.53,28.5,63.53,63.53s-28.5,63.53-63.53,63.53-63.53-28.5-63.53-63.53,28.5-63.53,63.53-63.53M-184.36,588.24c-40.61,0-73.53,32.92-73.53,73.53s32.92,73.53,73.53,73.53,73.53-32.92,73.53-73.53-32.92-73.53-73.53-73.53h0Z"/>
    </g>
    <g class="st6">
      <path class="st3" d="M845.05,745.29c35.03,0,63.53,28.5,63.53,63.53s-28.5,63.53-63.53,63.53-63.53-28.5-63.53-63.53,28.5-63.53,63.53-63.53M845.05,735.29c-40.61,0-73.53,32.92-73.53,73.53s32.92,73.53,73.53,73.53,73.53-32.92,73.53-73.53-32.92-73.53-73.53-73.53h0Z"/>
    </g>
    <g class="st6">
      <path class="st3" d="M109.76,745.29c35.03,0,63.53,28.5,63.53,63.53s-28.5,63.53-63.53,63.53-63.53-28.5-63.53-63.53,28.5-63.53,63.53-63.53M109.76,735.29c-40.61,0-73.53,32.92-73.53,73.53s32.92,73.53,73.53,73.53,73.53-32.92,73.53-73.53-32.92-73.53-73.53-73.53h0Z"/>
    </g>
  </g>
  <g id="Layer_3" class="st7">
    <g class="st5">
      <polygon class="st3" points="1078.02 25.31 1037.18 72.68 996.44 25.42 982.91 37.07 1025.39 86.36 983.02 135.52 996.54 147.18 1037.18 100.03 1077.91 147.29 1091.44 135.63 1048.97 86.36 1091.54 36.97 1078.02 25.31 1078.02 25.31"/>
      <polygon class="st3" points="962.05 162.99 921.25 210.33 880.52 163.08 866.99 174.74 909.46 224.01 867.05 273.21 880.58 284.87 921.25 237.68 961.99 284.95 975.52 273.3 933.03 224.01 975.58 174.65 962.05 162.99 962.05 162.99"/>
      <polygon class="st3" points="844.83 25.35 804 72.72 763.28 25.48 749.75 37.14 792.21 86.4 749.83 135.56 763.36 147.22 804 100.07 844.75 147.35 858.28 135.69 815.79 86.4 858.36 37 844.83 25.35 844.83 25.35"/>
      <polygon class="st3" points="1327.29 25.35 1286.48 72.69 1245.77 25.45 1232.24 37.11 1274.7 86.37 1232.29 135.57 1245.81 147.22 1286.48 100.04 1327.24 147.32 1340.77 135.67 1298.27 86.37 1340.82 37.01 1327.29 25.35 1327.29 25.35"/>
      <polygon class="st3" points="1195.45 174.47 1154.65 221.8 1113.95 174.59 1100.43 186.25 1142.86 235.48 1100.45 284.69 1113.98 296.34 1154.65 249.15 1195.43 296.46 1208.96 284.8 1166.44 235.48 1208.98 186.13 1195.45 174.47 1195.45 174.47"/>
      <polygon class="st3" points="1065.26 310.45 1024.45 357.79 983.73 310.55 970.2 322.21 1012.66 371.46 970.26 420.66 983.78 432.32 1024.45 385.14 1065.2 432.42 1078.73 420.76 1036.24 371.46 1078.78 322.1 1065.26 310.45 1065.26 310.45"/>
      <polygon class="st3" points="949.29 448.13 908.48 495.47 867.71 448.17 854.18 459.82 896.7 509.15 854.29 558.34 867.82 570 908.48 522.82 949.18 570.04 962.71 558.38 920.27 509.15 962.82 459.79 949.29 448.13 949.29 448.13"/>
      <polygon class="st3" points="832.07 310.48 791.26 357.83 750.51 310.55 736.98 322.21 779.48 371.51 737.07 420.7 750.6 432.36 791.26 385.18 831.98 432.42 845.51 420.76 803.05 371.51 845.6 322.14 832.07 310.48 832.07 310.48"/>
      <polygon class="st3" points="714.82 174.48 674.02 221.82 633.3 174.58 619.78 186.24 662.23 235.49 619.82 284.7 633.35 296.36 674.02 249.17 714.78 296.45 728.3 284.79 685.81 235.49 728.35 186.14 714.82 174.48 714.82 174.48"/>
      <polygon class="st3" points="591.37 25.35 550.54 72.72 509.83 25.49 496.3 37.15 538.75 86.4 496.37 135.57 509.9 147.22 550.54 100.07 591.3 147.36 604.83 135.7 562.33 86.4 604.9 37.01 591.37 25.35 591.37 25.35"/>
      <polygon class="st3" points="1327.33 310.5 1286.52 357.85 1245.77 310.57 1232.25 322.23 1274.73 371.52 1232.33 420.72 1245.85 432.37 1286.52 385.2 1327.25 432.45 1340.77 420.79 1298.31 371.52 1340.85 322.16 1327.33 310.5 1327.33 310.5"/>
      <polygon class="st3" points="1195.49 459.62 1154.69 506.96 1113.96 459.71 1100.44 471.37 1142.9 520.63 1100.49 569.84 1114.01 581.49 1154.69 534.31 1195.44 581.58 1208.96 569.93 1166.47 520.63 1209.02 471.28 1195.49 459.62 1195.49 459.62"/>
      <polygon class="st3" points="1065.23 595.6 1024.43 642.94 983.73 595.73 970.21 607.39 1012.64 656.62 970.23 705.81 983.76 717.47 1024.43 670.29 1065.21 717.6 1078.73 705.95 1036.21 656.62 1078.76 607.26 1065.23 595.6 1065.23 595.6"/>
      <polygon class="st3" points="949.22 733.24 908.45 780.55 867.71 733.29 854.19 744.95 896.66 794.22 854.22 843.46 867.75 855.11 908.45 807.9 949.19 855.16 962.71 843.5 920.23 794.22 962.75 744.9 949.22 733.24 949.22 733.24"/>
      <polygon class="st3" points="714.86 459.64 674.03 507.01 633.31 459.76 619.78 471.42 662.24 520.68 619.86 569.85 633.39 581.51 674.03 534.36 714.79 581.64 728.31 569.98 685.82 520.68 728.39 471.29 714.86 459.64 714.86 459.64"/>
      <polygon class="st3" points="591.41 310.5 550.61 357.84 509.89 310.61 496.37 322.27 538.82 371.52 496.41 420.72 509.94 432.37 550.61 385.19 591.37 432.48 604.89 420.83 562.39 371.52 604.94 322.16 591.41 310.5 591.41 310.5"/>
      <polygon class="st3" points="208.99 18.17 168.16 65.54 127.49 18.36 113.97 30.02 156.37 79.21 113.99 128.38 127.51 140.04 168.16 92.89 208.97 140.23 222.49 128.58 179.94 79.21 222.51 29.83 208.99 18.17 208.99 18.17"/>
      <polygon class="st3" points="93.02 155.85 52.19 203.22 11.47 155.98 -2.05 167.64 40.41 216.89 -1.98 266.07 11.55 277.73 52.19 230.57 92.95 277.85 106.47 266.19 63.98 216.89 106.55 167.51 93.02 155.85 93.02 155.85"/>
      <polygon class="st3" points="-24.2 18.21 -65.03 65.58 -105.73 18.36 -119.25 30.02 -76.82 79.25 -119.2 128.42 -105.67 140.08 -65.03 92.93 -24.25 140.23 -10.73 128.58 -53.24 79.25 -10.67 29.87 -24.2 18.21 -24.2 18.21"/>
      <polygon class="st3" points="458.22 18.26 417.46 65.55 376.76 18.33 363.23 29.99 405.67 79.22 363.22 128.47 376.74 140.13 417.46 92.9 458.23 140.21 471.76 128.55 429.24 79.22 471.74 29.92 458.22 18.26 458.22 18.26"/>
      <polygon class="st3" points="326.42 167.33 285.62 214.66 244.95 167.47 231.42 179.13 273.84 228.34 231.42 277.55 244.95 289.21 285.62 242.01 326.42 289.35 339.95 277.69 297.41 228.34 339.95 178.99 326.42 167.33 326.42 167.33"/>
      <polygon class="st3" points="196.23 303.37 155.42 350.71 114.72 303.49 101.2 315.15 143.63 364.38 101.23 413.58 114.75 425.24 155.42 378.06 196.2 425.37 209.72 413.71 167.21 364.38 209.75 315.03 196.23 303.37 196.23 303.37"/>
      <polygon class="st3" points="80.21 440.95 39.39 488.31 -1.3 441.11 -14.82 452.77 27.6 501.99 -14.79 551.17 -1.26 562.82 39.39 515.66 80.18 562.98 93.7 551.33 51.18 501.99 93.74 452.61 80.21 440.95 80.21 440.95"/>
      <polygon class="st3" points="-36.96 303.35 -77.79 350.72 -118.5 303.49 -132.02 315.15 -89.58 364.4 -131.96 413.56 -118.43 425.22 -77.79 378.07 -37.02 425.37 -23.5 413.71 -66 364.4 -23.43 315 -36.96 303.35 -36.96 303.35"/>
      <polygon class="st3" points="-154.21 167.35 -195.03 214.71 -235.7 167.53 -249.23 179.18 -206.82 228.38 -249.21 277.56 -235.68 289.22 -195.03 242.06 -154.23 289.4 -140.7 277.74 -183.24 228.38 -140.68 179 -154.21 167.35 -154.21 167.35"/>
      <polygon class="st3" points="-277.66 18.21 -318.46 65.55 -359.12 18.37 -372.64 30.03 -330.24 79.22 -372.66 128.43 -359.13 140.08 -318.46 92.9 -277.64 140.24 -264.12 128.59 -306.67 79.22 -264.13 29.87 -277.66 18.21 -277.66 18.21"/>
      <polygon class="st3" points="326.46 452.48 285.66 499.82 244.91 452.55 231.39 464.21 273.87 513.49 231.46 562.7 244.98 574.36 285.66 527.17 326.39 574.42 339.92 562.76 297.45 513.49 339.99 464.14 326.46 452.48 326.46 452.48"/>
      <polygon class="st3" points="196.16 588.42 155.36 635.75 114.69 588.57 101.16 600.23 143.57 649.43 101.16 698.63 114.68 710.29 155.36 663.1 196.16 710.44 209.69 698.78 167.15 649.43 209.68 600.08 196.16 588.42 196.16 588.42"/>
      <polygon class="st3" points="-37.03 588.46 -77.8 635.76 -118.47 588.57 -132 600.23 -89.58 649.43 -132.03 698.67 -118.5 710.33 -77.8 663.11 -37 710.44 -23.47 698.78 -66.01 649.43 -23.5 600.11 -37.03 588.46 -37.03 588.46"/>
      <polygon class="st3" points="-277.62 303.36 -318.42 350.7 -359.11 303.49 -372.64 315.15 -330.21 364.38 -372.62 413.58 -359.09 425.24 -318.42 378.05 -277.64 425.37 -264.11 413.71 -306.63 364.38 -264.09 315.02 -277.62 303.36 -277.62 303.36"/>
    </g>
  </g>
  <g id="Layer_4" class="st7">
    <rect class="st1" x="505.03" y="2.3" width="44.99" height="89.97"/>
    <rect class="st1" x="595" y="2.3" width="44.99" height="89.97"/>
    <rect class="st1" x="550.01" y="92.27" width="44.99" height="89.97"/>
    <rect class="st1" x="505.03" y="182.24" width="44.99" height="89.97"/>
    <rect class="st1" x="595" y="182.24" width="44.99" height="89.97"/>
    <rect class="st1" x="684.97" y="92.27" width="44.99" height="89.97"/>
    <rect class="st1" x="729.96" y="2.3" width="44.99" height="89.97"/>
    <rect class="st1" x="819.93" y="2.3" width="44.99" height="89.97"/>
    <rect class="st1" x="729.96" y="182.24" width="44.99" height="89.97"/>
    <rect class="st1" x="819.93" y="182.24" width="44.99" height="89.97"/>
    <rect class="st1" x="774.94" y="92.27" width="44.99" height="89.97"/>
    <rect class="st1" x="864.92" y="92.27" width="44.99" height="89.97"/>
    <rect class="st1" x="954.89" y="2.3" width="44.99" height="89.97"/>
    <rect class="st1" x="1044.86" y="2.3" width="44.99" height="89.97"/>
    <rect class="st1" x="999.87" y="92.27" width="44.99" height="89.97"/>
    <rect class="st1" x="954.89" y="182.24" width="44.99" height="89.97"/>
    <rect class="st1" x="1044.86" y="182.24" width="44.99" height="89.97"/>
    <rect class="st1" x="1134.83" y="92.27" width="44.99" height="89.97"/>
    <rect class="st1" x="1179.82" y="2.3" width="44.99" height="89.97"/>
    <rect class="st1" x="1269.79" y="2.3" width="44.99" height="89.97"/>
    <rect class="st1" x="1179.82" y="182.24" width="44.99" height="89.97"/>
    <rect class="st1" x="1269.79" y="182.24" width="44.99" height="89.97"/>
    <rect class="st1" x="1224.8" y="92.27" width="44.99" height="89.97"/>
    <rect class="st1" x="1314.77" y="92.27" width="44.99" height="89.97"/>
    <path class="st4" d="M505.03,362.19h44.99v89.97h-44.99v-89.97ZM595,362.19h44.99v89.97h-44.99v-89.97ZM639.99,272.22h44.99v89.97h-44.99v-89.97ZM550.01,272.22h44.99v89.97h-44.99v-89.97ZM550.01,452.16h44.99v89.97h-44.99v-89.97ZM460.04,272.22h44.99v89.97h-44.99v-89.97ZM505.03,542.13h44.99v89.97h-44.99v-89.97ZM595,542.13h44.99v89.97h-44.99v-89.97ZM684.97,452.16h44.99v89.97h-44.99v-89.97ZM774.94,272.22h44.99v89.97h-44.99v-89.97ZM729.96,362.19h44.99v89.97h-44.99v-89.97ZM819.93,362.19h44.99v89.97h-44.99v-89.97ZM729.96,542.13h44.99v89.97h-44.99v-89.97ZM819.93,542.13h44.99v89.97h-44.99v-89.97ZM774.94,452.16h44.99v89.97h-44.99v-89.97ZM864.92,452.16h44.99v89.97h-44.99v-89.97Z"/>
    <rect class="st1" x="954.89" y="362.19" width="44.99" height="89.97"/>
    <rect class="st1" x="1044.86" y="362.19" width="44.99" height="89.97"/>
    <rect class="st1" x="1089.84" y="272.22" width="44.99" height="89.97"/>
    <rect class="st1" x="999.87" y="272.22" width="44.99" height="89.97"/>
    <rect class="st1" x="999.87" y="452.16" width="44.99" height="89.97"/>
    <rect class="st1" x="909.9" y="272.22" width="44.99" height="89.97"/>
    <rect class="st1" x="1134.83" y="452.16" width="44.99" height="89.97"/>
    <rect class="st1" x="1224.8" y="272.22" width="44.99" height="89.97"/>
    <rect class="st1" x="1179.82" y="362.19" width="44.99" height="89.97"/>
    <rect class="st1" x="1269.79" y="362.19" width="44.99" height="89.97"/>
    <rect class="st1" x="1179.82" y="542.13" width="44.99" height="89.97"/>
    <rect class="st1" x="1269.79" y="542.13" width="44.99" height="89.97"/>
    <rect class="st1" x="1224.8" y="452.16" width="44.99" height="89.97"/>
    <rect class="st1" x="1314.77" y="452.16" width="44.99" height="89.97"/>
    <rect class="st1" x="55.17" y="2.3" width="44.99" height="89.97"/>
    <rect class="st1" x="145.14" y="2.3" width="44.99" height="89.97"/>
    <rect class="st1" x="100.16" y="92.27" width="44.99" height="89.97"/>
    <rect class="st1" x="55.17" y="182.24" width="44.99" height="89.97"/>
    <rect class="st1" x="145.14" y="182.24" width="44.99" height="89.97"/>
    <rect class="st1" x="235.11" y="92.27" width="44.99" height="89.97"/>
    <rect class="st1" x="280.1" y="2.3" width="44.99" height="89.97"/>
    <rect class="st1" x="370.07" y="2.3" width="44.99" height="89.97"/>
    <rect class="st1" x="280.1" y="182.24" width="44.99" height="89.97"/>
    <rect class="st1" x="370.07" y="182.24" width="44.99" height="89.97"/>
    <rect class="st1" x="325.09" y="92.27" width="44.99" height="89.97"/>
    <rect class="st1" x="415.06" y="92.27" width="44.99" height="89.97"/>
    <rect class="st1" x="55.17" y="362.19" width="44.99" height="89.97"/>
    <rect class="st1" x="145.14" y="362.19" width="44.99" height="89.97"/>
    <rect class="st1" x="190.13" y="272.22" width="44.99" height="89.97"/>
    <rect class="st1" x="100.16" y="272.22" width="44.99" height="89.97"/>
    <rect class="st1" x="100.16" y="452.16" width="44.99" height="89.97"/>
    <rect class="st1" x="10.18" y="272.22" width="44.99" height="89.97"/>
    <rect class="st1" x="235.11" y="452.16" width="44.99" height="89.97"/>
    <rect class="st1" x="325.09" y="272.22" width="44.99" height="89.97"/>
    <rect class="st1" x="280.1" y="362.19" width="44.99" height="89.97"/>
    <rect class="st1" x="370.07" y="362.19" width="44.99" height="89.97"/>
    <rect class="st1" x="280.1" y="542.13" width="44.99" height="89.97"/>
    <rect class="st1" x="325.09" y="632.1" width="44.99" height="89.97"/>
    <rect class="st1" x="370.07" y="542.13" width="44.99" height="89.97"/>
    <rect class="st1" x="325.09" y="452.16" width="44.99" height="89.97"/>
    <rect class="st1" x="415.06" y="452.16" width="44.99" height="89.97"/>
    <rect class="st1" x="505.03" y="722.07" width="44.99" height="89.97"/>
    <rect class="st1" x="595" y="722.07" width="44.99" height="89.97"/>
    <rect class="st1" x="639.99" y="632.1" width="44.99" height="89.97"/>
    <rect class="st1" x="550.01" y="632.1" width="44.99" height="89.97"/>
    <rect class="st1" x="550.01" y="812.05" width="44.99" height="89.97"/>
    <rect class="st1" x="460.04" y="632.1" width="44.99" height="89.97"/>
    <rect class="st1" x="774.94" y="632.1" width="44.99" height="89.97"/>
    <rect class="st1" x="1224.8" y="632.1" width="44.99" height="89.97"/>
    <g class="st5">
      <path class="st3" d="M738.43,1156.71c1.93,0,1.93-3,0-3s-1.93,3,0,3h0Z"/>
    </g>
  </g>
  <g id="Layer_5">
    <g id="Page-1">
      <g id="cage">
        <path id="Combined-Shape" class="st0" d="M150.62,0v42.97c0,41.63-33.8,75.38-75.31,75.38S0,84.59,0,42.97V0h21.52v43.09c0,29.69,24.08,53.74,53.79,53.74s53.79-24.06,53.79-53.74V0h21.52ZM150.62,279.73v-64.48c0-41.62-33.72-75.38-75.31-75.38S0,173.62,0,215.25v64.48h21.52v-64.6c0-29.68,24.14-53.74,53.79-53.74s53.79,24.06,53.79,53.74v64.6h21.52ZM172.14,75.38C172.14,33.75,205.94,0,247.45,0s75.31,33.76,75.31,75.38v107.45c0,41.63-33.8,75.38-75.31,75.38s-75.31-33.76-75.31-75.38c0,0,0-107.45,0-107.45ZM193.66,75.26c0-29.68,24.14-53.74,53.79-53.74s53.79,24.06,53.79,53.74v107.69c0,29.68-24.14,53.74-53.79,53.74s-53.79-24.06-53.79-53.74v-107.69Z"/>
      </g>
    </g>
    <path class="st2" d="M150.62,279.73v42.97c0,41.63-33.8,75.38-75.31,75.38S0,364.32,0,322.7v-42.97h21.52v43.09c0,29.69,24.08,53.74,53.79,53.74s53.79-24.06,53.79-53.74v-43.09h21.52Z"/>
    <path class="st2" d="M247.45,279.73c-41.51,0-75.31,33.75-75.31,75.38v107.45c0,41.62,33.72,75.38,75.31,75.38s75.31-33.75,75.31-75.38v-107.45c0-41.62-33.72-75.38-75.31-75.38h0ZM301.24,462.68c0,29.68-24.14,53.74-53.79,53.74s-53.79-24.06-53.79-53.74v-107.69c0-29.68,24.14-53.74,53.79-53.74s53.79,24.06,53.79,53.74v107.69Z"/>
    <path class="st2" d="M421.02,419.59c-41.51,0-75.31,33.75-75.31,75.38v107.45c0,41.62,33.72,75.38,75.31,75.38s75.31-33.75,75.31-75.38v-107.45c0-41.62-33.72-75.38-75.31-75.38h0ZM474.82,602.54c0,29.68-24.14,53.74-53.79,53.74s-53.79-24.06-53.79-53.74v-107.69c0-29.68,24.14-53.74,53.79-53.74s53.79,24.06,53.79,53.74v107.69Z"/>
    <path class="st2" d="M766.02,419.59c-41.51,0-75.31,33.75-75.31,75.38v107.45c0,41.62,33.72,75.38,75.31,75.38s75.31-33.75,75.31-75.38v-107.45c0-41.62-33.72-75.38-75.31-75.38h0ZM819.82,602.54c0,29.68-24.14,53.74-53.79,53.74s-53.79-24.06-53.79-53.74v-107.69c0-29.68,24.14-53.74,53.79-53.74s53.79,24.06,53.79,53.74v107.69Z"/>
    <path class="st2" d="M1112.45,419.59c-41.51,0-75.31,33.75-75.31,75.38v107.45c0,41.62,33.72,75.38,75.31,75.38s75.31-33.75,75.31-75.38v-107.45c0-41.62-33.72-75.38-75.31-75.38h0ZM1166.25,602.54c0,29.68-24.14,53.74-53.79,53.74s-53.79-24.06-53.79-53.74v-107.69c0-29.68,24.14-53.74,53.79-53.74s53.79,24.06,53.79,53.74v107.69Z"/>
    <path class="st2" d="M940.31,563.15c-41.51,0-75.31,33.75-75.31,75.38v107.45c0,41.62,33.72,75.38,75.31,75.38s75.31-33.75,75.31-75.38v-107.45c0-41.62-33.72-75.38-75.31-75.38ZM994.11,746.1c0,29.68-24.14,53.74-53.79,53.74s-53.79-24.06-53.79-53.74v-107.69c0-29.68,24.14-53.74,53.79-53.74s53.79,24.06,53.79,53.74v107.69Z"/>
    <path class="st2" d="M1286.03,563.15c-41.51,0-75.31,33.75-75.31,75.38v107.45c0,41.62,33.72,75.38,75.31,75.38s75.31-33.75,75.31-75.38v-107.45c0-41.62-33.72-75.38-75.31-75.38ZM1339.82,746.1c0,29.68-24.14,53.74-53.79,53.74s-53.79-24.06-53.79-53.74v-107.69c0-29.68,24.14-53.74,53.79-53.74s53.79,24.06,53.79,53.74v107.69Z"/>
    <path class="st2" d="M496.34,279.73v42.97c0,41.63-33.8,75.38-75.31,75.38s-75.31-33.76-75.31-75.38v-42.97h21.52v43.09c0,29.69,24.08,53.74,53.79,53.74s53.79-24.06,53.79-53.74v-43.09h21.52Z"/>
    <path class="st2" d="M593.16,279.73c-41.51,0-75.31,33.75-75.31,75.38v107.45c0,41.62,33.72,75.38,75.31,75.38s75.31-33.75,75.31-75.38v-107.45c0-41.62-33.72-75.38-75.31-75.38h0ZM646.96,462.68c0,29.68-24.14,53.74-53.79,53.74s-53.79-24.06-53.79-53.74v-107.69c0-29.68,24.14-53.74,53.79-53.74s53.79,24.06,53.79,53.74v107.69Z"/>
    <path class="st2" d="M842.05,279.73v42.97c0,41.63-33.8,75.38-75.31,75.38s-75.31-33.76-75.31-75.38v-42.97h21.52v43.09c0,29.69,24.08,53.74,53.79,53.74s53.79-24.06,53.79-53.74v-43.09h21.52Z"/>
    <path class="st2" d="M938.88,279.73c-41.51,0-75.31,33.75-75.31,75.38v107.45c0,41.62,33.72,75.38,75.31,75.38s75.31-33.75,75.31-75.38v-107.45c0-41.62-33.72-75.38-75.31-75.38h0ZM992.67,462.68c0,29.68-24.14,53.74-53.79,53.74s-53.79-24.06-53.79-53.74v-107.69c0-29.68,24.14-53.74,53.79-53.74s53.79,24.06,53.79,53.74v107.69Z"/>
    <path class="st2" d="M1187.76,279.73v42.97c0,41.63-33.8,75.38-75.31,75.38s-75.31-33.76-75.31-75.38v-42.97h21.52v43.09c0,29.69,24.08,53.74,53.79,53.74s53.79-24.06,53.79-53.74v-43.09h21.52Z"/>
    <path class="st2" d="M1284.59,279.73c-41.51,0-75.31,33.75-75.31,75.38v107.45c0,41.62,33.72,75.38,75.31,75.38s75.31-33.75,75.31-75.38v-107.45c0-41.62-33.72-75.38-75.31-75.38h0ZM1338.39,462.68c0,29.68-24.14,53.74-53.79,53.74s-53.79-24.06-53.79-53.74v-107.69c0-29.68,24.14-53.74,53.79-53.74s53.79,24.06,53.79,53.74v107.69Z"/>
    <g id="Page-11">
      <g id="cage1">
        <path id="Combined-Shape1" class="st0" d="M496.34,0v42.97c0,41.63-33.8,75.38-75.31,75.38s-75.31-33.76-75.31-75.38V0h21.52v43.09c0,29.69,24.08,53.74,53.79,53.74s53.79-24.06,53.79-53.74V0h21.52ZM496.34,279.73v-64.48c0-41.62-33.72-75.38-75.31-75.38s-75.31,33.75-75.31,75.38v64.48h21.52v-64.6c0-29.68,24.14-53.74,53.79-53.74s53.79,24.06,53.79,53.74v64.6h21.52ZM517.85,75.38c0-41.63,33.8-75.38,75.31-75.38s75.31,33.76,75.31,75.38v107.45c0,41.63-33.8,75.38-75.31,75.38s-75.31-33.76-75.31-75.38v-107.45h0ZM539.37,75.26c0-29.68,24.14-53.74,53.79-53.74s53.79,24.06,53.79,53.74v107.69c0,29.68-24.14,53.74-53.79,53.74s-53.79-24.06-53.79-53.74v-107.69Z"/>
      </g>
    </g>
    <g id="Page-12">
      <g id="cage2">
        <path id="Combined-Shape2" class="st0" d="M842.05,0v42.97c0,41.63-33.8,75.38-75.31,75.38s-75.31-33.76-75.31-75.38V0h21.52v43.09c0,29.69,24.08,53.74,53.79,53.74s53.79-24.06,53.79-53.74V0h21.52ZM842.05,279.73v-64.48c0-41.62-33.72-75.38-75.31-75.38s-75.31,33.75-75.31,75.38v64.48h21.52v-64.6c0-29.68,24.14-53.74,53.79-53.74s53.79,24.06,53.79,53.74v64.6h21.52ZM863.57,75.38c0-41.63,33.8-75.38,75.31-75.38s75.31,33.76,75.31,75.38v107.45c0,41.63-33.8,75.38-75.31,75.38s-75.31-33.76-75.31-75.38c0,0,0-107.45,0-107.45ZM885.09,75.26c0-29.68,24.14-53.74,53.79-53.74s53.79,24.06,53.79,53.74v107.69c0,29.68-24.14,53.74-53.79,53.74s-53.79-24.06-53.79-53.74v-107.69Z"/>
      </g>
    </g>
    <g id="Page-13">
      <g id="cage3">
        <path id="Combined-Shape3" class="st0" d="M1187.76,0v42.97c0,41.63-33.8,75.38-75.31,75.38s-75.31-33.76-75.31-75.38V0h21.52v43.09c0,29.69,24.08,53.74,53.79,53.74s53.79-24.06,53.79-53.74V0h21.52ZM1187.76,279.73v-64.48c0-41.62-33.72-75.38-75.31-75.38s-75.31,33.75-75.31,75.38v64.48h21.52v-64.6c0-29.68,24.14-53.74,53.79-53.74s53.79,24.06,53.79,53.74v64.6h21.52ZM1209.28,75.38c0-41.63,33.8-75.38,75.31-75.38s75.31,33.76,75.31,75.38v107.45c0,41.63-33.8,75.38-75.31,75.38s-75.31-33.76-75.31-75.38c0,0,0-107.45,0-107.45ZM1230.8,75.26c0-29.68,24.14-53.74,53.79-53.74s53.79,24.06,53.79,53.74v107.69c0,29.68-24.14,53.74-53.79,53.74s-53.79-24.06-53.79-53.74v-107.69Z"/>
      </g>
    </g>
  </g>
</svg>