<?xml version="1.0" encoding="UTF-8"?>
<svg id="Layer_1" xmlns="http://www.w3.org/2000/svg" version="1.1" xmlns:xlink="http://www.w3.org/1999/xlink" viewBox="0 0 1760.33 882.78">
  <!-- Generator: Adobe Illustrator 29.8.2, SVG Export Plug-In . SVG Version: 2.1.1 Build 3)  -->
  <defs>
    <style>
      .st0 {
        fill: #e83150;
      }

      .st1 {
        display: none;
      }

      .st2 {
        opacity: .1;
      }

      .st3 {
        fill: url(#linear-gradient);
      }
    </style>
    <linearGradient id="linear-gradient" x1="1295.09" y1="-1032.77" x2="688.45" y2="677.84" gradientTransform="translate(0 890) scale(1 -1)" gradientUnits="userSpaceOnUse">
      <stop offset="0" stop-color="#e83150"/>
      <stop offset=".26" stop-color="#941f33"/>
      <stop offset=".5" stop-color="#51111b"/>
      <stop offset=".66" stop-color="#27080d"/>
      <stop offset=".75" stop-color="#180508"/>
      <stop offset=".85" stop-color="#080102"/>
      <stop offset=".93" stop-color="#000"/>
    </linearGradient>
  </defs>
  <g id="Layer_11" class="st1">
    <g>
      <rect class="st3" x="-154.79" y=".5" width="1919" height="1079"/>
      <path d="M1763.71,1v1078H-154.29V1h1918M1764.71,0H-155.29v1080h1920V0h0Z"/>
    </g>
  </g>
  <g id="Layer_2">
    <path class="st0" d="M1685.19,12.29c34.86,0,63.22,28.36,63.22,63.22s-28.36,63.22-63.22,63.22-63.22-28.36-63.22-63.22,28.36-63.22,63.22-63.22M1685.19,2.34c-40.41,0-73.17,32.76-73.17,73.17s32.76,73.17,73.17,73.17,73.17-32.76,73.17-73.17S1725.6,2.34,1685.19,2.34h0Z"/>
    <path class="st0" d="M1538.85,12.29c34.86,0,63.22,28.36,63.22,63.22s-28.36,63.22-63.22,63.22-63.22-28.36-63.22-63.22,28.36-63.22,63.22-63.22M1538.85,2.34c-40.41,0-73.17,32.76-73.17,73.17s32.76,73.17,73.17,73.17,73.17-32.76,73.17-73.17S1579.26,2.34,1538.85,2.34h0Z"/>
    <path class="st0" d="M1392.52,12.29c34.86,0,63.22,28.36,63.22,63.22s-28.36,63.22-63.22,63.22-63.22-28.36-63.22-63.22,28.36-63.22,63.22-63.22M1392.52,2.34c-40.41,0-73.17,32.76-73.17,73.17s32.76,73.17,73.17,73.17,73.17-32.76,73.17-73.17S1432.93,2.34,1392.52,2.34h0Z"/>
    <path class="st0" d="M1246.19,12.29c34.86,0,63.22,28.36,63.22,63.22s-28.36,63.22-63.22,63.22-63.22-28.36-63.22-63.22,28.36-63.22,63.22-63.22M1246.19,2.34c-40.41,0-73.17,32.76-73.17,73.17s32.76,73.17,73.17,73.17,73.17-32.76,73.17-73.17S1286.6,2.34,1246.19,2.34h0Z"/>
    <path class="st0" d="M1099.86,12.29c34.86,0,63.22,28.36,63.22,63.22s-28.36,63.22-63.22,63.22-63.22-28.36-63.22-63.22,28.36-63.22,63.22-63.22M1099.86,2.34c-40.41,0-73.17,32.76-73.17,73.17s32.76,73.17,73.17,73.17,73.17-32.76,73.17-73.17S1140.26,2.34,1099.86,2.34h0Z"/>
    <path class="st0" d="M953.53,12.29c34.86,0,63.22,28.36,63.22,63.22s-28.36,63.22-63.22,63.22-63.22-28.36-63.22-63.22,28.36-63.22,63.22-63.22M953.53,2.34c-40.41,0-73.17,32.76-73.17,73.17s32.76,73.17,73.17,73.17,73.17-32.76,73.17-73.17S993.94,2.34,953.53,2.34h0Z"/>
    <path class="st0" d="M807.19,12.29c34.86,0,63.22,28.36,63.22,63.22s-28.36,63.22-63.22,63.22-63.22-28.36-63.22-63.22,28.36-63.22,63.22-63.22M807.19,2.34c-40.41,0-73.17,32.76-73.17,73.17s32.76,73.17,73.17,73.17,73.17-32.76,73.17-73.17S847.6,2.34,807.19,2.34h0Z"/>
    <path class="st0" d="M660.86,12.29c34.86,0,63.22,28.36,63.22,63.22s-28.36,63.22-63.22,63.22-63.22-28.36-63.22-63.22,28.36-63.22,63.22-63.22M660.86,2.34c-40.41,0-73.17,32.76-73.17,73.17s32.76,73.17,73.17,73.17,73.17-32.76,73.17-73.17S701.27,2.34,660.86,2.34h0Z"/>
    <path class="st0" d="M514.52,12.29c34.86,0,63.22,28.36,63.22,63.22s-28.36,63.22-63.22,63.22-63.22-28.36-63.22-63.22,28.36-63.22,63.22-63.22M514.52,2.34c-40.41,0-73.17,32.76-73.17,73.17s32.76,73.17,73.17,73.17,73.17-32.76,73.17-73.17S554.93,2.34,514.52,2.34h0Z"/>
    <path class="st0" d="M368.19,12.29c34.86,0,63.22,28.36,63.22,63.22s-28.36,63.22-63.22,63.22-63.22-28.36-63.22-63.22,28.36-63.22,63.22-63.22M368.19,2.34c-40.41,0-73.17,32.76-73.17,73.17s32.76,73.17,73.17,73.17,73.17-32.76,73.17-73.17S408.6,2.34,368.19,2.34h0Z"/>
    <path class="st0" d="M221.86,12.29c34.86,0,63.22,28.36,63.22,63.22s-28.36,63.22-63.22,63.22-63.22-28.36-63.22-63.22,28.36-63.22,63.22-63.22M221.86,2.34c-40.41,0-73.17,32.76-73.17,73.17s32.76,73.17,73.17,73.17,73.17-32.76,73.17-73.17S262.27,2.34,221.86,2.34h0Z"/>
    <path class="st0" d="M75.52,12.29c34.86,0,63.22,28.36,63.22,63.22s-28.36,63.22-63.22,63.22S12.31,110.36,12.31,75.5,40.66,12.29,75.52,12.29M75.52,2.34C35.11,2.34,2.35,35.09,2.35,75.5s32.76,73.17,73.17,73.17,73.17-32.76,73.17-73.17S115.93,2.34,75.52,2.34h0Z"/>
    <path class="st0" d="M1685.19,158.62c34.86,0,63.22,28.36,63.22,63.22s-28.36,63.22-63.22,63.22-63.22-28.36-63.22-63.22,28.36-63.22,63.22-63.22M1685.19,148.67c-40.41,0-73.17,32.76-73.17,73.17s32.76,73.17,73.17,73.17,73.17-32.76,73.17-73.17-32.76-73.17-73.17-73.17h0Z"/>
    <path class="st0" d="M75.52,158.62c34.86,0,63.22,28.36,63.22,63.22s-28.36,63.22-63.22,63.22-63.22-28.36-63.22-63.22,28.36-63.22,63.22-63.22M75.52,148.67c-40.41,0-73.17,32.76-73.17,73.17s32.76,73.17,73.17,73.17,73.17-32.76,73.17-73.17-32.76-73.17-73.17-73.17h0Z"/>
    <path class="st0" d="M1538.85,158.62c34.86,0,63.22,28.36,63.22,63.22s-28.36,63.22-63.22,63.22-63.22-28.36-63.22-63.22,28.36-63.22,63.22-63.22M1538.85,148.67c-40.41,0-73.17,32.76-73.17,73.17s32.76,73.17,73.17,73.17,73.17-32.76,73.17-73.17-32.76-73.17-73.17-73.17h0Z"/>
    <path class="st0" d="M1392.52,158.62c34.86,0,63.22,28.36,63.22,63.22s-28.36,63.22-63.22,63.22-63.22-28.36-63.22-63.22,28.36-63.22,63.22-63.22M1392.52,148.67c-40.41,0-73.17,32.76-73.17,73.17s32.76,73.17,73.17,73.17,73.17-32.76,73.17-73.17-32.76-73.17-73.17-73.17h0Z"/>
    <path class="st0" d="M1246.19,158.62c34.86,0,63.22,28.36,63.22,63.22s-28.36,63.22-63.22,63.22-63.22-28.36-63.22-63.22,28.36-63.22,63.22-63.22M1246.19,148.67c-40.41,0-73.17,32.76-73.17,73.17s32.76,73.17,73.17,73.17,73.17-32.76,73.17-73.17-32.76-73.17-73.17-73.17h0Z"/>
    <path class="st0" d="M1099.86,158.62c34.86,0,63.22,28.36,63.22,63.22s-28.36,63.22-63.22,63.22-63.22-28.36-63.22-63.22,28.36-63.22,63.22-63.22M1099.86,148.67c-40.41,0-73.17,32.76-73.17,73.17s32.76,73.17,73.17,73.17,73.17-32.76,73.17-73.17-32.76-73.17-73.17-73.17h0Z"/>
    <path class="st0" d="M953.53,158.62c34.86,0,63.22,28.36,63.22,63.22s-28.36,63.22-63.22,63.22-63.22-28.36-63.22-63.22,28.36-63.22,63.22-63.22M953.53,148.67c-40.41,0-73.17,32.76-73.17,73.17s32.76,73.17,73.17,73.17,73.17-32.76,73.17-73.17-32.76-73.17-73.17-73.17h0Z"/>
    <path class="st0" d="M807.19,158.62c34.86,0,63.22,28.36,63.22,63.22s-28.36,63.22-63.22,63.22-63.22-28.36-63.22-63.22,28.36-63.22,63.22-63.22M807.19,148.67c-40.41,0-73.17,32.76-73.17,73.17s32.76,73.17,73.17,73.17,73.17-32.76,73.17-73.17-32.76-73.17-73.17-73.17h0Z"/>
    <path class="st0" d="M660.86,158.62c34.86,0,63.22,28.36,63.22,63.22s-28.36,63.22-63.22,63.22-63.22-28.36-63.22-63.22,28.36-63.22,63.22-63.22M660.86,148.67c-40.41,0-73.17,32.76-73.17,73.17s32.76,73.17,73.17,73.17,73.17-32.76,73.17-73.17-32.76-73.17-73.17-73.17h0Z"/>
    <path class="st0" d="M514.52,158.62c34.86,0,63.22,28.36,63.22,63.22s-28.36,63.22-63.22,63.22-63.22-28.36-63.22-63.22,28.36-63.22,63.22-63.22M514.52,148.67c-40.41,0-73.17,32.76-73.17,73.17s32.76,73.17,73.17,73.17,73.17-32.76,73.17-73.17-32.76-73.17-73.17-73.17h0Z"/>
    <path class="st0" d="M368.19,158.62c34.86,0,63.22,28.36,63.22,63.22s-28.36,63.22-63.22,63.22-63.22-28.36-63.22-63.22,28.36-63.22,63.22-63.22M368.19,148.67c-40.41,0-73.17,32.76-73.17,73.17s32.76,73.17,73.17,73.17,73.17-32.76,73.17-73.17-32.76-73.17-73.17-73.17h0Z"/>
    <path class="st0" d="M221.86,158.62c34.86,0,63.22,28.36,63.22,63.22s-28.36,63.22-63.22,63.22-63.22-28.36-63.22-63.22,28.36-63.22,63.22-63.22M221.86,148.67c-40.41,0-73.17,32.76-73.17,73.17s32.76,73.17,73.17,73.17,73.17-32.76,73.17-73.17-32.76-73.17-73.17-73.17h0Z"/>
    <path class="st0" d="M1685.19,304.95c34.86,0,63.22,28.36,63.22,63.22s-28.36,63.22-63.22,63.22-63.22-28.36-63.22-63.22,28.36-63.22,63.22-63.22M1685.19,295c-40.41,0-73.17,32.76-73.17,73.17s32.76,73.17,73.17,73.17,73.17-32.76,73.17-73.17-32.76-73.17-73.17-73.17h0Z"/>
    <path class="st0" d="M1538.85,304.95c34.86,0,63.22,28.36,63.22,63.22s-28.36,63.22-63.22,63.22-63.22-28.36-63.22-63.22,28.36-63.22,63.22-63.22M1538.85,295c-40.41,0-73.17,32.76-73.17,73.17s32.76,73.17,73.17,73.17,73.17-32.76,73.17-73.17-32.76-73.17-73.17-73.17h0Z"/>
    <path class="st0" d="M1392.52,304.95c34.86,0,63.22,28.36,63.22,63.22s-28.36,63.22-63.22,63.22-63.22-28.36-63.22-63.22,28.36-63.22,63.22-63.22M1392.52,295c-40.41,0-73.17,32.76-73.17,73.17s32.76,73.17,73.17,73.17,73.17-32.76,73.17-73.17-32.76-73.17-73.17-73.17h0Z"/>
    <path class="st0" d="M1246.19,304.95c34.86,0,63.22,28.36,63.22,63.22s-28.36,63.22-63.22,63.22-63.22-28.36-63.22-63.22,28.36-63.22,63.22-63.22M1246.19,295c-40.41,0-73.17,32.76-73.17,73.17s32.76,73.17,73.17,73.17,73.17-32.76,73.17-73.17-32.76-73.17-73.17-73.17h0Z"/>
    <path class="st0" d="M1099.86,304.95c34.86,0,63.22,28.36,63.22,63.22s-28.36,63.22-63.22,63.22-63.22-28.36-63.22-63.22,28.36-63.22,63.22-63.22M1099.86,295c-40.41,0-73.17,32.76-73.17,73.17s32.76,73.17,73.17,73.17,73.17-32.76,73.17-73.17-32.76-73.17-73.17-73.17h0Z"/>
    <path class="st0" d="M953.53,304.95c34.86,0,63.22,28.36,63.22,63.22s-28.36,63.22-63.22,63.22-63.22-28.36-63.22-63.22,28.36-63.22,63.22-63.22M953.53,295c-40.41,0-73.17,32.76-73.17,73.17s32.76,73.17,73.17,73.17,73.17-32.76,73.17-73.17-32.76-73.17-73.17-73.17h0Z"/>
    <path class="st0" d="M807.19,304.95c34.86,0,63.22,28.36,63.22,63.22s-28.36,63.22-63.22,63.22-63.22-28.36-63.22-63.22,28.36-63.22,63.22-63.22M807.19,295c-40.41,0-73.17,32.76-73.17,73.17s32.76,73.17,73.17,73.17,73.17-32.76,73.17-73.17-32.76-73.17-73.17-73.17h0Z"/>
    <path class="st0" d="M660.86,304.95c34.86,0,63.22,28.36,63.22,63.22s-28.36,63.22-63.22,63.22-63.22-28.36-63.22-63.22,28.36-63.22,63.22-63.22M660.86,295c-40.41,0-73.17,32.76-73.17,73.17s32.76,73.17,73.17,73.17,73.17-32.76,73.17-73.17-32.76-73.17-73.17-73.17h0Z"/>
    <path class="st0" d="M514.52,304.95c34.86,0,63.22,28.36,63.22,63.22s-28.36,63.22-63.22,63.22-63.22-28.36-63.22-63.22,28.36-63.22,63.22-63.22M514.52,295c-40.41,0-73.17,32.76-73.17,73.17s32.76,73.17,73.17,73.17,73.17-32.76,73.17-73.17-32.76-73.17-73.17-73.17h0Z"/>
    <path class="st0" d="M368.19,304.95c34.86,0,63.22,28.36,63.22,63.22s-28.36,63.22-63.22,63.22-63.22-28.36-63.22-63.22,28.36-63.22,63.22-63.22M368.19,295c-40.41,0-73.17,32.76-73.17,73.17s32.76,73.17,73.17,73.17,73.17-32.76,73.17-73.17-32.76-73.17-73.17-73.17h0Z"/>
    <path class="st0" d="M221.86,304.95c34.86,0,63.22,28.36,63.22,63.22s-28.36,63.22-63.22,63.22-63.22-28.36-63.22-63.22,28.36-63.22,63.22-63.22M221.86,295c-40.41,0-73.17,32.76-73.17,73.17s32.76,73.17,73.17,73.17,73.17-32.76,73.17-73.17-32.76-73.17-73.17-73.17h0Z"/>
    <path class="st0" d="M1685.19,451.29c34.86,0,63.22,28.36,63.22,63.22s-28.36,63.22-63.22,63.22-63.22-28.36-63.22-63.22,28.36-63.22,63.22-63.22M1685.19,441.34c-40.41,0-73.17,32.76-73.17,73.17s32.76,73.17,73.17,73.17,73.17-32.76,73.17-73.17-32.76-73.17-73.17-73.17h0Z"/>
    <path class="st0" d="M1392.52,451.29c34.86,0,63.22,28.36,63.22,63.22s-28.36,63.22-63.22,63.22-63.22-28.36-63.22-63.22,28.36-63.22,63.22-63.22M1392.52,441.34c-40.41,0-73.17,32.76-73.17,73.17s32.76,73.17,73.17,73.17,73.17-32.76,73.17-73.17-32.76-73.17-73.17-73.17h0Z"/>
    <path class="st0" d="M1246.19,451.29c34.86,0,63.22,28.36,63.22,63.22s-28.36,63.22-63.22,63.22-63.22-28.36-63.22-63.22,28.36-63.22,63.22-63.22M1246.19,441.34c-40.41,0-73.17,32.76-73.17,73.17s32.76,73.17,73.17,73.17,73.17-32.76,73.17-73.17-32.76-73.17-73.17-73.17h0Z"/>
    <path class="st0" d="M1099.86,451.29c34.86,0,63.22,28.36,63.22,63.22s-28.36,63.22-63.22,63.22-63.22-28.36-63.22-63.22,28.36-63.22,63.22-63.22M1099.86,441.34c-40.41,0-73.17,32.76-73.17,73.17s32.76,73.17,73.17,73.17,73.17-32.76,73.17-73.17-32.76-73.17-73.17-73.17h0Z"/>
    <path class="st0" d="M953.53,451.29c34.86,0,63.22,28.36,63.22,63.22s-28.36,63.22-63.22,63.22-63.22-28.36-63.22-63.22,28.36-63.22,63.22-63.22M953.53,441.34c-40.41,0-73.17,32.76-73.17,73.17s32.76,73.17,73.17,73.17,73.17-32.76,73.17-73.17-32.76-73.17-73.17-73.17h0Z"/>
    <path class="st0" d="M660.86,451.29c34.86,0,63.22,28.36,63.22,63.22s-28.36,63.22-63.22,63.22-63.22-28.36-63.22-63.22,28.36-63.22,63.22-63.22M660.86,441.34c-40.41,0-73.17,32.76-73.17,73.17s32.76,73.17,73.17,73.17,73.17-32.76,73.17-73.17-32.76-73.17-73.17-73.17h0Z"/>
    <path class="st0" d="M514.52,451.29c34.86,0,63.22,28.36,63.22,63.22s-28.36,63.22-63.22,63.22-63.22-28.36-63.22-63.22,28.36-63.22,63.22-63.22M514.52,441.34c-40.41,0-73.17,32.76-73.17,73.17s32.76,73.17,73.17,73.17,73.17-32.76,73.17-73.17-32.76-73.17-73.17-73.17h0Z"/>
    <path class="st0" d="M368.19,451.29c34.86,0,63.22,28.36,63.22,63.22s-28.36,63.22-63.22,63.22-63.22-28.36-63.22-63.22,28.36-63.22,63.22-63.22M368.19,441.34c-40.41,0-73.17,32.76-73.17,73.17s32.76,73.17,73.17,73.17,73.17-32.76,73.17-73.17-32.76-73.17-73.17-73.17h0Z"/>
    <path class="st0" d="M221.86,451.29c34.86,0,63.22,28.36,63.22,63.22s-28.36,63.22-63.22,63.22-63.22-28.36-63.22-63.22,28.36-63.22,63.22-63.22M221.86,441.34c-40.41,0-73.17,32.76-73.17,73.17s32.76,73.17,73.17,73.17,73.17-32.76,73.17-73.17-32.76-73.17-73.17-73.17h0Z"/>
    <path class="st0" d="M1392.52,597.62c34.86,0,63.22,28.36,63.22,63.22s-28.36,63.22-63.22,63.22-63.22-28.36-63.22-63.22,28.36-63.22,63.22-63.22M1392.52,587.67c-40.41,0-73.17,32.76-73.17,73.17s32.76,73.17,73.17,73.17,73.17-32.76,73.17-73.17-32.76-73.17-73.17-73.17h0Z"/>
    <path class="st0" d="M1246.19,597.62c34.86,0,63.22,28.36,63.22,63.22s-28.36,63.22-63.22,63.22-63.22-28.36-63.22-63.22,28.36-63.22,63.22-63.22M1246.19,587.67c-40.41,0-73.17,32.76-73.17,73.17s32.76,73.17,73.17,73.17,73.17-32.76,73.17-73.17-32.76-73.17-73.17-73.17h0Z"/>
    <path class="st0" d="M953.53,597.62c34.86,0,63.22,28.36,63.22,63.22s-28.36,63.22-63.22,63.22-63.22-28.36-63.22-63.22,28.36-63.22,63.22-63.22M953.53,587.67c-40.41,0-73.17,32.76-73.17,73.17s32.76,73.17,73.17,73.17,73.17-32.76,73.17-73.17-32.76-73.17-73.17-73.17h0Z"/>
    <path class="st0" d="M660.86,597.62c34.86,0,63.22,28.36,63.22,63.22s-28.36,63.22-63.22,63.22-63.22-28.36-63.22-63.22,28.36-63.22,63.22-63.22M660.86,587.67c-40.41,0-73.17,32.76-73.17,73.17s32.76,73.17,73.17,73.17,73.17-32.76,73.17-73.17-32.76-73.17-73.17-73.17h0Z"/>
    <path class="st0" d="M514.52,597.62c34.86,0,63.22,28.36,63.22,63.22s-28.36,63.22-63.22,63.22-63.22-28.36-63.22-63.22,28.36-63.22,63.22-63.22M514.52,587.67c-40.41,0-73.17,32.76-73.17,73.17s32.76,73.17,73.17,73.17,73.17-32.76,73.17-73.17-32.76-73.17-73.17-73.17h0Z"/>
    <path class="st0" d="M221.86,597.62c34.86,0,63.22,28.36,63.22,63.22s-28.36,63.22-63.22,63.22-63.22-28.36-63.22-63.22,28.36-63.22,63.22-63.22M221.86,587.67c-40.41,0-73.17,32.76-73.17,73.17s32.76,73.17,73.17,73.17,73.17-32.76,73.17-73.17-32.76-73.17-73.17-73.17h0Z"/>
    <path class="st0" d="M1246.19,743.95c34.86,0,63.22,28.36,63.22,63.22s-28.36,63.22-63.22,63.22-63.22-28.36-63.22-63.22,28.36-63.22,63.22-63.22M1246.19,734c-40.41,0-73.17,32.76-73.17,73.17s32.76,73.17,73.17,73.17,73.17-32.76,73.17-73.17-32.76-73.17-73.17-73.17h0Z"/>
    <path class="st0" d="M514.52,743.95c34.86,0,63.22,28.36,63.22,63.22s-28.36,63.22-63.22,63.22-63.22-28.36-63.22-63.22,28.36-63.22,63.22-63.22M514.52,734c-40.41,0-73.17,32.76-73.17,73.17s32.76,73.17,73.17,73.17,73.17-32.76,73.17-73.17-32.76-73.17-73.17-73.17h0Z"/>
  </g>
  <g id="Layer_3" class="st1">
    <g class="st2">
      <polygon class="st0" points="1482.97 25.31 1442.13 72.68 1401.39 25.42 1387.86 37.07 1430.34 86.36 1387.97 135.52 1401.49 147.18 1442.13 100.03 1482.86 147.29 1496.39 135.63 1453.92 86.36 1496.49 36.97 1482.97 25.31 1482.97 25.31"/>
      <polygon class="st0" points="1367 162.99 1326.2 210.33 1285.47 163.08 1271.94 174.74 1314.41 224.01 1272 273.21 1285.53 284.87 1326.2 237.68 1366.94 284.95 1380.47 273.3 1337.98 224.01 1380.53 174.65 1367 162.99 1367 162.99"/>
      <polygon class="st0" points="1249.78 25.35 1208.95 72.72 1168.23 25.48 1154.7 37.14 1197.16 86.4 1154.78 135.56 1168.31 147.22 1208.95 100.07 1249.7 147.35 1263.23 135.69 1220.74 86.4 1263.31 37 1249.78 25.35 1249.78 25.35"/>
      <polygon class="st0" points="1732.24 25.35 1691.43 72.69 1650.72 25.45 1637.19 37.11 1679.65 86.37 1637.24 135.57 1650.76 147.22 1691.43 100.04 1732.19 147.32 1745.72 135.67 1703.22 86.37 1745.77 37.01 1732.24 25.35 1732.24 25.35"/>
      <polygon class="st0" points="1600.4 174.47 1559.6 221.8 1518.9 174.59 1505.38 186.25 1547.81 235.48 1505.4 284.69 1518.93 296.34 1559.6 249.15 1600.38 296.46 1613.91 284.8 1571.39 235.48 1613.93 186.13 1600.4 174.47 1600.4 174.47"/>
      <polygon class="st0" points="1470.21 310.45 1429.4 357.79 1388.68 310.55 1375.15 322.21 1417.61 371.46 1375.21 420.66 1388.73 432.32 1429.4 385.14 1470.15 432.42 1483.68 420.76 1441.19 371.46 1483.73 322.1 1470.21 310.45 1470.21 310.45"/>
      <polygon class="st0" points="1354.24 448.13 1313.43 495.47 1272.66 448.17 1259.13 459.82 1301.65 509.15 1259.24 558.34 1272.77 570 1313.43 522.82 1354.13 570.04 1367.66 558.38 1325.22 509.15 1367.77 459.79 1354.24 448.13 1354.24 448.13"/>
      <polygon class="st0" points="1237.02 310.48 1196.21 357.83 1155.46 310.55 1141.93 322.21 1184.43 371.51 1142.02 420.7 1155.55 432.36 1196.21 385.18 1236.93 432.42 1250.46 420.76 1208 371.51 1250.55 322.14 1237.02 310.48 1237.02 310.48"/>
      <polygon class="st0" points="1119.77 174.48 1078.97 221.82 1038.25 174.58 1024.73 186.24 1067.18 235.49 1024.77 284.7 1038.3 296.36 1078.97 249.17 1119.73 296.45 1133.25 284.79 1090.76 235.49 1133.3 186.14 1119.77 174.48 1119.77 174.48"/>
      <polygon class="st0" points="996.32 25.35 955.49 72.72 914.78 25.49 901.25 37.15 943.7 86.4 901.32 135.57 914.85 147.22 955.49 100.07 996.25 147.36 1009.78 135.7 967.28 86.4 1009.85 37.01 996.32 25.35 996.32 25.35"/>
      <polygon class="st0" points="1732.28 310.5 1691.47 357.85 1650.72 310.57 1637.2 322.23 1679.68 371.52 1637.28 420.72 1650.8 432.37 1691.47 385.2 1732.2 432.45 1745.72 420.79 1703.26 371.52 1745.8 322.16 1732.28 310.5 1732.28 310.5"/>
      <polygon class="st0" points="1600.44 459.62 1559.64 506.96 1518.91 459.71 1505.39 471.37 1547.85 520.63 1505.44 569.84 1518.96 581.49 1559.64 534.31 1600.39 581.58 1613.91 569.93 1571.42 520.63 1613.97 471.28 1600.44 459.62 1600.44 459.62"/>
      <polygon class="st0" points="1470.18 595.6 1429.38 642.94 1388.68 595.73 1375.16 607.39 1417.59 656.62 1375.18 705.81 1388.71 717.47 1429.38 670.29 1470.16 717.6 1483.68 705.95 1441.16 656.62 1483.71 607.26 1470.18 595.6 1470.18 595.6"/>
      <polygon class="st0" points="1354.17 733.24 1313.4 780.55 1272.66 733.29 1259.14 744.95 1301.61 794.22 1259.17 843.46 1272.7 855.11 1313.4 807.9 1354.14 855.16 1367.66 843.5 1325.18 794.22 1367.7 744.9 1354.17 733.24 1354.17 733.24"/>
      <polygon class="st0" points="1119.81 459.64 1078.98 507.01 1038.26 459.76 1024.73 471.42 1067.19 520.68 1024.81 569.85 1038.34 581.51 1078.98 534.36 1119.74 581.64 1133.26 569.98 1090.77 520.68 1133.34 471.29 1119.81 459.64 1119.81 459.64"/>
      <polygon class="st0" points="996.36 310.5 955.56 357.84 914.84 310.61 901.32 322.27 943.77 371.52 901.36 420.72 914.89 432.37 955.56 385.19 996.32 432.48 1009.84 420.83 967.34 371.52 1009.89 322.16 996.36 310.5 996.36 310.5"/>
      <polygon class="st0" points="613.94 18.17 573.11 65.54 532.44 18.36 518.92 30.02 561.32 79.21 518.94 128.38 532.46 140.04 573.11 92.89 613.92 140.23 627.44 128.58 584.89 79.21 627.46 29.83 613.94 18.17 613.94 18.17"/>
      <polygon class="st0" points="497.97 155.85 457.14 203.22 416.42 155.98 402.9 167.64 445.36 216.89 402.97 266.07 416.5 277.73 457.14 230.57 497.9 277.85 511.42 266.19 468.93 216.89 511.5 167.51 497.97 155.85 497.97 155.85"/>
      <polygon class="st0" points="380.75 18.21 339.92 65.58 299.22 18.36 285.7 30.02 328.13 79.25 285.75 128.42 299.28 140.08 339.92 92.93 380.7 140.23 394.22 128.58 351.71 79.25 394.28 29.87 380.75 18.21 380.75 18.21"/>
      <polygon class="st0" points="863.17 18.26 822.41 65.55 781.71 18.33 768.18 29.99 810.62 79.22 768.17 128.47 781.69 140.13 822.41 92.9 863.18 140.21 876.71 128.55 834.19 79.22 876.69 29.92 863.17 18.26 863.17 18.26"/>
      <polygon class="st0" points="731.37 167.33 690.57 214.66 649.9 167.47 636.37 179.13 678.79 228.34 636.37 277.55 649.9 289.21 690.57 242.01 731.37 289.35 744.9 277.69 702.36 228.34 744.9 178.99 731.37 167.33 731.37 167.33"/>
      <polygon class="st0" points="601.18 303.37 560.37 350.71 519.67 303.49 506.15 315.15 548.58 364.38 506.18 413.58 519.7 425.24 560.37 378.06 601.15 425.37 614.67 413.71 572.16 364.38 614.7 315.03 601.18 303.37 601.18 303.37"/>
      <polygon class="st0" points="485.16 440.95 444.34 488.31 403.65 441.11 390.13 452.77 432.55 501.99 390.16 551.17 403.69 562.82 444.34 515.66 485.13 562.98 498.65 551.33 456.13 501.99 498.69 452.61 485.16 440.95 485.16 440.95"/>
      <polygon class="st0" points="367.99 303.35 327.16 350.72 286.45 303.49 272.93 315.15 315.37 364.4 272.99 413.56 286.52 425.22 327.16 378.07 367.93 425.37 381.45 413.71 338.95 364.4 381.52 315 367.99 303.35 367.99 303.35"/>
      <polygon class="st0" points="250.74 167.35 209.92 214.71 169.25 167.53 155.72 179.18 198.13 228.38 155.74 277.56 169.27 289.22 209.92 242.06 250.72 289.4 264.25 277.74 221.71 228.38 264.27 179 250.74 167.35 250.74 167.35"/>
      <polygon class="st0" points="127.29 18.21 86.49 65.55 45.83 18.37 32.31 30.03 74.71 79.22 32.29 128.43 45.82 140.08 86.49 92.9 127.31 140.24 140.83 128.59 98.28 79.22 140.82 29.87 127.29 18.21 127.29 18.21"/>
      <polygon class="st0" points="731.41 452.48 690.61 499.82 649.86 452.55 636.34 464.21 678.82 513.49 636.41 562.7 649.93 574.36 690.61 527.17 731.34 574.42 744.87 562.76 702.4 513.49 744.94 464.14 731.41 452.48 731.41 452.48"/>
      <polygon class="st0" points="601.11 588.42 560.31 635.75 519.64 588.57 506.11 600.23 548.52 649.43 506.11 698.63 519.63 710.29 560.31 663.1 601.11 710.44 614.64 698.78 572.1 649.43 614.63 600.08 601.11 588.42 601.11 588.42"/>
      <polygon class="st0" points="367.92 588.46 327.15 635.76 286.48 588.57 272.95 600.23 315.37 649.43 272.92 698.67 286.45 710.33 327.15 663.11 367.95 710.44 381.48 698.78 338.94 649.43 381.45 600.11 367.92 588.46 367.92 588.46"/>
      <polygon class="st0" points="127.33 303.36 86.53 350.7 45.84 303.49 32.31 315.15 74.74 364.38 32.33 413.58 45.86 425.24 86.53 378.05 127.31 425.37 140.84 413.71 98.32 364.38 140.86 315.02 127.33 303.36 127.33 303.36"/>
    </g>
  </g>
</svg>