<?xml version="1.0" encoding="UTF-8"?>
<svg id="Layer_1" xmlns="http://www.w3.org/2000/svg" version="1.1" xmlns:xlink="http://www.w3.org/1999/xlink" viewBox="0 0 1349.58 902.02">
  <!-- Generator: Adobe Illustrator 29.8.2, SVG Export Plug-In . SVG Version: 2.1.1 Build 3)  -->
  <defs>
    <style>
      .st0 {
        fill-rule: evenodd;
      }

      .st0, .st1, .st2 {
        fill: #e83150;
      }

      .st0, .st2 {
        isolation: isolate;
      }

      .st3 {
        opacity: .11;
      }

      .st4 {
        display: none;
      }

      .st5 {
        opacity: .1;
      }

      .st6 {
        fill: url(#linear-gradient);
      }
    </style>
    <linearGradient id="linear-gradient" x1="879.96" y1="-842.77" x2="273.32" y2="867.84" gradientTransform="translate(0 1080) scale(1 -1)" gradientUnits="userSpaceOnUse">
      <stop offset="0" stop-color="#e83150"/>
      <stop offset=".26" stop-color="#941f33"/>
      <stop offset=".5" stop-color="#51111b"/>
      <stop offset=".66" stop-color="#27080d"/>
      <stop offset=".75" stop-color="#180508"/>
      <stop offset=".85" stop-color="#080102"/>
      <stop offset=".93" stop-color="#000"/>
    </linearGradient>
  </defs>
  <g id="Layer_11" data-name="Layer_1" class="st4">
    <g>
      <rect class="st6" x="-569.92" y=".5" width="1919" height="1079"/>
      <path d="M1348.58,1v1078H-569.42V1h1918M1349.58,0H-570.42v1080h1920V0h0Z"/>
    </g>
  </g>
  <g id="Layer_2" class="st4">
    <g class="st3">
      <path class="st1" d="M1276.05,10c35.03,0,63.53,28.5,63.53,63.53s-28.5,63.53-63.53,63.53-63.53-28.5-63.53-63.53,28.5-63.53,63.53-63.53M1276.05,0c-40.61,0-73.53,32.92-73.53,73.53s32.92,73.53,73.53,73.53,73.53-32.92,73.53-73.53S1316.66,0,1276.05,0h0Z"/>
    </g>
    <g class="st3">
      <path class="st1" d="M1128.99,10c35.03,0,63.53,28.5,63.53,63.53s-28.5,63.53-63.53,63.53-63.53-28.5-63.53-63.53,28.5-63.53,63.53-63.53M1128.99,0c-40.61,0-73.53,32.92-73.53,73.53s32.92,73.53,73.53,73.53,73.53-32.92,73.53-73.53S1169.6,0,1128.99,0h0Z"/>
    </g>
    <g class="st3">
      <path class="st1" d="M981.93,10c35.03,0,63.53,28.5,63.53,63.53s-28.5,63.53-63.53,63.53-63.53-28.5-63.53-63.53,28.5-63.53,63.53-63.53M981.93,0c-40.61,0-73.53,32.92-73.53,73.53s32.92,73.53,73.53,73.53,73.53-32.92,73.53-73.53S1022.54,0,981.93,0h0Z"/>
    </g>
    <g class="st3">
      <path class="st1" d="M834.87,10c35.03,0,63.53,28.5,63.53,63.53s-28.5,63.53-63.53,63.53-63.53-28.5-63.53-63.53,28.5-63.53,63.53-63.53M834.87,0c-40.61,0-73.53,32.92-73.53,73.53s32.92,73.53,73.53,73.53,73.53-32.92,73.53-73.53S875.48,0,834.87,0h0Z"/>
    </g>
    <g class="st3">
      <path class="st1" d="M687.82,10c35.03,0,63.53,28.5,63.53,63.53s-28.5,63.53-63.53,63.53-63.53-28.5-63.53-63.53,28.5-63.53,63.53-63.53M687.82,0c-40.61,0-73.53,32.92-73.53,73.53s32.92,73.53,73.53,73.53,73.53-32.92,73.53-73.53S728.42,0,687.82,0h0Z"/>
    </g>
    <g class="st3">
      <path class="st1" d="M540.76,10c35.03,0,63.53,28.5,63.53,63.53s-28.5,63.53-63.53,63.53-63.53-28.5-63.53-63.53,28.5-63.53,63.53-63.53M540.76,0c-40.61,0-73.53,32.92-73.53,73.53s32.92,73.53,73.53,73.53,73.53-32.92,73.53-73.53S581.37,0,540.76,0h0Z"/>
    </g>
    <g class="st3">
      <path class="st1" d="M393.7,10c35.03,0,63.53,28.5,63.53,63.53s-28.5,63.53-63.53,63.53-63.53-28.5-63.53-63.53,28.5-63.53,63.53-63.53M393.7,0c-40.61,0-73.53,32.92-73.53,73.53s32.92,73.53,73.53,73.53,73.53-32.92,73.53-73.53S434.31,0,393.7,0h0Z"/>
    </g>
    <g class="st3">
      <path class="st1" d="M246.64,10c35.03,0,63.53,28.5,63.53,63.53s-28.5,63.53-63.53,63.53-63.53-28.5-63.53-63.53,28.5-63.53,63.53-63.53M246.64,0c-40.61,0-73.53,32.92-73.53,73.53s32.92,73.53,73.53,73.53,73.53-32.92,73.53-73.53S287.25,0,246.64,0h0Z"/>
    </g>
    <g class="st3">
      <path class="st1" d="M99.58,10c35.03,0,63.53,28.5,63.53,63.53s-28.5,63.53-63.53,63.53-63.53-28.5-63.53-63.53S64.55,10,99.58,10M99.58,0C58.97,0,26.05,32.92,26.05,73.53s32.92,73.53,73.53,73.53,73.53-32.92,73.53-73.53S140.19,0,99.58,0h0Z"/>
    </g>
    <g class="st3">
      <path class="st1" d="M-47.48,10c35.03,0,63.53,28.5,63.53,63.53s-28.5,63.53-63.53,63.53-63.53-28.5-63.53-63.53S-82.51,10-47.48,10M-47.48,0c-40.61,0-73.53,32.92-73.53,73.53s32.92,73.53,73.53,73.53S26.05,114.14,26.05,73.53-6.87,0-47.48,0h0Z"/>
    </g>
    <g class="st3">
      <path class="st1" d="M-194.54,10c35.03,0,63.53,28.5,63.53,63.53s-28.5,63.53-63.53,63.53-63.53-28.5-63.53-63.53,28.5-63.53,63.53-63.53M-194.54,0c-40.61,0-73.53,32.92-73.53,73.53s32.92,73.53,73.53,73.53,73.53-32.92,73.53-73.53S-153.93,0-194.54,0h0Z"/>
    </g>
    <g class="st3">
      <path class="st1" d="M-341.6,10c35.03,0,63.53,28.5,63.53,63.53s-28.5,63.53-63.53,63.53-63.53-28.5-63.53-63.53,28.5-63.53,63.53-63.53M-341.6,0c-40.61,0-73.53,32.92-73.53,73.53s32.92,73.53,73.53,73.53,73.53-32.92,73.53-73.53S-300.99,0-341.6,0h0Z"/>
    </g>
    <g class="st3">
      <path class="st1" d="M1276.05,157.06c35.03,0,63.53,28.5,63.53,63.53s-28.5,63.53-63.53,63.53-63.53-28.5-63.53-63.53,28.5-63.53,63.53-63.53M1276.05,147.06c-40.61,0-73.53,32.92-73.53,73.53s32.92,73.53,73.53,73.53,73.53-32.92,73.53-73.53-32.92-73.53-73.53-73.53h0Z"/>
    </g>
    <g class="st3">
      <path class="st1" d="M-341.6,157.06c35.03,0,63.53,28.5,63.53,63.53s-28.5,63.53-63.53,63.53-63.53-28.5-63.53-63.53,28.5-63.53,63.53-63.53M-341.6,147.06c-40.61,0-73.53,32.92-73.53,73.53s32.92,73.53,73.53,73.53,73.53-32.92,73.53-73.53-32.92-73.53-73.53-73.53h0Z"/>
    </g>
    <g class="st3">
      <path class="st1" d="M1128.99,157.06c35.03,0,63.53,28.5,63.53,63.53s-28.5,63.53-63.53,63.53-63.53-28.5-63.53-63.53,28.5-63.53,63.53-63.53M1128.99,147.06c-40.61,0-73.53,32.92-73.53,73.53s32.92,73.53,73.53,73.53,73.53-32.92,73.53-73.53-32.92-73.53-73.53-73.53h0Z"/>
    </g>
    <g class="st3">
      <path class="st1" d="M981.93,157.06c35.03,0,63.53,28.5,63.53,63.53s-28.5,63.53-63.53,63.53-63.53-28.5-63.53-63.53,28.5-63.53,63.53-63.53M981.93,147.06c-40.61,0-73.53,32.92-73.53,73.53s32.92,73.53,73.53,73.53,73.53-32.92,73.53-73.53-32.92-73.53-73.53-73.53h0Z"/>
    </g>
    <g class="st3">
      <path class="st1" d="M834.87,157.06c35.03,0,63.53,28.5,63.53,63.53s-28.5,63.53-63.53,63.53-63.53-28.5-63.53-63.53,28.5-63.53,63.53-63.53M834.87,147.06c-40.61,0-73.53,32.92-73.53,73.53s32.92,73.53,73.53,73.53,73.53-32.92,73.53-73.53-32.92-73.53-73.53-73.53h0Z"/>
    </g>
    <g class="st3">
      <path class="st1" d="M687.82,157.06c35.03,0,63.53,28.5,63.53,63.53s-28.5,63.53-63.53,63.53-63.53-28.5-63.53-63.53,28.5-63.53,63.53-63.53M687.82,147.06c-40.61,0-73.53,32.92-73.53,73.53s32.92,73.53,73.53,73.53,73.53-32.92,73.53-73.53-32.92-73.53-73.53-73.53h0Z"/>
    </g>
    <g class="st3">
      <path class="st1" d="M540.76,157.06c35.03,0,63.53,28.5,63.53,63.53s-28.5,63.53-63.53,63.53-63.53-28.5-63.53-63.53,28.5-63.53,63.53-63.53M540.76,147.06c-40.61,0-73.53,32.92-73.53,73.53s32.92,73.53,73.53,73.53,73.53-32.92,73.53-73.53-32.92-73.53-73.53-73.53h0Z"/>
    </g>
    <g class="st3">
      <path class="st1" d="M393.7,157.06c35.03,0,63.53,28.5,63.53,63.53s-28.5,63.53-63.53,63.53-63.53-28.5-63.53-63.53,28.5-63.53,63.53-63.53M393.7,147.06c-40.61,0-73.53,32.92-73.53,73.53s32.92,73.53,73.53,73.53,73.53-32.92,73.53-73.53-32.92-73.53-73.53-73.53h0Z"/>
    </g>
    <g class="st3">
      <path class="st1" d="M246.64,157.06c35.03,0,63.53,28.5,63.53,63.53s-28.5,63.53-63.53,63.53-63.53-28.5-63.53-63.53,28.5-63.53,63.53-63.53M246.64,147.06c-40.61,0-73.53,32.92-73.53,73.53s32.92,73.53,73.53,73.53,73.53-32.92,73.53-73.53-32.92-73.53-73.53-73.53h0Z"/>
    </g>
    <g class="st3">
      <path class="st1" d="M99.58,157.06c35.03,0,63.53,28.5,63.53,63.53s-28.5,63.53-63.53,63.53-63.53-28.5-63.53-63.53,28.5-63.53,63.53-63.53M99.58,147.06c-40.61,0-73.53,32.92-73.53,73.53s32.92,73.53,73.53,73.53,73.53-32.92,73.53-73.53-32.92-73.53-73.53-73.53h0Z"/>
    </g>
    <g class="st3">
      <path class="st1" d="M-47.48,157.06c35.03,0,63.53,28.5,63.53,63.53s-28.5,63.53-63.53,63.53-63.53-28.5-63.53-63.53,28.5-63.53,63.53-63.53M-47.48,147.06c-40.61,0-73.53,32.92-73.53,73.53s32.92,73.53,73.53,73.53,73.53-32.92,73.53-73.53S-6.87,147.06-47.48,147.06h0Z"/>
    </g>
    <g class="st3">
      <path class="st1" d="M-194.54,157.06c35.03,0,63.53,28.5,63.53,63.53s-28.5,63.53-63.53,63.53-63.53-28.5-63.53-63.53,28.5-63.53,63.53-63.53M-194.54,147.06c-40.61,0-73.53,32.92-73.53,73.53s32.92,73.53,73.53,73.53,73.53-32.92,73.53-73.53-32.92-73.53-73.53-73.53h0Z"/>
    </g>
    <g class="st3">
      <path class="st1" d="M1276.05,304.12c35.03,0,63.53,28.5,63.53,63.53s-28.5,63.53-63.53,63.53-63.53-28.5-63.53-63.53,28.5-63.53,63.53-63.53M1276.05,294.12c-40.61,0-73.53,32.92-73.53,73.53s32.92,73.53,73.53,73.53,73.53-32.92,73.53-73.53-32.92-73.53-73.53-73.53h0Z"/>
    </g>
    <g class="st3">
      <path class="st1" d="M1128.99,304.12c35.03,0,63.53,28.5,63.53,63.53s-28.5,63.53-63.53,63.53-63.53-28.5-63.53-63.53,28.5-63.53,63.53-63.53M1128.99,294.12c-40.61,0-73.53,32.92-73.53,73.53s32.92,73.53,73.53,73.53,73.53-32.92,73.53-73.53-32.92-73.53-73.53-73.53h0Z"/>
    </g>
    <g class="st3">
      <path class="st1" d="M981.93,304.12c35.03,0,63.53,28.5,63.53,63.53s-28.5,63.53-63.53,63.53-63.53-28.5-63.53-63.53,28.5-63.53,63.53-63.53M981.93,294.12c-40.61,0-73.53,32.92-73.53,73.53s32.92,73.53,73.53,73.53,73.53-32.92,73.53-73.53-32.92-73.53-73.53-73.53h0Z"/>
    </g>
    <g class="st3">
      <path class="st1" d="M834.87,304.12c35.03,0,63.53,28.5,63.53,63.53s-28.5,63.53-63.53,63.53-63.53-28.5-63.53-63.53,28.5-63.53,63.53-63.53M834.87,294.12c-40.61,0-73.53,32.92-73.53,73.53s32.92,73.53,73.53,73.53,73.53-32.92,73.53-73.53-32.92-73.53-73.53-73.53h0Z"/>
    </g>
    <g class="st3">
      <path class="st1" d="M687.82,304.12c35.03,0,63.53,28.5,63.53,63.53s-28.5,63.53-63.53,63.53-63.53-28.5-63.53-63.53,28.5-63.53,63.53-63.53M687.82,294.12c-40.61,0-73.53,32.92-73.53,73.53s32.92,73.53,73.53,73.53,73.53-32.92,73.53-73.53-32.92-73.53-73.53-73.53h0Z"/>
    </g>
    <g class="st3">
      <path class="st1" d="M540.76,304.12c35.03,0,63.53,28.5,63.53,63.53s-28.5,63.53-63.53,63.53-63.53-28.5-63.53-63.53,28.5-63.53,63.53-63.53M540.76,294.12c-40.61,0-73.53,32.92-73.53,73.53s32.92,73.53,73.53,73.53,73.53-32.92,73.53-73.53-32.92-73.53-73.53-73.53h0Z"/>
    </g>
    <g class="st3">
      <path class="st1" d="M393.7,304.12c35.03,0,63.53,28.5,63.53,63.53s-28.5,63.53-63.53,63.53-63.53-28.5-63.53-63.53,28.5-63.53,63.53-63.53M393.7,294.12c-40.61,0-73.53,32.92-73.53,73.53s32.92,73.53,73.53,73.53,73.53-32.92,73.53-73.53-32.92-73.53-73.53-73.53h0Z"/>
    </g>
    <g class="st3">
      <path class="st1" d="M246.64,304.12c35.03,0,63.53,28.5,63.53,63.53s-28.5,63.53-63.53,63.53-63.53-28.5-63.53-63.53,28.5-63.53,63.53-63.53M246.64,294.12c-40.61,0-73.53,32.92-73.53,73.53s32.92,73.53,73.53,73.53,73.53-32.92,73.53-73.53-32.92-73.53-73.53-73.53h0Z"/>
    </g>
    <g class="st3">
      <path class="st1" d="M99.58,304.12c35.03,0,63.53,28.5,63.53,63.53s-28.5,63.53-63.53,63.53-63.53-28.5-63.53-63.53,28.5-63.53,63.53-63.53M99.58,294.12c-40.61,0-73.53,32.92-73.53,73.53s32.92,73.53,73.53,73.53,73.53-32.92,73.53-73.53-32.92-73.53-73.53-73.53h0Z"/>
    </g>
    <g class="st3">
      <path class="st1" d="M-47.48,304.12c35.03,0,63.53,28.5,63.53,63.53s-28.5,63.53-63.53,63.53-63.53-28.5-63.53-63.53,28.5-63.53,63.53-63.53M-47.48,294.12c-40.61,0-73.53,32.92-73.53,73.53s32.92,73.53,73.53,73.53,73.53-32.92,73.53-73.53-32.92-73.53-73.53-73.53h0Z"/>
    </g>
    <g class="st3">
      <path class="st1" d="M-194.54,304.12c35.03,0,63.53,28.5,63.53,63.53s-28.5,63.53-63.53,63.53-63.53-28.5-63.53-63.53,28.5-63.53,63.53-63.53M-194.54,294.12c-40.61,0-73.53,32.92-73.53,73.53s32.92,73.53,73.53,73.53,73.53-32.92,73.53-73.53-32.92-73.53-73.53-73.53h0Z"/>
    </g>
    <g class="st3">
      <path class="st1" d="M1276.05,451.18c35.03,0,63.53,28.5,63.53,63.53s-28.5,63.53-63.53,63.53-63.53-28.5-63.53-63.53,28.5-63.53,63.53-63.53M1276.05,441.18c-40.61,0-73.53,32.92-73.53,73.53s32.92,73.53,73.53,73.53,73.53-32.92,73.53-73.53-32.92-73.53-73.53-73.53h0Z"/>
    </g>
    <g class="st3">
      <path class="st1" d="M981.93,451.18c35.03,0,63.53,28.5,63.53,63.53s-28.5,63.53-63.53,63.53-63.53-28.5-63.53-63.53,28.5-63.53,63.53-63.53M981.93,441.18c-40.61,0-73.53,32.92-73.53,73.53s32.92,73.53,73.53,73.53,73.53-32.92,73.53-73.53-32.92-73.53-73.53-73.53h0Z"/>
    </g>
    <g class="st3">
      <path class="st1" d="M834.87,451.18c35.03,0,63.53,28.5,63.53,63.53s-28.5,63.53-63.53,63.53-63.53-28.5-63.53-63.53,28.5-63.53,63.53-63.53M834.87,441.18c-40.61,0-73.53,32.92-73.53,73.53s32.92,73.53,73.53,73.53,73.53-32.92,73.53-73.53-32.92-73.53-73.53-73.53h0Z"/>
    </g>
    <g class="st3">
      <path class="st1" d="M687.82,451.18c35.03,0,63.53,28.5,63.53,63.53s-28.5,63.53-63.53,63.53-63.53-28.5-63.53-63.53,28.5-63.53,63.53-63.53M687.82,441.18c-40.61,0-73.53,32.92-73.53,73.53s32.92,73.53,73.53,73.53,73.53-32.92,73.53-73.53-32.92-73.53-73.53-73.53h0Z"/>
    </g>
    <g class="st3">
      <path class="st1" d="M540.76,451.18c35.03,0,63.53,28.5,63.53,63.53s-28.5,63.53-63.53,63.53-63.53-28.5-63.53-63.53,28.5-63.53,63.53-63.53M540.76,441.18c-40.61,0-73.53,32.92-73.53,73.53s32.92,73.53,73.53,73.53,73.53-32.92,73.53-73.53-32.92-73.53-73.53-73.53h0Z"/>
    </g>
    <g class="st3">
      <path class="st1" d="M246.64,451.18c35.03,0,63.53,28.5,63.53,63.53s-28.5,63.53-63.53,63.53-63.53-28.5-63.53-63.53,28.5-63.53,63.53-63.53M246.64,441.18c-40.61,0-73.53,32.92-73.53,73.53s32.92,73.53,73.53,73.53,73.53-32.92,73.53-73.53-32.92-73.53-73.53-73.53h0Z"/>
    </g>
    <g class="st3">
      <path class="st1" d="M99.58,451.18c35.03,0,63.53,28.5,63.53,63.53s-28.5,63.53-63.53,63.53-63.53-28.5-63.53-63.53,28.5-63.53,63.53-63.53M99.58,441.18c-40.61,0-73.53,32.92-73.53,73.53s32.92,73.53,73.53,73.53,73.53-32.92,73.53-73.53-32.92-73.53-73.53-73.53h0Z"/>
    </g>
    <g class="st3">
      <path class="st1" d="M-47.48,451.18c35.03,0,63.53,28.5,63.53,63.53s-28.5,63.53-63.53,63.53-63.53-28.5-63.53-63.53,28.5-63.53,63.53-63.53M-47.48,441.18c-40.61,0-73.53,32.92-73.53,73.53s32.92,73.53,73.53,73.53,73.53-32.92,73.53-73.53-32.92-73.53-73.53-73.53h0Z"/>
    </g>
    <g class="st3">
      <path class="st1" d="M-194.54,451.18c35.03,0,63.53,28.5,63.53,63.53s-28.5,63.53-63.53,63.53-63.53-28.5-63.53-63.53,28.5-63.53,63.53-63.53M-194.54,441.18c-40.61,0-73.53,32.92-73.53,73.53s32.92,73.53,73.53,73.53,73.53-32.92,73.53-73.53-32.92-73.53-73.53-73.53h0Z"/>
    </g>
    <g class="st3">
      <path class="st1" d="M981.93,598.24c35.03,0,63.53,28.5,63.53,63.53s-28.5,63.53-63.53,63.53-63.53-28.5-63.53-63.53,28.5-63.53,63.53-63.53M981.93,588.24c-40.61,0-73.53,32.92-73.53,73.53s32.92,73.53,73.53,73.53,73.53-32.92,73.53-73.53-32.92-73.53-73.53-73.53h0Z"/>
    </g>
    <g class="st3">
      <path class="st1" d="M834.87,598.24c35.03,0,63.53,28.5,63.53,63.53s-28.5,63.53-63.53,63.53-63.53-28.5-63.53-63.53,28.5-63.53,63.53-63.53M834.87,588.24c-40.61,0-73.53,32.92-73.53,73.53s32.92,73.53,73.53,73.53,73.53-32.92,73.53-73.53-32.92-73.53-73.53-73.53h0Z"/>
    </g>
    <g class="st3">
      <path class="st1" d="M540.76,598.24c35.03,0,63.53,28.5,63.53,63.53s-28.5,63.53-63.53,63.53-63.53-28.5-63.53-63.53,28.5-63.53,63.53-63.53M540.76,588.24c-40.61,0-73.53,32.92-73.53,73.53s32.92,73.53,73.53,73.53,73.53-32.92,73.53-73.53-32.92-73.53-73.53-73.53h0Z"/>
    </g>
    <g class="st3">
      <path class="st1" d="M246.64,598.24c35.03,0,63.53,28.5,63.53,63.53s-28.5,63.53-63.53,63.53-63.53-28.5-63.53-63.53,28.5-63.53,63.53-63.53M246.64,588.24c-40.61,0-73.53,32.92-73.53,73.53s32.92,73.53,73.53,73.53,73.53-32.92,73.53-73.53-32.92-73.53-73.53-73.53h0Z"/>
    </g>
    <g class="st3">
      <path class="st1" d="M99.58,598.24c35.03,0,63.53,28.5,63.53,63.53s-28.5,63.53-63.53,63.53-63.53-28.5-63.53-63.53,28.5-63.53,63.53-63.53M99.58,588.24c-40.61,0-73.53,32.92-73.53,73.53s32.92,73.53,73.53,73.53,73.53-32.92,73.53-73.53-32.92-73.53-73.53-73.53h0Z"/>
    </g>
    <g class="st3">
      <path class="st1" d="M-194.54,598.24c35.03,0,63.53,28.5,63.53,63.53s-28.5,63.53-63.53,63.53-63.53-28.5-63.53-63.53,28.5-63.53,63.53-63.53M-194.54,588.24c-40.61,0-73.53,32.92-73.53,73.53s32.92,73.53,73.53,73.53,73.53-32.92,73.53-73.53-32.92-73.53-73.53-73.53h0Z"/>
    </g>
    <g class="st3">
      <path class="st1" d="M834.87,745.29c35.03,0,63.53,28.5,63.53,63.53s-28.5,63.53-63.53,63.53-63.53-28.5-63.53-63.53,28.5-63.53,63.53-63.53M834.87,735.29c-40.61,0-73.53,32.92-73.53,73.53s32.92,73.53,73.53,73.53,73.53-32.92,73.53-73.53-32.92-73.53-73.53-73.53h0Z"/>
    </g>
    <g class="st3">
      <path class="st1" d="M99.58,745.29c35.03,0,63.53,28.5,63.53,63.53s-28.5,63.53-63.53,63.53-63.53-28.5-63.53-63.53,28.5-63.53,63.53-63.53M99.58,735.29c-40.61,0-73.53,32.92-73.53,73.53s32.92,73.53,73.53,73.53,73.53-32.92,73.53-73.53-32.92-73.53-73.53-73.53h0Z"/>
    </g>
  </g>
  <g id="Layer_3" class="st4">
    <g class="st5">
      <polygon class="st1" points="1067.84 25.31 1027 72.68 986.26 25.42 972.73 37.07 1015.21 86.36 972.84 135.52 986.36 147.18 1027 100.03 1067.73 147.29 1081.26 135.63 1038.79 86.36 1081.36 36.97 1067.84 25.31 1067.84 25.31"/>
      <polygon class="st1" points="951.87 162.99 911.07 210.33 870.34 163.08 856.81 174.74 899.28 224.01 856.87 273.21 870.4 284.87 911.07 237.68 951.81 284.95 965.34 273.3 922.85 224.01 965.4 174.65 951.87 162.99 951.87 162.99"/>
      <polygon class="st1" points="834.65 25.35 793.82 72.72 753.1 25.48 739.57 37.14 782.03 86.4 739.65 135.56 753.18 147.22 793.82 100.07 834.57 147.35 848.1 135.69 805.61 86.4 848.18 37 834.65 25.35 834.65 25.35"/>
      <polygon class="st1" points="1317.11 25.35 1276.3 72.69 1235.59 25.45 1222.06 37.11 1264.52 86.37 1222.11 135.57 1235.63 147.22 1276.3 100.04 1317.06 147.32 1330.59 135.67 1288.09 86.37 1330.64 37.01 1317.11 25.35 1317.11 25.35"/>
      <polygon class="st1" points="1185.27 174.47 1144.47 221.8 1103.77 174.59 1090.25 186.25 1132.68 235.48 1090.27 284.69 1103.8 296.34 1144.47 249.15 1185.25 296.46 1198.78 284.8 1156.26 235.48 1198.8 186.13 1185.27 174.47 1185.27 174.47"/>
      <polygon class="st1" points="1055.08 310.45 1014.27 357.79 973.55 310.55 960.02 322.21 1002.48 371.46 960.08 420.66 973.6 432.32 1014.27 385.14 1055.02 432.42 1068.55 420.76 1026.06 371.46 1068.6 322.1 1055.08 310.45 1055.08 310.45"/>
      <polygon class="st1" points="939.11 448.13 898.3 495.47 857.53 448.17 844 459.82 886.52 509.15 844.11 558.34 857.64 570 898.3 522.82 939 570.04 952.53 558.38 910.09 509.15 952.64 459.79 939.11 448.13 939.11 448.13"/>
      <polygon class="st1" points="821.89 310.48 781.08 357.83 740.33 310.55 726.8 322.21 769.3 371.51 726.89 420.7 740.42 432.36 781.08 385.18 821.8 432.42 835.33 420.76 792.87 371.51 835.42 322.14 821.89 310.48 821.89 310.48"/>
      <polygon class="st1" points="704.64 174.48 663.84 221.82 623.12 174.58 609.6 186.24 652.05 235.49 609.64 284.7 623.17 296.36 663.84 249.17 704.6 296.45 718.12 284.79 675.63 235.49 718.17 186.14 704.64 174.48 704.64 174.48"/>
      <polygon class="st1" points="581.19 25.35 540.36 72.72 499.65 25.49 486.12 37.15 528.57 86.4 486.19 135.57 499.72 147.22 540.36 100.07 581.12 147.36 594.65 135.7 552.15 86.4 594.72 37.01 581.19 25.35 581.19 25.35"/>
      <polygon class="st1" points="1317.15 310.5 1276.34 357.85 1235.59 310.57 1222.07 322.23 1264.55 371.52 1222.15 420.72 1235.67 432.37 1276.34 385.2 1317.07 432.45 1330.59 420.79 1288.13 371.52 1330.67 322.16 1317.15 310.5 1317.15 310.5"/>
      <polygon class="st1" points="1185.31 459.62 1144.51 506.96 1103.78 459.71 1090.26 471.37 1132.72 520.63 1090.31 569.84 1103.83 581.49 1144.51 534.31 1185.26 581.58 1198.78 569.93 1156.29 520.63 1198.84 471.28 1185.31 459.62 1185.31 459.62"/>
      <polygon class="st1" points="1055.05 595.6 1014.25 642.94 973.55 595.73 960.03 607.39 1002.46 656.62 960.05 705.81 973.58 717.47 1014.25 670.29 1055.03 717.6 1068.55 705.95 1026.03 656.62 1068.58 607.26 1055.05 595.6 1055.05 595.6"/>
      <polygon class="st1" points="939.04 733.24 898.27 780.55 857.53 733.29 844.01 744.95 886.48 794.22 844.04 843.46 857.57 855.11 898.27 807.9 939.01 855.16 952.53 843.5 910.05 794.22 952.57 744.9 939.04 733.24 939.04 733.24"/>
      <polygon class="st1" points="704.68 459.64 663.85 507.01 623.13 459.76 609.6 471.42 652.06 520.68 609.68 569.85 623.21 581.51 663.85 534.36 704.61 581.64 718.13 569.98 675.64 520.68 718.21 471.29 704.68 459.64 704.68 459.64"/>
      <polygon class="st1" points="581.23 310.5 540.43 357.84 499.71 310.61 486.19 322.27 528.64 371.52 486.23 420.72 499.76 432.37 540.43 385.19 581.19 432.48 594.71 420.83 552.21 371.52 594.76 322.16 581.23 310.5 581.23 310.5"/>
      <polygon class="st1" points="198.81 18.17 157.98 65.54 117.31 18.36 103.79 30.02 146.19 79.21 103.81 128.38 117.33 140.04 157.98 92.89 198.79 140.23 212.31 128.58 169.76 79.21 212.33 29.83 198.81 18.17 198.81 18.17"/>
      <polygon class="st1" points="82.84 155.85 42.01 203.22 1.29 155.98 -12.23 167.64 30.23 216.89 -12.16 266.07 1.37 277.73 42.01 230.57 82.77 277.85 96.29 266.19 53.8 216.89 96.37 167.51 82.84 155.85 82.84 155.85"/>
      <polygon class="st1" points="-34.38 18.21 -75.21 65.58 -115.91 18.36 -129.43 30.02 -87 79.25 -129.38 128.42 -115.85 140.08 -75.21 92.93 -34.43 140.23 -20.91 128.58 -63.42 79.25 -20.85 29.87 -34.38 18.21 -34.38 18.21"/>
      <polygon class="st1" points="448.04 18.26 407.28 65.55 366.58 18.33 353.05 29.99 395.49 79.22 353.04 128.47 366.56 140.13 407.28 92.9 448.05 140.21 461.58 128.55 419.06 79.22 461.56 29.92 448.04 18.26 448.04 18.26"/>
      <polygon class="st1" points="316.24 167.33 275.44 214.66 234.77 167.47 221.24 179.13 263.66 228.34 221.24 277.55 234.77 289.21 275.44 242.01 316.24 289.35 329.77 277.69 287.23 228.34 329.77 178.99 316.24 167.33 316.24 167.33"/>
      <polygon class="st1" points="186.05 303.37 145.24 350.71 104.54 303.49 91.02 315.15 133.45 364.38 91.05 413.58 104.57 425.24 145.24 378.06 186.02 425.37 199.54 413.71 157.03 364.38 199.57 315.03 186.05 303.37 186.05 303.37"/>
      <polygon class="st1" points="70.03 440.95 29.21 488.31 -11.48 441.11 -25 452.77 17.42 501.99 -24.97 551.17 -11.44 562.82 29.21 515.66 70 562.98 83.52 551.33 41 501.99 83.56 452.61 70.03 440.95 70.03 440.95"/>
      <polygon class="st1" points="-47.14 303.35 -87.97 350.72 -128.68 303.49 -142.2 315.15 -99.76 364.4 -142.14 413.56 -128.61 425.22 -87.97 378.07 -47.2 425.37 -33.68 413.71 -76.18 364.4 -33.61 315 -47.14 303.35 -47.14 303.35"/>
      <polygon class="st1" points="-164.39 167.35 -205.21 214.71 -245.88 167.53 -259.41 179.18 -217 228.38 -259.39 277.56 -245.86 289.22 -205.21 242.06 -164.41 289.4 -150.88 277.74 -193.42 228.38 -150.86 179 -164.39 167.35 -164.39 167.35"/>
      <polygon class="st1" points="-287.84 18.21 -328.64 65.55 -369.3 18.37 -382.82 30.03 -340.42 79.22 -382.84 128.43 -369.31 140.08 -328.64 92.9 -287.82 140.24 -274.3 128.59 -316.85 79.22 -274.31 29.87 -287.84 18.21 -287.84 18.21"/>
      <polygon class="st1" points="316.28 452.48 275.48 499.82 234.73 452.55 221.21 464.21 263.69 513.49 221.28 562.7 234.8 574.36 275.48 527.17 316.21 574.42 329.74 562.76 287.27 513.49 329.81 464.14 316.28 452.48 316.28 452.48"/>
      <polygon class="st1" points="185.98 588.42 145.18 635.75 104.51 588.57 90.98 600.23 133.39 649.43 90.98 698.63 104.5 710.29 145.18 663.1 185.98 710.44 199.51 698.78 156.97 649.43 199.5 600.08 185.98 588.42 185.98 588.42"/>
      <polygon class="st1" points="-47.21 588.46 -87.98 635.76 -128.65 588.57 -142.18 600.23 -99.76 649.43 -142.21 698.67 -128.68 710.33 -87.98 663.11 -47.18 710.44 -33.65 698.78 -76.19 649.43 -33.68 600.11 -47.21 588.46 -47.21 588.46"/>
      <polygon class="st1" points="-287.8 303.36 -328.6 350.7 -369.29 303.49 -382.82 315.15 -340.39 364.38 -382.8 413.58 -369.27 425.24 -328.6 378.05 -287.82 425.37 -274.29 413.71 -316.81 364.38 -274.27 315.02 -287.8 303.36 -287.8 303.36"/>
    </g>
  </g>
  <g id="Layer_4">
    <rect class="st2" x="494.85" y="2.3" width="44.99" height="89.97"/>
    <rect class="st2" x="584.82" y="2.3" width="44.99" height="89.97"/>
    <rect class="st2" x="539.83" y="92.27" width="44.99" height="89.97"/>
    <rect class="st2" x="494.85" y="182.24" width="44.99" height="89.97"/>
    <rect class="st2" x="584.82" y="182.24" width="44.99" height="89.97"/>
    <rect class="st2" x="674.79" y="92.27" width="44.99" height="89.97"/>
    <rect class="st2" x="719.78" y="2.3" width="44.99" height="89.97"/>
    <rect class="st2" x="809.75" y="2.3" width="44.99" height="89.97"/>
    <rect class="st2" x="719.78" y="182.24" width="44.99" height="89.97"/>
    <rect class="st2" x="809.75" y="182.24" width="44.99" height="89.97"/>
    <rect class="st2" x="764.76" y="92.27" width="44.99" height="89.97"/>
    <rect class="st2" x="854.74" y="92.27" width="44.99" height="89.97"/>
    <rect class="st2" x="944.71" y="2.3" width="44.99" height="89.97"/>
    <rect class="st2" x="1034.68" y="2.3" width="44.99" height="89.97"/>
    <rect class="st2" x="989.69" y="92.27" width="44.99" height="89.97"/>
    <rect class="st2" x="944.71" y="182.24" width="44.99" height="89.97"/>
    <rect class="st2" x="1034.68" y="182.24" width="44.99" height="89.97"/>
    <rect class="st2" x="1124.65" y="92.27" width="44.99" height="89.97"/>
    <rect class="st2" x="1169.64" y="2.3" width="44.99" height="89.97"/>
    <rect class="st2" x="1259.61" y="2.3" width="44.99" height="89.97"/>
    <rect class="st2" x="1169.64" y="182.24" width="44.99" height="89.97"/>
    <rect class="st2" x="1259.61" y="182.24" width="44.99" height="89.97"/>
    <rect class="st2" x="1214.62" y="92.27" width="44.99" height="89.97"/>
    <rect class="st2" x="1304.59" y="92.27" width="44.99" height="89.97"/>
    <path class="st0" d="M494.85,362.19h44.99v89.97h-44.99v-89.97ZM584.82,362.19h44.99v89.97h-44.99v-89.97ZM629.81,272.22h44.99v89.97h-44.99v-89.97ZM539.83,272.22h44.99v89.97h-44.99v-89.97ZM539.83,452.16h44.99v89.97h-44.99v-89.97ZM449.86,272.22h44.99v89.97h-44.99v-89.97ZM494.85,542.13h44.99v89.97h-44.99v-89.97ZM584.82,542.13h44.99v89.97h-44.99v-89.97ZM674.79,452.16h44.99v89.97h-44.99v-89.97ZM764.76,272.22h44.99v89.97h-44.99v-89.97ZM719.78,362.19h44.99v89.97h-44.99v-89.97ZM809.75,362.19h44.99v89.97h-44.99v-89.97ZM719.78,542.13h44.99v89.97h-44.99v-89.97ZM809.75,542.13h44.99v89.97h-44.99v-89.97ZM764.76,452.16h44.99v89.97h-44.99v-89.97ZM854.74,452.16h44.99v89.97h-44.99v-89.97Z"/>
    <rect class="st2" x="944.71" y="362.19" width="44.99" height="89.97"/>
    <rect class="st2" x="1034.68" y="362.19" width="44.99" height="89.97"/>
    <rect class="st2" x="1079.66" y="272.22" width="44.99" height="89.97"/>
    <rect class="st2" x="989.69" y="272.22" width="44.99" height="89.97"/>
    <rect class="st2" x="989.69" y="452.16" width="44.99" height="89.97"/>
    <rect class="st2" x="899.72" y="272.22" width="44.99" height="89.97"/>
    <rect class="st2" x="1124.65" y="452.16" width="44.99" height="89.97"/>
    <rect class="st2" x="1214.62" y="272.22" width="44.99" height="89.97"/>
    <rect class="st2" x="1169.64" y="362.19" width="44.99" height="89.97"/>
    <rect class="st2" x="1259.61" y="362.19" width="44.99" height="89.97"/>
    <rect class="st2" x="1169.64" y="542.13" width="44.99" height="89.97"/>
    <rect class="st2" x="1259.61" y="542.13" width="44.99" height="89.97"/>
    <rect class="st2" x="1214.62" y="452.16" width="44.99" height="89.97"/>
    <rect class="st2" x="1304.59" y="452.16" width="44.99" height="89.97"/>
    <rect class="st2" x="44.99" y="2.3" width="44.99" height="89.97"/>
    <rect class="st2" x="134.96" y="2.3" width="44.99" height="89.97"/>
    <rect class="st2" x="89.98" y="92.27" width="44.99" height="89.97"/>
    <rect class="st2" x="44.99" y="182.24" width="44.99" height="89.97"/>
    <rect class="st2" x="134.96" y="182.24" width="44.99" height="89.97"/>
    <rect class="st2" x="224.93" y="92.27" width="44.99" height="89.97"/>
    <rect class="st2" x="269.92" y="2.3" width="44.99" height="89.97"/>
    <rect class="st2" x="359.89" y="2.3" width="44.99" height="89.97"/>
    <rect class="st2" x="269.92" y="182.24" width="44.99" height="89.97"/>
    <rect class="st2" x="359.89" y="182.24" width="44.99" height="89.97"/>
    <rect class="st2" x="314.91" y="92.27" width="44.99" height="89.97"/>
    <rect class="st2" x="404.88" y="92.27" width="44.99" height="89.97"/>
    <rect class="st2" x="44.99" y="362.19" width="44.99" height="89.97"/>
    <rect class="st2" x="134.96" y="362.19" width="44.99" height="89.97"/>
    <rect class="st2" x="179.95" y="272.22" width="44.99" height="89.97"/>
    <rect class="st2" x="89.98" y="272.22" width="44.99" height="89.97"/>
    <rect class="st2" x="89.98" y="452.16" width="44.99" height="89.97"/>
    <rect class="st2" y="272.22" width="44.99" height="89.97"/>
    <rect class="st2" x="224.93" y="452.16" width="44.99" height="89.97"/>
    <rect class="st2" x="314.91" y="272.22" width="44.99" height="89.97"/>
    <rect class="st2" x="269.92" y="362.19" width="44.99" height="89.97"/>
    <rect class="st2" x="359.89" y="362.19" width="44.99" height="89.97"/>
    <rect class="st2" x="269.92" y="542.13" width="44.99" height="89.97"/>
    <rect class="st2" x="314.91" y="632.1" width="44.99" height="89.97"/>
    <rect class="st2" x="359.89" y="542.13" width="44.99" height="89.97"/>
    <rect class="st2" x="314.91" y="452.16" width="44.99" height="89.97"/>
    <rect class="st2" x="404.88" y="452.16" width="44.99" height="89.97"/>
    <rect class="st2" x="494.85" y="722.07" width="44.99" height="89.97"/>
    <rect class="st2" x="584.82" y="722.07" width="44.99" height="89.97"/>
    <rect class="st2" x="629.81" y="632.1" width="44.99" height="89.97"/>
    <rect class="st2" x="539.83" y="632.1" width="44.99" height="89.97"/>
    <rect class="st2" x="539.83" y="812.05" width="44.99" height="89.97"/>
    <rect class="st2" x="449.86" y="632.1" width="44.99" height="89.97"/>
    <rect class="st2" x="764.76" y="632.1" width="44.99" height="89.97"/>
    <rect class="st2" x="1214.62" y="632.1" width="44.99" height="89.97"/>
    <g class="st5">
      <path class="st1" d="M728.25,1156.71c1.93,0,1.93-3,0-3s-1.93,3,0,3h0Z"/>
    </g>
  </g>
</svg>