<?xml version="1.0" encoding="UTF-8"?>
<svg id="Layer_1" xmlns="http://www.w3.org/2000/svg" version="1.1" xmlns:xlink="http://www.w3.org/1999/xlink" viewBox="0 0 1373.67 734.41">
  <!-- Generator: Adobe Illustrator 29.8.2, SVG Export Plug-In . SVG Version: 2.1.1 Build 3)  -->
  <defs>
    <style>
      .st0, .st1, .st2, .st3, .st4 {
        fill: #e83150;
      }

      .st0, .st4 {
        fill-rule: evenodd;
      }

      .st1, .st3, .st4 {
        isolation: isolate;
      }

      .st1, .st4, .st5 {
        opacity: .1;
      }

      .st6 {
        opacity: .11;
      }

      .st7 {
        display: none;
      }

      .st8 {
        fill: url(#linear-gradient);
      }
    </style>
    <linearGradient id="linear-gradient" x1="904.05" y1="-842.77" x2="297.41" y2="867.84" gradientTransform="translate(0 1080) scale(1 -1)" gradientUnits="userSpaceOnUse">
      <stop offset="0" stop-color="#e83150"/>
      <stop offset=".26" stop-color="#941f33"/>
      <stop offset=".5" stop-color="#51111b"/>
      <stop offset=".66" stop-color="#27080d"/>
      <stop offset=".75" stop-color="#180508"/>
      <stop offset=".85" stop-color="#080102"/>
      <stop offset=".93" stop-color="#000"/>
    </linearGradient>
  </defs>
  <g id="Layer_11" data-name="Layer_1" class="st7">
    <g>
      <rect class="st8" x="-545.83" y=".5" width="1919" height="1079"/>
      <path d="M1372.67,1v1078H-545.33V1h1918M1373.67,0H-546.33v1080h1920V0h0Z"/>
    </g>
  </g>
  <g id="Layer_2" class="st7">
    <g class="st6">
      <path class="st2" d="M1300.14,10c35.03,0,63.53,28.5,63.53,63.53s-28.5,63.53-63.53,63.53-63.53-28.5-63.53-63.53,28.5-63.53,63.53-63.53M1300.14,0c-40.61,0-73.53,32.92-73.53,73.53s32.92,73.53,73.53,73.53,73.53-32.92,73.53-73.53S1340.75,0,1300.14,0h0Z"/>
    </g>
    <g class="st6">
      <path class="st2" d="M1153.08,10c35.03,0,63.53,28.5,63.53,63.53s-28.5,63.53-63.53,63.53-63.53-28.5-63.53-63.53,28.5-63.53,63.53-63.53M1153.08,0c-40.61,0-73.53,32.92-73.53,73.53s32.92,73.53,73.53,73.53,73.53-32.92,73.53-73.53S1193.69,0,1153.08,0h0Z"/>
    </g>
    <g class="st6">
      <path class="st2" d="M1006.02,10c35.03,0,63.53,28.5,63.53,63.53s-28.5,63.53-63.53,63.53-63.53-28.5-63.53-63.53,28.5-63.53,63.53-63.53M1006.02,0c-40.61,0-73.53,32.92-73.53,73.53s32.92,73.53,73.53,73.53,73.53-32.92,73.53-73.53S1046.63,0,1006.02,0h0Z"/>
    </g>
    <g class="st6">
      <path class="st2" d="M858.96,10c35.03,0,63.53,28.5,63.53,63.53s-28.5,63.53-63.53,63.53-63.53-28.5-63.53-63.53,28.5-63.53,63.53-63.53M858.96,0c-40.61,0-73.53,32.92-73.53,73.53s32.92,73.53,73.53,73.53,73.53-32.92,73.53-73.53S899.57,0,858.96,0h0Z"/>
    </g>
    <g class="st6">
      <path class="st2" d="M711.91,10c35.03,0,63.53,28.5,63.53,63.53s-28.5,63.53-63.53,63.53-63.53-28.5-63.53-63.53,28.5-63.53,63.53-63.53M711.91,0c-40.61,0-73.53,32.92-73.53,73.53s32.92,73.53,73.53,73.53,73.53-32.92,73.53-73.53S752.51,0,711.91,0h0Z"/>
    </g>
    <g class="st6">
      <path class="st2" d="M564.85,10c35.03,0,63.53,28.5,63.53,63.53s-28.5,63.53-63.53,63.53-63.53-28.5-63.53-63.53,28.5-63.53,63.53-63.53M564.85,0c-40.61,0-73.53,32.92-73.53,73.53s32.92,73.53,73.53,73.53,73.53-32.92,73.53-73.53S605.46,0,564.85,0h0Z"/>
    </g>
    <g class="st6">
      <path class="st2" d="M417.79,10c35.03,0,63.53,28.5,63.53,63.53s-28.5,63.53-63.53,63.53-63.53-28.5-63.53-63.53,28.5-63.53,63.53-63.53M417.79,0c-40.61,0-73.53,32.92-73.53,73.53s32.92,73.53,73.53,73.53,73.53-32.92,73.53-73.53S458.4,0,417.79,0h0Z"/>
    </g>
    <g class="st6">
      <path class="st2" d="M270.73,10c35.03,0,63.53,28.5,63.53,63.53s-28.5,63.53-63.53,63.53-63.53-28.5-63.53-63.53,28.5-63.53,63.53-63.53M270.73,0c-40.61,0-73.53,32.92-73.53,73.53s32.92,73.53,73.53,73.53,73.53-32.92,73.53-73.53S311.34,0,270.73,0h0Z"/>
    </g>
    <g class="st6">
      <path class="st2" d="M123.67,10c35.03,0,63.53,28.5,63.53,63.53s-28.5,63.53-63.53,63.53-63.53-28.5-63.53-63.53S88.64,10,123.67,10M123.67,0C83.06,0,50.14,32.92,50.14,73.53s32.92,73.53,73.53,73.53,73.53-32.92,73.53-73.53S164.28,0,123.67,0h0Z"/>
    </g>
    <g class="st6">
      <path class="st2" d="M-23.39,10c35.03,0,63.53,28.5,63.53,63.53s-28.5,63.53-63.53,63.53-63.53-28.5-63.53-63.53S-58.42,10-23.39,10M-23.39,0c-40.61,0-73.53,32.92-73.53,73.53s32.92,73.53,73.53,73.53S50.14,114.14,50.14,73.53,17.22,0-23.39,0h0Z"/>
    </g>
    <g class="st6">
      <path class="st2" d="M-170.45,10c35.03,0,63.53,28.5,63.53,63.53s-28.5,63.53-63.53,63.53-63.53-28.5-63.53-63.53,28.5-63.53,63.53-63.53M-170.45,0c-40.61,0-73.53,32.92-73.53,73.53s32.92,73.53,73.53,73.53,73.53-32.92,73.53-73.53S-129.84,0-170.45,0h0Z"/>
    </g>
    <g class="st6">
      <path class="st2" d="M-317.51,10c35.03,0,63.53,28.5,63.53,63.53s-28.5,63.53-63.53,63.53-63.53-28.5-63.53-63.53,28.5-63.53,63.53-63.53M-317.51,0c-40.61,0-73.53,32.92-73.53,73.53s32.92,73.53,73.53,73.53,73.53-32.92,73.53-73.53S-276.9,0-317.51,0h0Z"/>
    </g>
    <g class="st6">
      <path class="st2" d="M1300.14,157.06c35.03,0,63.53,28.5,63.53,63.53s-28.5,63.53-63.53,63.53-63.53-28.5-63.53-63.53,28.5-63.53,63.53-63.53M1300.14,147.06c-40.61,0-73.53,32.92-73.53,73.53s32.92,73.53,73.53,73.53,73.53-32.92,73.53-73.53-32.92-73.53-73.53-73.53h0Z"/>
    </g>
    <g class="st6">
      <path class="st2" d="M-317.51,157.06c35.03,0,63.53,28.5,63.53,63.53s-28.5,63.53-63.53,63.53-63.53-28.5-63.53-63.53,28.5-63.53,63.53-63.53M-317.51,147.06c-40.61,0-73.53,32.92-73.53,73.53s32.92,73.53,73.53,73.53,73.53-32.92,73.53-73.53-32.92-73.53-73.53-73.53h0Z"/>
    </g>
    <g class="st6">
      <path class="st2" d="M1153.08,157.06c35.03,0,63.53,28.5,63.53,63.53s-28.5,63.53-63.53,63.53-63.53-28.5-63.53-63.53,28.5-63.53,63.53-63.53M1153.08,147.06c-40.61,0-73.53,32.92-73.53,73.53s32.92,73.53,73.53,73.53,73.53-32.92,73.53-73.53-32.92-73.53-73.53-73.53h0Z"/>
    </g>
    <g class="st6">
      <path class="st2" d="M1006.02,157.06c35.03,0,63.53,28.5,63.53,63.53s-28.5,63.53-63.53,63.53-63.53-28.5-63.53-63.53,28.5-63.53,63.53-63.53M1006.02,147.06c-40.61,0-73.53,32.92-73.53,73.53s32.92,73.53,73.53,73.53,73.53-32.92,73.53-73.53-32.92-73.53-73.53-73.53h0Z"/>
    </g>
    <g class="st6">
      <path class="st2" d="M858.96,157.06c35.03,0,63.53,28.5,63.53,63.53s-28.5,63.53-63.53,63.53-63.53-28.5-63.53-63.53,28.5-63.53,63.53-63.53M858.96,147.06c-40.61,0-73.53,32.92-73.53,73.53s32.92,73.53,73.53,73.53,73.53-32.92,73.53-73.53-32.92-73.53-73.53-73.53h0Z"/>
    </g>
    <g class="st6">
      <path class="st2" d="M711.91,157.06c35.03,0,63.53,28.5,63.53,63.53s-28.5,63.53-63.53,63.53-63.53-28.5-63.53-63.53,28.5-63.53,63.53-63.53M711.91,147.06c-40.61,0-73.53,32.92-73.53,73.53s32.92,73.53,73.53,73.53,73.53-32.92,73.53-73.53-32.92-73.53-73.53-73.53h0Z"/>
    </g>
    <g class="st6">
      <path class="st2" d="M564.85,157.06c35.03,0,63.53,28.5,63.53,63.53s-28.5,63.53-63.53,63.53-63.53-28.5-63.53-63.53,28.5-63.53,63.53-63.53M564.85,147.06c-40.61,0-73.53,32.92-73.53,73.53s32.92,73.53,73.53,73.53,73.53-32.92,73.53-73.53-32.92-73.53-73.53-73.53h0Z"/>
    </g>
    <g class="st6">
      <path class="st2" d="M417.79,157.06c35.03,0,63.53,28.5,63.53,63.53s-28.5,63.53-63.53,63.53-63.53-28.5-63.53-63.53,28.5-63.53,63.53-63.53M417.79,147.06c-40.61,0-73.53,32.92-73.53,73.53s32.92,73.53,73.53,73.53,73.53-32.92,73.53-73.53-32.92-73.53-73.53-73.53h0Z"/>
    </g>
    <g class="st6">
      <path class="st2" d="M270.73,157.06c35.03,0,63.53,28.5,63.53,63.53s-28.5,63.53-63.53,63.53-63.53-28.5-63.53-63.53,28.5-63.53,63.53-63.53M270.73,147.06c-40.61,0-73.53,32.92-73.53,73.53s32.92,73.53,73.53,73.53,73.53-32.92,73.53-73.53-32.92-73.53-73.53-73.53h0Z"/>
    </g>
    <g class="st6">
      <path class="st2" d="M123.67,157.06c35.03,0,63.53,28.5,63.53,63.53s-28.5,63.53-63.53,63.53-63.53-28.5-63.53-63.53,28.5-63.53,63.53-63.53M123.67,147.06c-40.61,0-73.53,32.92-73.53,73.53s32.92,73.53,73.53,73.53,73.53-32.92,73.53-73.53-32.92-73.53-73.53-73.53h0Z"/>
    </g>
    <g class="st6">
      <path class="st2" d="M-23.39,157.06c35.03,0,63.53,28.5,63.53,63.53s-28.5,63.53-63.53,63.53-63.53-28.5-63.53-63.53,28.5-63.53,63.53-63.53M-23.39,147.06c-40.61,0-73.53,32.92-73.53,73.53s32.92,73.53,73.53,73.53,73.53-32.92,73.53-73.53S17.22,147.06-23.39,147.06h0Z"/>
    </g>
    <g class="st6">
      <path class="st2" d="M-170.45,157.06c35.03,0,63.53,28.5,63.53,63.53s-28.5,63.53-63.53,63.53-63.53-28.5-63.53-63.53,28.5-63.53,63.53-63.53M-170.45,147.06c-40.61,0-73.53,32.92-73.53,73.53s32.92,73.53,73.53,73.53,73.53-32.92,73.53-73.53-32.92-73.53-73.53-73.53h0Z"/>
    </g>
    <g class="st6">
      <path class="st2" d="M1300.14,304.12c35.03,0,63.53,28.5,63.53,63.53s-28.5,63.53-63.53,63.53-63.53-28.5-63.53-63.53,28.5-63.53,63.53-63.53M1300.14,294.12c-40.61,0-73.53,32.92-73.53,73.53s32.92,73.53,73.53,73.53,73.53-32.92,73.53-73.53-32.92-73.53-73.53-73.53h0Z"/>
    </g>
    <g class="st6">
      <path class="st2" d="M1153.08,304.12c35.03,0,63.53,28.5,63.53,63.53s-28.5,63.53-63.53,63.53-63.53-28.5-63.53-63.53,28.5-63.53,63.53-63.53M1153.08,294.12c-40.61,0-73.53,32.92-73.53,73.53s32.92,73.53,73.53,73.53,73.53-32.92,73.53-73.53-32.92-73.53-73.53-73.53h0Z"/>
    </g>
    <g class="st6">
      <path class="st2" d="M1006.02,304.12c35.03,0,63.53,28.5,63.53,63.53s-28.5,63.53-63.53,63.53-63.53-28.5-63.53-63.53,28.5-63.53,63.53-63.53M1006.02,294.12c-40.61,0-73.53,32.92-73.53,73.53s32.92,73.53,73.53,73.53,73.53-32.92,73.53-73.53-32.92-73.53-73.53-73.53h0Z"/>
    </g>
    <g class="st6">
      <path class="st2" d="M858.96,304.12c35.03,0,63.53,28.5,63.53,63.53s-28.5,63.53-63.53,63.53-63.53-28.5-63.53-63.53,28.5-63.53,63.53-63.53M858.96,294.12c-40.61,0-73.53,32.92-73.53,73.53s32.92,73.53,73.53,73.53,73.53-32.92,73.53-73.53-32.92-73.53-73.53-73.53h0Z"/>
    </g>
    <g class="st6">
      <path class="st2" d="M711.91,304.12c35.03,0,63.53,28.5,63.53,63.53s-28.5,63.53-63.53,63.53-63.53-28.5-63.53-63.53,28.5-63.53,63.53-63.53M711.91,294.12c-40.61,0-73.53,32.92-73.53,73.53s32.92,73.53,73.53,73.53,73.53-32.92,73.53-73.53-32.92-73.53-73.53-73.53h0Z"/>
    </g>
    <g class="st6">
      <path class="st2" d="M564.85,304.12c35.03,0,63.53,28.5,63.53,63.53s-28.5,63.53-63.53,63.53-63.53-28.5-63.53-63.53,28.5-63.53,63.53-63.53M564.85,294.12c-40.61,0-73.53,32.92-73.53,73.53s32.92,73.53,73.53,73.53,73.53-32.92,73.53-73.53-32.92-73.53-73.53-73.53h0Z"/>
    </g>
    <g class="st6">
      <path class="st2" d="M417.79,304.12c35.03,0,63.53,28.5,63.53,63.53s-28.5,63.53-63.53,63.53-63.53-28.5-63.53-63.53,28.5-63.53,63.53-63.53M417.79,294.12c-40.61,0-73.53,32.92-73.53,73.53s32.92,73.53,73.53,73.53,73.53-32.92,73.53-73.53-32.92-73.53-73.53-73.53h0Z"/>
    </g>
    <g class="st6">
      <path class="st2" d="M270.73,304.12c35.03,0,63.53,28.5,63.53,63.53s-28.5,63.53-63.53,63.53-63.53-28.5-63.53-63.53,28.5-63.53,63.53-63.53M270.73,294.12c-40.61,0-73.53,32.92-73.53,73.53s32.92,73.53,73.53,73.53,73.53-32.92,73.53-73.53-32.92-73.53-73.53-73.53h0Z"/>
    </g>
    <g class="st6">
      <path class="st2" d="M123.67,304.12c35.03,0,63.53,28.5,63.53,63.53s-28.5,63.53-63.53,63.53-63.53-28.5-63.53-63.53,28.5-63.53,63.53-63.53M123.67,294.12c-40.61,0-73.53,32.92-73.53,73.53s32.92,73.53,73.53,73.53,73.53-32.92,73.53-73.53-32.92-73.53-73.53-73.53h0Z"/>
    </g>
    <g class="st6">
      <path class="st2" d="M-23.39,304.12c35.03,0,63.53,28.5,63.53,63.53s-28.5,63.53-63.53,63.53-63.53-28.5-63.53-63.53,28.5-63.53,63.53-63.53M-23.39,294.12c-40.61,0-73.53,32.92-73.53,73.53s32.92,73.53,73.53,73.53,73.53-32.92,73.53-73.53-32.92-73.53-73.53-73.53h0Z"/>
    </g>
    <g class="st6">
      <path class="st2" d="M-170.45,304.12c35.03,0,63.53,28.5,63.53,63.53s-28.5,63.53-63.53,63.53-63.53-28.5-63.53-63.53,28.5-63.53,63.53-63.53M-170.45,294.12c-40.61,0-73.53,32.92-73.53,73.53s32.92,73.53,73.53,73.53,73.53-32.92,73.53-73.53-32.92-73.53-73.53-73.53h0Z"/>
    </g>
    <g class="st6">
      <path class="st2" d="M1300.14,451.18c35.03,0,63.53,28.5,63.53,63.53s-28.5,63.53-63.53,63.53-63.53-28.5-63.53-63.53,28.5-63.53,63.53-63.53M1300.14,441.18c-40.61,0-73.53,32.92-73.53,73.53s32.92,73.53,73.53,73.53,73.53-32.92,73.53-73.53-32.92-73.53-73.53-73.53h0Z"/>
    </g>
    <g class="st6">
      <path class="st2" d="M1006.02,451.18c35.03,0,63.53,28.5,63.53,63.53s-28.5,63.53-63.53,63.53-63.53-28.5-63.53-63.53,28.5-63.53,63.53-63.53M1006.02,441.18c-40.61,0-73.53,32.92-73.53,73.53s32.92,73.53,73.53,73.53,73.53-32.92,73.53-73.53-32.92-73.53-73.53-73.53h0Z"/>
    </g>
    <g class="st6">
      <path class="st2" d="M858.96,451.18c35.03,0,63.53,28.5,63.53,63.53s-28.5,63.53-63.53,63.53-63.53-28.5-63.53-63.53,28.5-63.53,63.53-63.53M858.96,441.18c-40.61,0-73.53,32.92-73.53,73.53s32.92,73.53,73.53,73.53,73.53-32.92,73.53-73.53-32.92-73.53-73.53-73.53h0Z"/>
    </g>
    <g class="st6">
      <path class="st2" d="M711.91,451.18c35.03,0,63.53,28.5,63.53,63.53s-28.5,63.53-63.53,63.53-63.53-28.5-63.53-63.53,28.5-63.53,63.53-63.53M711.91,441.18c-40.61,0-73.53,32.92-73.53,73.53s32.92,73.53,73.53,73.53,73.53-32.92,73.53-73.53-32.92-73.53-73.53-73.53h0Z"/>
    </g>
    <g class="st6">
      <path class="st2" d="M564.85,451.18c35.03,0,63.53,28.5,63.53,63.53s-28.5,63.53-63.53,63.53-63.53-28.5-63.53-63.53,28.5-63.53,63.53-63.53M564.85,441.18c-40.61,0-73.53,32.92-73.53,73.53s32.92,73.53,73.53,73.53,73.53-32.92,73.53-73.53-32.92-73.53-73.53-73.53h0Z"/>
    </g>
    <g class="st6">
      <path class="st2" d="M270.73,451.18c35.03,0,63.53,28.5,63.53,63.53s-28.5,63.53-63.53,63.53-63.53-28.5-63.53-63.53,28.5-63.53,63.53-63.53M270.73,441.18c-40.61,0-73.53,32.92-73.53,73.53s32.92,73.53,73.53,73.53,73.53-32.92,73.53-73.53-32.92-73.53-73.53-73.53h0Z"/>
    </g>
    <g class="st6">
      <path class="st2" d="M123.67,451.18c35.03,0,63.53,28.5,63.53,63.53s-28.5,63.53-63.53,63.53-63.53-28.5-63.53-63.53,28.5-63.53,63.53-63.53M123.67,441.18c-40.61,0-73.53,32.92-73.53,73.53s32.92,73.53,73.53,73.53,73.53-32.92,73.53-73.53-32.92-73.53-73.53-73.53h0Z"/>
    </g>
    <g class="st6">
      <path class="st2" d="M-23.39,451.18c35.03,0,63.53,28.5,63.53,63.53s-28.5,63.53-63.53,63.53-63.53-28.5-63.53-63.53,28.5-63.53,63.53-63.53M-23.39,441.18c-40.61,0-73.53,32.92-73.53,73.53s32.92,73.53,73.53,73.53,73.53-32.92,73.53-73.53-32.92-73.53-73.53-73.53h0Z"/>
    </g>
    <g class="st6">
      <path class="st2" d="M-170.45,451.18c35.03,0,63.53,28.5,63.53,63.53s-28.5,63.53-63.53,63.53-63.53-28.5-63.53-63.53,28.5-63.53,63.53-63.53M-170.45,441.18c-40.61,0-73.53,32.92-73.53,73.53s32.92,73.53,73.53,73.53,73.53-32.92,73.53-73.53-32.92-73.53-73.53-73.53h0Z"/>
    </g>
    <g class="st6">
      <path class="st2" d="M1006.02,598.24c35.03,0,63.53,28.5,63.53,63.53s-28.5,63.53-63.53,63.53-63.53-28.5-63.53-63.53,28.5-63.53,63.53-63.53M1006.02,588.24c-40.61,0-73.53,32.92-73.53,73.53s32.92,73.53,73.53,73.53,73.53-32.92,73.53-73.53-32.92-73.53-73.53-73.53h0Z"/>
    </g>
    <g class="st6">
      <path class="st2" d="M858.96,598.24c35.03,0,63.53,28.5,63.53,63.53s-28.5,63.53-63.53,63.53-63.53-28.5-63.53-63.53,28.5-63.53,63.53-63.53M858.96,588.24c-40.61,0-73.53,32.92-73.53,73.53s32.92,73.53,73.53,73.53,73.53-32.92,73.53-73.53-32.92-73.53-73.53-73.53h0Z"/>
    </g>
    <g class="st6">
      <path class="st2" d="M564.85,598.24c35.03,0,63.53,28.5,63.53,63.53s-28.5,63.53-63.53,63.53-63.53-28.5-63.53-63.53,28.5-63.53,63.53-63.53M564.85,588.24c-40.61,0-73.53,32.92-73.53,73.53s32.92,73.53,73.53,73.53,73.53-32.92,73.53-73.53-32.92-73.53-73.53-73.53h0Z"/>
    </g>
    <g class="st6">
      <path class="st2" d="M270.73,598.24c35.03,0,63.53,28.5,63.53,63.53s-28.5,63.53-63.53,63.53-63.53-28.5-63.53-63.53,28.5-63.53,63.53-63.53M270.73,588.24c-40.61,0-73.53,32.92-73.53,73.53s32.92,73.53,73.53,73.53,73.53-32.92,73.53-73.53-32.92-73.53-73.53-73.53h0Z"/>
    </g>
    <g class="st6">
      <path class="st2" d="M123.67,598.24c35.03,0,63.53,28.5,63.53,63.53s-28.5,63.53-63.53,63.53-63.53-28.5-63.53-63.53,28.5-63.53,63.53-63.53M123.67,588.24c-40.61,0-73.53,32.92-73.53,73.53s32.92,73.53,73.53,73.53,73.53-32.92,73.53-73.53-32.92-73.53-73.53-73.53h0Z"/>
    </g>
    <g class="st6">
      <path class="st2" d="M-170.45,598.24c35.03,0,63.53,28.5,63.53,63.53s-28.5,63.53-63.53,63.53-63.53-28.5-63.53-63.53,28.5-63.53,63.53-63.53M-170.45,588.24c-40.61,0-73.53,32.92-73.53,73.53s32.92,73.53,73.53,73.53,73.53-32.92,73.53-73.53-32.92-73.53-73.53-73.53h0Z"/>
    </g>
    <g class="st6">
      <path class="st2" d="M858.96,745.29c35.03,0,63.53,28.5,63.53,63.53s-28.5,63.53-63.53,63.53-63.53-28.5-63.53-63.53,28.5-63.53,63.53-63.53M858.96,735.29c-40.61,0-73.53,32.92-73.53,73.53s32.92,73.53,73.53,73.53,73.53-32.92,73.53-73.53-32.92-73.53-73.53-73.53h0Z"/>
    </g>
    <g class="st6">
      <path class="st2" d="M123.67,745.29c35.03,0,63.53,28.5,63.53,63.53s-28.5,63.53-63.53,63.53-63.53-28.5-63.53-63.53,28.5-63.53,63.53-63.53M123.67,735.29c-40.61,0-73.53,32.92-73.53,73.53s32.92,73.53,73.53,73.53,73.53-32.92,73.53-73.53-32.92-73.53-73.53-73.53h0Z"/>
    </g>
  </g>
  <g id="Layer_3" class="st7">
    <g class="st5">
      <polygon class="st2" points="1091.93 25.31 1051.09 72.68 1010.35 25.42 996.82 37.07 1039.3 86.36 996.93 135.52 1010.45 147.18 1051.09 100.03 1091.82 147.29 1105.35 135.63 1062.88 86.36 1105.45 36.97 1091.93 25.31 1091.93 25.31"/>
      <polygon class="st2" points="975.96 162.99 935.16 210.33 894.43 163.08 880.9 174.74 923.37 224.01 880.96 273.21 894.49 284.87 935.16 237.68 975.9 284.95 989.43 273.3 946.94 224.01 989.49 174.65 975.96 162.99 975.96 162.99"/>
      <polygon class="st2" points="858.74 25.35 817.91 72.72 777.19 25.48 763.66 37.14 806.12 86.4 763.74 135.56 777.27 147.22 817.91 100.07 858.66 147.35 872.19 135.69 829.7 86.4 872.27 37 858.74 25.35 858.74 25.35"/>
      <polygon class="st2" points="1341.2 25.35 1300.39 72.69 1259.68 25.45 1246.15 37.11 1288.61 86.37 1246.2 135.57 1259.72 147.22 1300.39 100.04 1341.15 147.32 1354.68 135.67 1312.18 86.37 1354.73 37.01 1341.2 25.35 1341.2 25.35"/>
      <polygon class="st2" points="1209.36 174.47 1168.56 221.8 1127.86 174.59 1114.34 186.25 1156.77 235.48 1114.36 284.69 1127.89 296.34 1168.56 249.15 1209.34 296.46 1222.87 284.8 1180.35 235.48 1222.89 186.13 1209.36 174.47 1209.36 174.47"/>
      <polygon class="st2" points="1079.17 310.45 1038.36 357.79 997.64 310.55 984.11 322.21 1026.57 371.46 984.17 420.66 997.69 432.32 1038.36 385.14 1079.11 432.42 1092.64 420.76 1050.15 371.46 1092.69 322.1 1079.17 310.45 1079.17 310.45"/>
      <polygon class="st2" points="963.2 448.13 922.39 495.47 881.62 448.17 868.09 459.82 910.61 509.15 868.2 558.34 881.73 570 922.39 522.82 963.09 570.04 976.62 558.38 934.18 509.15 976.73 459.79 963.2 448.13 963.2 448.13"/>
      <polygon class="st2" points="845.98 310.48 805.17 357.83 764.42 310.55 750.89 322.21 793.39 371.51 750.98 420.7 764.51 432.36 805.17 385.18 845.89 432.42 859.42 420.76 816.96 371.51 859.51 322.14 845.98 310.48 845.98 310.48"/>
      <polygon class="st2" points="728.73 174.48 687.93 221.82 647.21 174.58 633.69 186.24 676.14 235.49 633.73 284.7 647.26 296.36 687.93 249.17 728.69 296.45 742.21 284.79 699.72 235.49 742.26 186.14 728.73 174.48 728.73 174.48"/>
      <polygon class="st2" points="605.28 25.35 564.45 72.72 523.74 25.49 510.21 37.15 552.66 86.4 510.28 135.57 523.81 147.22 564.45 100.07 605.21 147.36 618.74 135.7 576.24 86.4 618.81 37.01 605.28 25.35 605.28 25.35"/>
      <polygon class="st2" points="1341.24 310.5 1300.43 357.85 1259.68 310.57 1246.16 322.23 1288.64 371.52 1246.24 420.72 1259.76 432.37 1300.43 385.2 1341.16 432.45 1354.68 420.79 1312.22 371.52 1354.76 322.16 1341.24 310.5 1341.24 310.5"/>
      <polygon class="st2" points="1209.4 459.62 1168.6 506.96 1127.87 459.71 1114.35 471.37 1156.81 520.63 1114.4 569.84 1127.92 581.49 1168.6 534.31 1209.35 581.58 1222.87 569.93 1180.38 520.63 1222.93 471.28 1209.4 459.62 1209.4 459.62"/>
      <polygon class="st2" points="1079.14 595.6 1038.34 642.94 997.64 595.73 984.12 607.39 1026.55 656.62 984.14 705.81 997.67 717.47 1038.34 670.29 1079.12 717.6 1092.64 705.95 1050.12 656.62 1092.67 607.26 1079.14 595.6 1079.14 595.6"/>
      <polygon class="st2" points="963.13 733.24 922.36 780.55 881.62 733.29 868.1 744.95 910.57 794.22 868.13 843.46 881.66 855.11 922.36 807.9 963.1 855.16 976.62 843.5 934.14 794.22 976.66 744.9 963.13 733.24 963.13 733.24"/>
      <polygon class="st2" points="728.77 459.64 687.94 507.01 647.22 459.76 633.69 471.42 676.15 520.68 633.77 569.85 647.3 581.51 687.94 534.36 728.7 581.64 742.22 569.98 699.73 520.68 742.3 471.29 728.77 459.64 728.77 459.64"/>
      <polygon class="st2" points="605.32 310.5 564.52 357.84 523.8 310.61 510.28 322.27 552.73 371.52 510.32 420.72 523.85 432.37 564.52 385.19 605.28 432.48 618.8 420.83 576.3 371.52 618.85 322.16 605.32 310.5 605.32 310.5"/>
      <polygon class="st2" points="222.9 18.17 182.07 65.54 141.4 18.36 127.88 30.02 170.28 79.21 127.9 128.38 141.42 140.04 182.07 92.89 222.88 140.23 236.4 128.58 193.85 79.21 236.42 29.83 222.9 18.17 222.9 18.17"/>
      <polygon class="st2" points="106.93 155.85 66.1 203.22 25.38 155.98 11.86 167.64 54.32 216.89 11.93 266.07 25.46 277.73 66.1 230.57 106.86 277.85 120.38 266.19 77.89 216.89 120.46 167.51 106.93 155.85 106.93 155.85"/>
      <polygon class="st2" points="-10.29 18.21 -51.12 65.58 -91.82 18.36 -105.34 30.02 -62.91 79.25 -105.29 128.42 -91.76 140.08 -51.12 92.93 -10.34 140.23 3.18 128.58 -39.33 79.25 3.24 29.87 -10.29 18.21 -10.29 18.21"/>
      <polygon class="st2" points="472.13 18.26 431.37 65.55 390.67 18.33 377.14 29.99 419.58 79.22 377.13 128.47 390.65 140.13 431.37 92.9 472.14 140.21 485.67 128.55 443.15 79.22 485.65 29.92 472.13 18.26 472.13 18.26"/>
      <polygon class="st2" points="340.33 167.33 299.53 214.66 258.86 167.47 245.33 179.13 287.75 228.34 245.33 277.55 258.86 289.21 299.53 242.01 340.33 289.35 353.86 277.69 311.32 228.34 353.86 178.99 340.33 167.33 340.33 167.33"/>
      <polygon class="st2" points="210.14 303.37 169.33 350.71 128.63 303.49 115.11 315.15 157.54 364.38 115.14 413.58 128.66 425.24 169.33 378.06 210.11 425.37 223.63 413.71 181.12 364.38 223.66 315.03 210.14 303.37 210.14 303.37"/>
      <polygon class="st2" points="94.12 440.95 53.3 488.31 12.61 441.11 -.91 452.77 41.51 501.99 -.88 551.17 12.65 562.82 53.3 515.66 94.09 562.98 107.61 551.33 65.09 501.99 107.65 452.61 94.12 440.95 94.12 440.95"/>
      <polygon class="st2" points="-23.05 303.35 -63.88 350.72 -104.59 303.49 -118.11 315.15 -75.67 364.4 -118.05 413.56 -104.52 425.22 -63.88 378.07 -23.11 425.37 -9.59 413.71 -52.09 364.4 -9.52 315 -23.05 303.35 -23.05 303.35"/>
      <polygon class="st2" points="-140.3 167.35 -181.12 214.71 -221.79 167.53 -235.32 179.18 -192.91 228.38 -235.3 277.56 -221.77 289.22 -181.12 242.06 -140.32 289.4 -126.79 277.74 -169.33 228.38 -126.77 179 -140.3 167.35 -140.3 167.35"/>
      <polygon class="st2" points="-263.75 18.21 -304.55 65.55 -345.21 18.37 -358.73 30.03 -316.33 79.22 -358.75 128.43 -345.22 140.08 -304.55 92.9 -263.73 140.24 -250.21 128.59 -292.76 79.22 -250.22 29.87 -263.75 18.21 -263.75 18.21"/>
      <polygon class="st2" points="340.37 452.48 299.57 499.82 258.82 452.55 245.3 464.21 287.78 513.49 245.37 562.7 258.89 574.36 299.57 527.17 340.3 574.42 353.83 562.76 311.36 513.49 353.9 464.14 340.37 452.48 340.37 452.48"/>
      <polygon class="st2" points="210.07 588.42 169.27 635.75 128.6 588.57 115.07 600.23 157.48 649.43 115.07 698.63 128.59 710.29 169.27 663.1 210.07 710.44 223.6 698.78 181.06 649.43 223.59 600.08 210.07 588.42 210.07 588.42"/>
      <polygon class="st2" points="-23.12 588.46 -63.89 635.76 -104.56 588.57 -118.09 600.23 -75.67 649.43 -118.12 698.67 -104.59 710.33 -63.89 663.11 -23.09 710.44 -9.56 698.78 -52.1 649.43 -9.59 600.11 -23.12 588.46 -23.12 588.46"/>
      <polygon class="st2" points="-263.71 303.36 -304.51 350.7 -345.2 303.49 -358.73 315.15 -316.3 364.38 -358.71 413.58 -345.18 425.24 -304.51 378.05 -263.73 425.37 -250.2 413.71 -292.72 364.38 -250.18 315.02 -263.71 303.36 -263.71 303.36"/>
    </g>
  </g>
  <g id="Layer_4" class="st7">
    <rect class="st1" x="518.94" y="2.3" width="44.99" height="89.97"/>
    <rect class="st1" x="608.91" y="2.3" width="44.99" height="89.97"/>
    <rect class="st1" x="563.92" y="92.27" width="44.99" height="89.97"/>
    <rect class="st1" x="518.94" y="182.24" width="44.99" height="89.97"/>
    <rect class="st1" x="608.91" y="182.24" width="44.99" height="89.97"/>
    <rect class="st1" x="698.88" y="92.27" width="44.99" height="89.97"/>
    <rect class="st1" x="743.87" y="2.3" width="44.99" height="89.97"/>
    <rect class="st1" x="833.84" y="2.3" width="44.99" height="89.97"/>
    <rect class="st1" x="743.87" y="182.24" width="44.99" height="89.97"/>
    <rect class="st1" x="833.84" y="182.24" width="44.99" height="89.97"/>
    <rect class="st1" x="788.85" y="92.27" width="44.99" height="89.97"/>
    <rect class="st1" x="878.83" y="92.27" width="44.99" height="89.97"/>
    <rect class="st1" x="968.8" y="2.3" width="44.99" height="89.97"/>
    <rect class="st1" x="1058.77" y="2.3" width="44.99" height="89.97"/>
    <rect class="st1" x="1013.78" y="92.27" width="44.99" height="89.97"/>
    <rect class="st1" x="968.8" y="182.24" width="44.99" height="89.97"/>
    <rect class="st1" x="1058.77" y="182.24" width="44.99" height="89.97"/>
    <rect class="st1" x="1148.74" y="92.27" width="44.99" height="89.97"/>
    <rect class="st1" x="1193.73" y="2.3" width="44.99" height="89.97"/>
    <rect class="st1" x="1283.7" y="2.3" width="44.99" height="89.97"/>
    <rect class="st1" x="1193.73" y="182.24" width="44.99" height="89.97"/>
    <rect class="st1" x="1283.7" y="182.24" width="44.99" height="89.97"/>
    <rect class="st1" x="1238.71" y="92.27" width="44.99" height="89.97"/>
    <rect class="st1" x="1328.68" y="92.27" width="44.99" height="89.97"/>
    <path class="st4" d="M518.94,362.19h44.99v89.97h-44.99v-89.97ZM608.91,362.19h44.99v89.97h-44.99v-89.97ZM653.9,272.22h44.99v89.97h-44.99v-89.97ZM563.92,272.22h44.99v89.97h-44.99v-89.97ZM563.92,452.16h44.99v89.97h-44.99v-89.97ZM473.95,272.22h44.99v89.97h-44.99v-89.97ZM518.94,542.13h44.99v89.97h-44.99v-89.97ZM608.91,542.13h44.99v89.97h-44.99v-89.97ZM698.88,452.16h44.99v89.97h-44.99v-89.97ZM788.85,272.22h44.99v89.97h-44.99v-89.97ZM743.87,362.19h44.99v89.97h-44.99v-89.97ZM833.84,362.19h44.99v89.97h-44.99v-89.97ZM743.87,542.13h44.99v89.97h-44.99v-89.97ZM833.84,542.13h44.99v89.97h-44.99v-89.97ZM788.85,452.16h44.99v89.97h-44.99v-89.97ZM878.83,452.16h44.99v89.97h-44.99v-89.97Z"/>
    <rect class="st1" x="968.8" y="362.19" width="44.99" height="89.97"/>
    <rect class="st1" x="1058.77" y="362.19" width="44.99" height="89.97"/>
    <rect class="st1" x="1103.75" y="272.22" width="44.99" height="89.97"/>
    <rect class="st1" x="1013.78" y="272.22" width="44.99" height="89.97"/>
    <rect class="st1" x="1013.78" y="452.16" width="44.99" height="89.97"/>
    <rect class="st1" x="923.81" y="272.22" width="44.99" height="89.97"/>
    <rect class="st1" x="1148.74" y="452.16" width="44.99" height="89.97"/>
    <rect class="st1" x="1238.71" y="272.22" width="44.99" height="89.97"/>
    <rect class="st1" x="1193.73" y="362.19" width="44.99" height="89.97"/>
    <rect class="st1" x="1283.7" y="362.19" width="44.99" height="89.97"/>
    <rect class="st1" x="1193.73" y="542.13" width="44.99" height="89.97"/>
    <rect class="st1" x="1283.7" y="542.13" width="44.99" height="89.97"/>
    <rect class="st1" x="1238.71" y="452.16" width="44.99" height="89.97"/>
    <rect class="st1" x="1328.68" y="452.16" width="44.99" height="89.97"/>
    <rect class="st1" x="69.08" y="2.3" width="44.99" height="89.97"/>
    <rect class="st1" x="159.05" y="2.3" width="44.99" height="89.97"/>
    <rect class="st1" x="114.07" y="92.27" width="44.99" height="89.97"/>
    <rect class="st1" x="69.08" y="182.24" width="44.99" height="89.97"/>
    <rect class="st1" x="159.05" y="182.24" width="44.99" height="89.97"/>
    <rect class="st1" x="249.02" y="92.27" width="44.99" height="89.97"/>
    <rect class="st1" x="294.01" y="2.3" width="44.99" height="89.97"/>
    <rect class="st1" x="383.98" y="2.3" width="44.99" height="89.97"/>
    <rect class="st1" x="294.01" y="182.24" width="44.99" height="89.97"/>
    <rect class="st1" x="383.98" y="182.24" width="44.99" height="89.97"/>
    <rect class="st1" x="339" y="92.27" width="44.99" height="89.97"/>
    <rect class="st1" x="428.97" y="92.27" width="44.99" height="89.97"/>
    <rect class="st1" x="69.08" y="362.19" width="44.99" height="89.97"/>
    <rect class="st1" x="159.05" y="362.19" width="44.99" height="89.97"/>
    <rect class="st1" x="204.04" y="272.22" width="44.99" height="89.97"/>
    <rect class="st1" x="114.07" y="272.22" width="44.99" height="89.97"/>
    <rect class="st1" x="114.07" y="452.16" width="44.99" height="89.97"/>
    <rect class="st1" x="24.09" y="272.22" width="44.99" height="89.97"/>
    <rect class="st1" x="249.02" y="452.16" width="44.99" height="89.97"/>
    <rect class="st1" x="339" y="272.22" width="44.99" height="89.97"/>
    <rect class="st1" x="294.01" y="362.19" width="44.99" height="89.97"/>
    <rect class="st1" x="383.98" y="362.19" width="44.99" height="89.97"/>
    <rect class="st1" x="294.01" y="542.13" width="44.99" height="89.97"/>
    <rect class="st1" x="339" y="632.1" width="44.99" height="89.97"/>
    <rect class="st1" x="383.98" y="542.13" width="44.99" height="89.97"/>
    <rect class="st1" x="339" y="452.16" width="44.99" height="89.97"/>
    <rect class="st1" x="428.97" y="452.16" width="44.99" height="89.97"/>
    <rect class="st1" x="518.94" y="722.07" width="44.99" height="89.97"/>
    <rect class="st1" x="608.91" y="722.07" width="44.99" height="89.97"/>
    <rect class="st1" x="653.9" y="632.1" width="44.99" height="89.97"/>
    <rect class="st1" x="563.92" y="632.1" width="44.99" height="89.97"/>
    <rect class="st1" x="563.92" y="812.05" width="44.99" height="89.97"/>
    <rect class="st1" x="473.95" y="632.1" width="44.99" height="89.97"/>
    <rect class="st1" x="788.85" y="632.1" width="44.99" height="89.97"/>
    <rect class="st1" x="1238.71" y="632.1" width="44.99" height="89.97"/>
    <g class="st5">
      <path class="st2" d="M752.34,1156.71c1.93,0,1.93-3,0-3s-1.93,3,0,3h0Z"/>
    </g>
  </g>
  <g id="Layer_5">
    <g id="Page-1">
      <g id="signal">
        <path id="Combined-Shape" class="st0" d="M924.18,1.16h65.52v32.76h-65.52V1.16ZM1077.07,44.85h65.52v32.76h-65.52v-32.76ZM1153.51,1.16h65.52v32.76h-65.52V1.16ZM1229.96,1.16h65.52v32.76h-65.52V1.16ZM1229.96,44.85h65.52v32.76h-65.52v-32.76ZM1153.51,44.85h65.52v32.76h-65.52v-32.76ZM1153.51,132.21h65.52v32.76h-65.52v-32.76ZM1229.96,88.53h65.52v32.76h-65.52v-32.76ZM1306.4,88.53h65.52v32.76h-65.52v-32.76ZM1306.4,1.16h65.52v32.76h-65.52V1.16ZM1077.07,175.89h65.52v32.76h-65.52v-32.76ZM1000.62,88.53h65.52v32.76h-65.52v-32.76ZM924.18,132.21h65.52v32.76h-65.52v-32.76ZM924.18,175.89h65.52v32.76h-65.52v-32.76ZM1000.62,175.89h65.52v32.76h-65.52v-32.76ZM1077.07,219.58h65.52v32.76h-65.52v-32.76ZM1000.62,219.58h65.52v32.76h-65.52v-32.76ZM1153.51,219.58h65.52v32.76h-65.52v-32.76ZM1229.96,175.89h65.52v32.76h-65.52v-32.76ZM1229.96,132.21h65.52v32.76h-65.52v-32.76ZM1306.4,175.89h65.52v32.76h-65.52v-32.76ZM1306.4,219.58h65.52v32.76h-65.52v-32.76ZM1000.62,132.21h65.52v32.76h-65.52v-32.76ZM1077.07,88.53h65.52v32.76h-65.52v-32.76ZM1000.62,44.85h65.52v32.76h-65.52v-32.76ZM924.18,44.85h65.52v32.76h-65.52v-32.76Z"/>
      </g>
    </g>
    <g id="Page-11">
      <g id="signal1">
        <path id="Combined-Shape1" class="st0" d="M462.09,1.16h65.52v32.76h-65.52V1.16h0ZM614.98,44.85h65.52v32.76h-65.52v-32.76ZM691.42,1.16h65.52v32.76h-65.52V1.16ZM767.87,1.16h65.52v32.76h-65.52V1.16ZM767.87,44.85h65.52v32.76h-65.52v-32.76ZM691.42,44.85h65.52v32.76h-65.52v-32.76ZM691.42,132.21h65.52v32.76h-65.52v-32.76ZM767.87,88.53h65.52v32.76h-65.52v-32.76ZM844.31,88.53h65.52v32.76h-65.52v-32.76ZM844.31,1.16h65.52v32.76h-65.52V1.16ZM614.98,175.89h65.52v32.76h-65.52v-32.76ZM538.53,88.53h65.52v32.76h-65.52v-32.76ZM462.09,132.21h65.52v32.76h-65.52v-32.76h0ZM462.09,175.89h65.52v32.76h-65.52v-32.76h0ZM538.53,175.89h65.52v32.76h-65.52v-32.76ZM614.98,219.58h65.52v32.76h-65.52v-32.76ZM538.53,219.58h65.52v32.76h-65.52v-32.76ZM691.42,219.58h65.52v32.76h-65.52v-32.76ZM767.87,175.89h65.52v32.76h-65.52v-32.76ZM767.87,132.21h65.52v32.76h-65.52v-32.76ZM844.31,175.89h65.52v32.76h-65.52v-32.76ZM844.31,219.58h65.52v32.76h-65.52v-32.76ZM538.53,132.21h65.52v32.76h-65.52v-32.76ZM614.98,88.53h65.52v32.76h-65.52v-32.76ZM538.53,44.85h65.52v32.76h-65.52v-32.76ZM462.09,44.85h65.52v32.76h-65.52v-32.76h0Z"/>
      </g>
    </g>
    <g id="Page-12">
      <g id="signal2">
        <path id="Combined-Shape2" class="st0" d="M0,1.16h65.52v32.76H0V1.16ZM152.89,44.85h65.52v32.76h-65.52v-32.76ZM229.33,1.16h65.52v32.76h-65.52V1.16ZM305.78,1.16h65.52v32.76h-65.52V1.16ZM305.78,44.85h65.52v32.76h-65.52v-32.76ZM229.33,44.85h65.52v32.76h-65.52v-32.76ZM229.33,132.21h65.52v32.76h-65.52v-32.76ZM305.78,88.53h65.52v32.76h-65.52v-32.76ZM382.22,88.53h65.52v32.76h-65.52v-32.76ZM382.22,1.16h65.52v32.76h-65.52V1.16ZM152.89,175.89h65.52v32.76h-65.52v-32.76ZM76.44,88.53h65.52v32.76h-65.52v-32.76ZM0,132.21h65.52v32.76H0v-32.76ZM0,175.89h65.52v32.76H0v-32.76ZM76.44,175.89h65.52v32.76h-65.52v-32.76ZM152.89,219.58h65.52v32.76h-65.52v-32.76ZM76.44,219.58h65.52v32.76h-65.52v-32.76ZM229.33,219.58h65.52v32.76h-65.52v-32.76ZM305.78,175.89h65.52v32.76h-65.52v-32.76ZM305.78,132.21h65.52v32.76h-65.52v-32.76ZM382.22,175.89h65.52v32.76h-65.52v-32.76ZM382.22,219.58h65.52v32.76h-65.52v-32.76ZM76.44,132.21h65.52v32.76h-65.52v-32.76ZM152.89,88.53h65.52v32.76h-65.52v-32.76ZM76.44,44.85h65.52v32.76h-65.52v-32.76ZM0,44.85h65.52v32.76H0v-32.76Z"/>
      </g>
    </g>
    <g id="Page-13">
      <g id="signal3">
        <path id="Combined-Shape3" class="st0" d="M924.18,264.83h65.52v32.76h-65.52v-32.76ZM1077.07,308.51h65.52v32.76h-65.52v-32.76ZM1153.51,264.83h65.52v32.76h-65.52v-32.76ZM1229.96,264.83h65.52v32.76h-65.52v-32.76ZM1229.96,308.51h65.52v32.76h-65.52v-32.76ZM1153.51,308.51h65.52v32.76h-65.52v-32.76ZM1153.51,395.87h65.52v32.76h-65.52v-32.76ZM1229.96,352.19h65.52v32.76h-65.52v-32.76ZM1306.4,352.19h65.52v32.76h-65.52v-32.76ZM1306.4,264.83h65.52v32.76h-65.52v-32.76ZM1077.07,439.56h65.52v32.76h-65.52v-32.76ZM1000.62,352.19h65.52v32.76h-65.52v-32.76ZM924.18,395.87h65.52v32.76h-65.52v-32.76ZM924.18,439.56h65.52v32.76h-65.52v-32.76ZM1000.62,439.56h65.52v32.76h-65.52v-32.76ZM1077.07,483.24h65.52v32.76h-65.52v-32.76ZM1000.62,483.24h65.52v32.76h-65.52v-32.76ZM1153.51,483.24h65.52v32.76h-65.52v-32.76ZM1229.96,439.56h65.52v32.76h-65.52v-32.76ZM1229.96,395.87h65.52v32.76h-65.52v-32.76ZM1306.4,439.56h65.52v32.76h-65.52v-32.76ZM1306.4,483.24h65.52v32.76h-65.52v-32.76ZM1000.62,395.87h65.52v32.76h-65.52v-32.76ZM1077.07,352.19h65.52v32.76h-65.52v-32.76ZM1000.62,308.51h65.52v32.76h-65.52v-32.76ZM924.18,308.51h65.52v32.76h-65.52v-32.76Z"/>
      </g>
    </g>
    <g id="Page-14">
      <g id="signal4">
        <path id="Combined-Shape4" class="st0" d="M462.09,264.83h65.52v32.76h-65.52v-32.76h0ZM614.98,308.51h65.52v32.76h-65.52v-32.76ZM691.42,264.83h65.52v32.76h-65.52v-32.76ZM767.87,264.83h65.52v32.76h-65.52v-32.76ZM767.87,308.51h65.52v32.76h-65.52v-32.76ZM691.42,308.51h65.52v32.76h-65.52v-32.76ZM691.42,395.87h65.52v32.76h-65.52v-32.76ZM767.87,352.19h65.52v32.76h-65.52v-32.76ZM844.31,352.19h65.52v32.76h-65.52v-32.76ZM844.31,264.83h65.52v32.76h-65.52v-32.76ZM614.98,439.56h65.52v32.76h-65.52v-32.76ZM538.53,352.19h65.52v32.76h-65.52v-32.76ZM462.09,395.87h65.52v32.76h-65.52v-32.76h0ZM462.09,439.56h65.52v32.76h-65.52v-32.76h0ZM538.53,439.56h65.52v32.76h-65.52v-32.76ZM614.98,483.24h65.52v32.76h-65.52v-32.76ZM538.53,483.24h65.52v32.76h-65.52v-32.76ZM691.42,483.24h65.52v32.76h-65.52v-32.76ZM767.87,439.56h65.52v32.76h-65.52v-32.76ZM767.87,395.87h65.52v32.76h-65.52v-32.76ZM844.31,439.56h65.52v32.76h-65.52v-32.76ZM844.31,483.24h65.52v32.76h-65.52v-32.76ZM538.53,395.87h65.52v32.76h-65.52v-32.76ZM614.98,352.19h65.52v32.76h-65.52v-32.76ZM538.53,308.51h65.52v32.76h-65.52v-32.76ZM462.09,308.51h65.52v32.76h-65.52v-32.76h0Z"/>
      </g>
    </g>
    <rect class="st3" x="924.18" y="526.92" width="65.52" height="32.76"/>
    <rect class="st3" x="1077.07" y="570.6" width="65.52" height="32.76"/>
    <rect class="st3" x="1153.51" y="526.92" width="65.52" height="32.76"/>
    <rect class="st3" x="1229.96" y="526.92" width="65.52" height="32.76"/>
    <rect class="st3" x="1229.96" y="570.6" width="65.52" height="32.76"/>
    <rect class="st3" x="1153.51" y="570.6" width="65.52" height="32.76"/>
    <rect class="st3" x="1153.51" y="657.97" width="65.52" height="32.76"/>
    <rect class="st3" x="1229.96" y="614.29" width="65.52" height="32.76"/>
    <rect class="st3" x="1306.4" y="614.29" width="65.52" height="32.76"/>
    <rect class="st3" x="1306.4" y="657.97" width="65.52" height="32.76"/>
    <rect class="st3" x="1306.4" y="526.92" width="65.52" height="32.76"/>
    <rect class="st3" x="1229.96" y="701.65" width="65.52" height="32.76"/>
    <rect class="st3" x="1229.96" y="657.97" width="65.52" height="32.76"/>
    <rect class="st3" x="1000.62" y="570.6" width="65.52" height="32.76"/>
    <rect class="st3" x="924.18" y="570.6" width="65.52" height="32.76"/>
    <rect class="st3" x="462.09" y="526.92" width="65.52" height="32.76"/>
    <rect class="st3" x="614.98" y="570.6" width="65.52" height="32.76"/>
    <rect class="st3" x="691.42" y="526.92" width="65.52" height="32.76"/>
    <rect class="st3" x="767.87" y="526.92" width="65.52" height="32.76"/>
    <rect class="st3" x="767.87" y="570.6" width="65.52" height="32.76"/>
    <rect class="st3" x="691.42" y="570.6" width="65.52" height="32.76"/>
    <rect class="st3" x="691.42" y="657.97" width="65.52" height="32.76"/>
    <rect class="st3" x="767.87" y="614.29" width="65.52" height="32.76"/>
    <rect class="st3" x="844.31" y="614.29" width="65.52" height="32.76"/>
    <rect class="st3" x="844.31" y="526.92" width="65.52" height="32.76"/>
    <rect class="st3" x="538.53" y="614.29" width="65.52" height="32.76"/>
    <rect class="st3" x="462.09" y="657.97" width="65.52" height="32.76"/>
    <rect class="st3" x="767.87" y="657.97" width="65.52" height="32.76"/>
    <rect class="st3" x="538.53" y="657.97" width="65.52" height="32.76"/>
    <rect class="st3" x="614.98" y="614.29" width="65.52" height="32.76"/>
    <rect class="st3" x="538.53" y="570.6" width="65.52" height="32.76"/>
    <rect class="st3" x="462.09" y="570.6" width="65.52" height="32.76"/>
    <rect class="st3" y="264.83" width="65.52" height="32.76"/>
    <rect class="st3" x="152.89" y="308.51" width="65.52" height="32.76"/>
    <rect class="st3" x="229.33" y="264.83" width="65.52" height="32.76"/>
    <rect class="st3" x="305.78" y="264.83" width="65.52" height="32.76"/>
    <rect class="st3" x="305.78" y="308.51" width="65.52" height="32.76"/>
    <rect class="st3" x="229.33" y="308.51" width="65.52" height="32.76"/>
    <rect class="st3" x="229.33" y="395.87" width="65.52" height="32.76"/>
    <rect class="st3" x="305.78" y="352.19" width="65.52" height="32.76"/>
    <rect class="st3" x="382.22" y="352.19" width="65.52" height="32.76"/>
    <rect class="st3" x="382.22" y="264.83" width="65.52" height="32.76"/>
    <rect class="st3" x="76.44" y="352.19" width="65.52" height="32.76"/>
    <rect class="st3" x="305.78" y="439.56" width="65.52" height="32.76"/>
    <rect class="st3" x="305.78" y="395.87" width="65.52" height="32.76"/>
    <rect class="st3" x="382.22" y="439.56" width="65.52" height="32.76"/>
    <rect class="st3" x="382.22" y="483.24" width="65.52" height="32.76"/>
    <rect class="st3" x="152.89" y="352.19" width="65.52" height="32.76"/>
    <rect class="st3" x="76.44" y="308.51" width="65.52" height="32.76"/>
    <rect class="st3" y="308.51" width="65.52" height="32.76"/>
  </g>
</svg>