<?xml version="1.0" encoding="UTF-8"?>
<svg id="Layer_1" xmlns="http://www.w3.org/2000/svg" version="1.1" xmlns:xlink="http://www.w3.org/1999/xlink" viewBox="0 0 1716.42 830.16">
  <!-- Generator: Adobe Illustrator 29.8.2, SVG Export Plug-In . SVG Version: 2.1.1 Build 3)  -->
  <defs>
    <style>
      .st0 {
        opacity: .11;
      }

      .st1 {
        fill: #e83150;
      }

      .st2 {
        display: none;
      }

      .st3 {
        fill: url(#linear-gradient);
      }
    </style>
    <linearGradient id="linear-gradient" x1="1246.8" y1="-842.77" x2="640.16" y2="867.84" gradientTransform="translate(0 1080) scale(1 -1)" gradientUnits="userSpaceOnUse">
      <stop offset="0" stop-color="#e83150"/>
      <stop offset=".26" stop-color="#941f33"/>
      <stop offset=".5" stop-color="#51111b"/>
      <stop offset=".66" stop-color="#27080d"/>
      <stop offset=".75" stop-color="#180508"/>
      <stop offset=".85" stop-color="#080102"/>
      <stop offset=".93" stop-color="#000"/>
    </linearGradient>
  </defs>
  <g id="Layer_11" data-name="Layer_1" class="st2">
    <g>
      <rect class="st3" x="-203.08" y=".5" width="1919" height="1079"/>
      <path d="M1715.42,1v1078H-202.58V1h1918M1716.42,0H-203.58v1080h1920V0h0Z"/>
    </g>
  </g>
  <g id="Layer_2" class="st2">
    <g class="st0">
      <path class="st1" d="M1642.89,10c35.03,0,63.53,28.5,63.53,63.53s-28.5,63.53-63.53,63.53-63.53-28.5-63.53-63.53,28.5-63.53,63.53-63.53M1642.89,0c-40.61,0-73.53,32.92-73.53,73.53s32.92,73.53,73.53,73.53,73.53-32.92,73.53-73.53S1683.5,0,1642.89,0h0Z"/>
    </g>
    <g class="st0">
      <path class="st1" d="M1495.83,10c35.03,0,63.53,28.5,63.53,63.53s-28.5,63.53-63.53,63.53-63.53-28.5-63.53-63.53,28.5-63.53,63.53-63.53M1495.83,0c-40.61,0-73.53,32.92-73.53,73.53s32.92,73.53,73.53,73.53,73.53-32.92,73.53-73.53S1536.44,0,1495.83,0h0Z"/>
    </g>
    <g class="st0">
      <path class="st1" d="M1348.77,10c35.03,0,63.53,28.5,63.53,63.53s-28.5,63.53-63.53,63.53-63.53-28.5-63.53-63.53,28.5-63.53,63.53-63.53M1348.77,0c-40.61,0-73.53,32.92-73.53,73.53s32.92,73.53,73.53,73.53,73.53-32.92,73.53-73.53S1389.38,0,1348.77,0h0Z"/>
    </g>
    <g class="st0">
      <path class="st1" d="M1201.71,10c35.03,0,63.53,28.5,63.53,63.53s-28.5,63.53-63.53,63.53-63.53-28.5-63.53-63.53,28.5-63.53,63.53-63.53M1201.71,0c-40.61,0-73.53,32.92-73.53,73.53s32.92,73.53,73.53,73.53,73.53-32.92,73.53-73.53S1242.32,0,1201.71,0h0Z"/>
    </g>
    <g class="st0">
      <path class="st1" d="M1054.66,10c35.03,0,63.53,28.5,63.53,63.53s-28.5,63.53-63.53,63.53-63.53-28.5-63.53-63.53,28.5-63.53,63.53-63.53M1054.66,0c-40.61,0-73.53,32.92-73.53,73.53s32.92,73.53,73.53,73.53,73.53-32.92,73.53-73.53S1095.26,0,1054.66,0h0Z"/>
    </g>
    <g class="st0">
      <path class="st1" d="M907.6,10c35.03,0,63.53,28.5,63.53,63.53s-28.5,63.53-63.53,63.53-63.53-28.5-63.53-63.53,28.5-63.53,63.53-63.53M907.6,0c-40.61,0-73.53,32.92-73.53,73.53s32.92,73.53,73.53,73.53,73.53-32.92,73.53-73.53S948.21,0,907.6,0h0Z"/>
    </g>
    <g class="st0">
      <path class="st1" d="M760.54,10c35.03,0,63.53,28.5,63.53,63.53s-28.5,63.53-63.53,63.53-63.53-28.5-63.53-63.53,28.5-63.53,63.53-63.53M760.54,0c-40.61,0-73.53,32.92-73.53,73.53s32.92,73.53,73.53,73.53,73.53-32.92,73.53-73.53S801.15,0,760.54,0h0Z"/>
    </g>
    <g class="st0">
      <path class="st1" d="M613.48,10c35.03,0,63.53,28.5,63.53,63.53s-28.5,63.53-63.53,63.53-63.53-28.5-63.53-63.53,28.5-63.53,63.53-63.53M613.48,0c-40.61,0-73.53,32.92-73.53,73.53s32.92,73.53,73.53,73.53,73.53-32.92,73.53-73.53S654.09,0,613.48,0h0Z"/>
    </g>
    <g class="st0">
      <path class="st1" d="M466.42,10c35.03,0,63.53,28.5,63.53,63.53s-28.5,63.53-63.53,63.53-63.53-28.5-63.53-63.53,28.5-63.53,63.53-63.53M466.42,0c-40.61,0-73.53,32.92-73.53,73.53s32.92,73.53,73.53,73.53,73.53-32.92,73.53-73.53S507.03,0,466.42,0h0Z"/>
    </g>
    <g class="st0">
      <path class="st1" d="M319.36,10c35.03,0,63.53,28.5,63.53,63.53s-28.5,63.53-63.53,63.53-63.53-28.5-63.53-63.53,28.5-63.53,63.53-63.53M319.36,0c-40.61,0-73.53,32.92-73.53,73.53s32.92,73.53,73.53,73.53,73.53-32.92,73.53-73.53S359.97,0,319.36,0h0Z"/>
    </g>
    <g class="st0">
      <path class="st1" d="M172.3,10c35.03,0,63.53,28.5,63.53,63.53s-28.5,63.53-63.53,63.53-63.53-28.5-63.53-63.53,28.5-63.53,63.53-63.53M172.3,0c-40.61,0-73.53,32.92-73.53,73.53s32.92,73.53,73.53,73.53,73.53-32.92,73.53-73.53S212.91,0,172.3,0h0Z"/>
    </g>
    <g class="st0">
      <path class="st1" d="M25.24,10c35.03,0,63.53,28.5,63.53,63.53s-28.5,63.53-63.53,63.53-63.53-28.5-63.53-63.53S-9.79,10,25.24,10M25.24,0C-15.37,0-48.29,32.92-48.29,73.53S-15.37,147.06,25.24,147.06s73.53-32.92,73.53-73.53S65.85,0,25.24,0h0Z"/>
    </g>
    <g class="st0">
      <path class="st1" d="M1642.89,157.06c35.03,0,63.53,28.5,63.53,63.53s-28.5,63.53-63.53,63.53-63.53-28.5-63.53-63.53,28.5-63.53,63.53-63.53M1642.89,147.06c-40.61,0-73.53,32.92-73.53,73.53s32.92,73.53,73.53,73.53,73.53-32.92,73.53-73.53-32.92-73.53-73.53-73.53h0Z"/>
    </g>
    <g class="st0">
      <path class="st1" d="M25.24,157.06c35.03,0,63.53,28.5,63.53,63.53s-28.5,63.53-63.53,63.53-63.53-28.5-63.53-63.53,28.5-63.53,63.53-63.53M25.24,147.06c-40.61,0-73.53,32.92-73.53,73.53s32.92,73.53,73.53,73.53,73.53-32.92,73.53-73.53-32.92-73.53-73.53-73.53h0Z"/>
    </g>
    <g class="st0">
      <path class="st1" d="M1495.83,157.06c35.03,0,63.53,28.5,63.53,63.53s-28.5,63.53-63.53,63.53-63.53-28.5-63.53-63.53,28.5-63.53,63.53-63.53M1495.83,147.06c-40.61,0-73.53,32.92-73.53,73.53s32.92,73.53,73.53,73.53,73.53-32.92,73.53-73.53-32.92-73.53-73.53-73.53h0Z"/>
    </g>
    <g class="st0">
      <path class="st1" d="M1348.77,157.06c35.03,0,63.53,28.5,63.53,63.53s-28.5,63.53-63.53,63.53-63.53-28.5-63.53-63.53,28.5-63.53,63.53-63.53M1348.77,147.06c-40.61,0-73.53,32.92-73.53,73.53s32.92,73.53,73.53,73.53,73.53-32.92,73.53-73.53-32.92-73.53-73.53-73.53h0Z"/>
    </g>
    <g class="st0">
      <path class="st1" d="M1201.71,157.06c35.03,0,63.53,28.5,63.53,63.53s-28.5,63.53-63.53,63.53-63.53-28.5-63.53-63.53,28.5-63.53,63.53-63.53M1201.71,147.06c-40.61,0-73.53,32.92-73.53,73.53s32.92,73.53,73.53,73.53,73.53-32.92,73.53-73.53-32.92-73.53-73.53-73.53h0Z"/>
    </g>
    <g class="st0">
      <path class="st1" d="M1054.66,157.06c35.03,0,63.53,28.5,63.53,63.53s-28.5,63.53-63.53,63.53-63.53-28.5-63.53-63.53,28.5-63.53,63.53-63.53M1054.66,147.06c-40.61,0-73.53,32.92-73.53,73.53s32.92,73.53,73.53,73.53,73.53-32.92,73.53-73.53-32.92-73.53-73.53-73.53h0Z"/>
    </g>
    <g class="st0">
      <path class="st1" d="M907.6,157.06c35.03,0,63.53,28.5,63.53,63.53s-28.5,63.53-63.53,63.53-63.53-28.5-63.53-63.53,28.5-63.53,63.53-63.53M907.6,147.06c-40.61,0-73.53,32.92-73.53,73.53s32.92,73.53,73.53,73.53,73.53-32.92,73.53-73.53-32.92-73.53-73.53-73.53h0Z"/>
    </g>
    <g class="st0">
      <path class="st1" d="M760.54,157.06c35.03,0,63.53,28.5,63.53,63.53s-28.5,63.53-63.53,63.53-63.53-28.5-63.53-63.53,28.5-63.53,63.53-63.53M760.54,147.06c-40.61,0-73.53,32.92-73.53,73.53s32.92,73.53,73.53,73.53,73.53-32.92,73.53-73.53-32.92-73.53-73.53-73.53h0Z"/>
    </g>
    <g class="st0">
      <path class="st1" d="M613.48,157.06c35.03,0,63.53,28.5,63.53,63.53s-28.5,63.53-63.53,63.53-63.53-28.5-63.53-63.53,28.5-63.53,63.53-63.53M613.48,147.06c-40.61,0-73.53,32.92-73.53,73.53s32.92,73.53,73.53,73.53,73.53-32.92,73.53-73.53-32.92-73.53-73.53-73.53h0Z"/>
    </g>
    <g class="st0">
      <path class="st1" d="M466.42,157.06c35.03,0,63.53,28.5,63.53,63.53s-28.5,63.53-63.53,63.53-63.53-28.5-63.53-63.53,28.5-63.53,63.53-63.53M466.42,147.06c-40.61,0-73.53,32.92-73.53,73.53s32.92,73.53,73.53,73.53,73.53-32.92,73.53-73.53-32.92-73.53-73.53-73.53h0Z"/>
    </g>
    <g class="st0">
      <path class="st1" d="M319.36,157.06c35.03,0,63.53,28.5,63.53,63.53s-28.5,63.53-63.53,63.53-63.53-28.5-63.53-63.53,28.5-63.53,63.53-63.53M319.36,147.06c-40.61,0-73.53,32.92-73.53,73.53s32.92,73.53,73.53,73.53,73.53-32.92,73.53-73.53-32.92-73.53-73.53-73.53h0Z"/>
    </g>
    <g class="st0">
      <path class="st1" d="M172.3,157.06c35.03,0,63.53,28.5,63.53,63.53s-28.5,63.53-63.53,63.53-63.53-28.5-63.53-63.53,28.5-63.53,63.53-63.53M172.3,147.06c-40.61,0-73.53,32.92-73.53,73.53s32.92,73.53,73.53,73.53,73.53-32.92,73.53-73.53-32.92-73.53-73.53-73.53h0Z"/>
    </g>
    <g class="st0">
      <path class="st1" d="M1642.89,304.12c35.03,0,63.53,28.5,63.53,63.53s-28.5,63.53-63.53,63.53-63.53-28.5-63.53-63.53,28.5-63.53,63.53-63.53M1642.89,294.12c-40.61,0-73.53,32.92-73.53,73.53s32.92,73.53,73.53,73.53,73.53-32.92,73.53-73.53-32.92-73.53-73.53-73.53h0Z"/>
    </g>
    <g class="st0">
      <path class="st1" d="M1495.83,304.12c35.03,0,63.53,28.5,63.53,63.53s-28.5,63.53-63.53,63.53-63.53-28.5-63.53-63.53,28.5-63.53,63.53-63.53M1495.83,294.12c-40.61,0-73.53,32.92-73.53,73.53s32.92,73.53,73.53,73.53,73.53-32.92,73.53-73.53-32.92-73.53-73.53-73.53h0Z"/>
    </g>
    <g class="st0">
      <path class="st1" d="M1348.77,304.12c35.03,0,63.53,28.5,63.53,63.53s-28.5,63.53-63.53,63.53-63.53-28.5-63.53-63.53,28.5-63.53,63.53-63.53M1348.77,294.12c-40.61,0-73.53,32.92-73.53,73.53s32.92,73.53,73.53,73.53,73.53-32.92,73.53-73.53-32.92-73.53-73.53-73.53h0Z"/>
    </g>
    <g class="st0">
      <path class="st1" d="M1201.71,304.12c35.03,0,63.53,28.5,63.53,63.53s-28.5,63.53-63.53,63.53-63.53-28.5-63.53-63.53,28.5-63.53,63.53-63.53M1201.71,294.12c-40.61,0-73.53,32.92-73.53,73.53s32.92,73.53,73.53,73.53,73.53-32.92,73.53-73.53-32.92-73.53-73.53-73.53h0Z"/>
    </g>
    <g class="st0">
      <path class="st1" d="M1054.66,304.12c35.03,0,63.53,28.5,63.53,63.53s-28.5,63.53-63.53,63.53-63.53-28.5-63.53-63.53,28.5-63.53,63.53-63.53M1054.66,294.12c-40.61,0-73.53,32.92-73.53,73.53s32.92,73.53,73.53,73.53,73.53-32.92,73.53-73.53-32.92-73.53-73.53-73.53h0Z"/>
    </g>
    <g class="st0">
      <path class="st1" d="M907.6,304.12c35.03,0,63.53,28.5,63.53,63.53s-28.5,63.53-63.53,63.53-63.53-28.5-63.53-63.53,28.5-63.53,63.53-63.53M907.6,294.12c-40.61,0-73.53,32.92-73.53,73.53s32.92,73.53,73.53,73.53,73.53-32.92,73.53-73.53-32.92-73.53-73.53-73.53h0Z"/>
    </g>
    <g class="st0">
      <path class="st1" d="M760.54,304.12c35.03,0,63.53,28.5,63.53,63.53s-28.5,63.53-63.53,63.53-63.53-28.5-63.53-63.53,28.5-63.53,63.53-63.53M760.54,294.12c-40.61,0-73.53,32.92-73.53,73.53s32.92,73.53,73.53,73.53,73.53-32.92,73.53-73.53-32.92-73.53-73.53-73.53h0Z"/>
    </g>
    <g class="st0">
      <path class="st1" d="M613.48,304.12c35.03,0,63.53,28.5,63.53,63.53s-28.5,63.53-63.53,63.53-63.53-28.5-63.53-63.53,28.5-63.53,63.53-63.53M613.48,294.12c-40.61,0-73.53,32.92-73.53,73.53s32.92,73.53,73.53,73.53,73.53-32.92,73.53-73.53-32.92-73.53-73.53-73.53h0Z"/>
    </g>
    <g class="st0">
      <path class="st1" d="M466.42,304.12c35.03,0,63.53,28.5,63.53,63.53s-28.5,63.53-63.53,63.53-63.53-28.5-63.53-63.53,28.5-63.53,63.53-63.53M466.42,294.12c-40.61,0-73.53,32.92-73.53,73.53s32.92,73.53,73.53,73.53,73.53-32.92,73.53-73.53-32.92-73.53-73.53-73.53h0Z"/>
    </g>
    <g class="st0">
      <path class="st1" d="M319.36,304.12c35.03,0,63.53,28.5,63.53,63.53s-28.5,63.53-63.53,63.53-63.53-28.5-63.53-63.53,28.5-63.53,63.53-63.53M319.36,294.12c-40.61,0-73.53,32.92-73.53,73.53s32.92,73.53,73.53,73.53,73.53-32.92,73.53-73.53-32.92-73.53-73.53-73.53h0Z"/>
    </g>
    <g class="st0">
      <path class="st1" d="M172.3,304.12c35.03,0,63.53,28.5,63.53,63.53s-28.5,63.53-63.53,63.53-63.53-28.5-63.53-63.53,28.5-63.53,63.53-63.53M172.3,294.12c-40.61,0-73.53,32.92-73.53,73.53s32.92,73.53,73.53,73.53,73.53-32.92,73.53-73.53-32.92-73.53-73.53-73.53h0Z"/>
    </g>
    <g class="st0">
      <path class="st1" d="M1642.89,451.18c35.03,0,63.53,28.5,63.53,63.53s-28.5,63.53-63.53,63.53-63.53-28.5-63.53-63.53,28.5-63.53,63.53-63.53M1642.89,441.18c-40.61,0-73.53,32.92-73.53,73.53s32.92,73.53,73.53,73.53,73.53-32.92,73.53-73.53-32.92-73.53-73.53-73.53h0Z"/>
    </g>
    <g class="st0">
      <path class="st1" d="M1348.77,451.18c35.03,0,63.53,28.5,63.53,63.53s-28.5,63.53-63.53,63.53-63.53-28.5-63.53-63.53,28.5-63.53,63.53-63.53M1348.77,441.18c-40.61,0-73.53,32.92-73.53,73.53s32.92,73.53,73.53,73.53,73.53-32.92,73.53-73.53-32.92-73.53-73.53-73.53h0Z"/>
    </g>
    <g class="st0">
      <path class="st1" d="M1201.71,451.18c35.03,0,63.53,28.5,63.53,63.53s-28.5,63.53-63.53,63.53-63.53-28.5-63.53-63.53,28.5-63.53,63.53-63.53M1201.71,441.18c-40.61,0-73.53,32.92-73.53,73.53s32.92,73.53,73.53,73.53,73.53-32.92,73.53-73.53-32.92-73.53-73.53-73.53h0Z"/>
    </g>
    <g class="st0">
      <path class="st1" d="M1054.66,451.18c35.03,0,63.53,28.5,63.53,63.53s-28.5,63.53-63.53,63.53-63.53-28.5-63.53-63.53,28.5-63.53,63.53-63.53M1054.66,441.18c-40.61,0-73.53,32.92-73.53,73.53s32.92,73.53,73.53,73.53,73.53-32.92,73.53-73.53-32.92-73.53-73.53-73.53h0Z"/>
    </g>
    <g class="st0">
      <path class="st1" d="M907.6,451.18c35.03,0,63.53,28.5,63.53,63.53s-28.5,63.53-63.53,63.53-63.53-28.5-63.53-63.53,28.5-63.53,63.53-63.53M907.6,441.18c-40.61,0-73.53,32.92-73.53,73.53s32.92,73.53,73.53,73.53,73.53-32.92,73.53-73.53-32.92-73.53-73.53-73.53h0Z"/>
    </g>
    <g class="st0">
      <path class="st1" d="M613.48,451.18c35.03,0,63.53,28.5,63.53,63.53s-28.5,63.53-63.53,63.53-63.53-28.5-63.53-63.53,28.5-63.53,63.53-63.53M613.48,441.18c-40.61,0-73.53,32.92-73.53,73.53s32.92,73.53,73.53,73.53,73.53-32.92,73.53-73.53-32.92-73.53-73.53-73.53h0Z"/>
    </g>
    <g class="st0">
      <path class="st1" d="M466.42,451.18c35.03,0,63.53,28.5,63.53,63.53s-28.5,63.53-63.53,63.53-63.53-28.5-63.53-63.53,28.5-63.53,63.53-63.53M466.42,441.18c-40.61,0-73.53,32.92-73.53,73.53s32.92,73.53,73.53,73.53,73.53-32.92,73.53-73.53-32.92-73.53-73.53-73.53h0Z"/>
    </g>
    <g class="st0">
      <path class="st1" d="M319.36,451.18c35.03,0,63.53,28.5,63.53,63.53s-28.5,63.53-63.53,63.53-63.53-28.5-63.53-63.53,28.5-63.53,63.53-63.53M319.36,441.18c-40.61,0-73.53,32.92-73.53,73.53s32.92,73.53,73.53,73.53,73.53-32.92,73.53-73.53-32.92-73.53-73.53-73.53h0Z"/>
    </g>
    <g class="st0">
      <path class="st1" d="M172.3,451.18c35.03,0,63.53,28.5,63.53,63.53s-28.5,63.53-63.53,63.53-63.53-28.5-63.53-63.53,28.5-63.53,63.53-63.53M172.3,441.18c-40.61,0-73.53,32.92-73.53,73.53s32.92,73.53,73.53,73.53,73.53-32.92,73.53-73.53-32.92-73.53-73.53-73.53h0Z"/>
    </g>
    <g class="st0">
      <path class="st1" d="M1348.77,598.24c35.03,0,63.53,28.5,63.53,63.53s-28.5,63.53-63.53,63.53-63.53-28.5-63.53-63.53,28.5-63.53,63.53-63.53M1348.77,588.24c-40.61,0-73.53,32.92-73.53,73.53s32.92,73.53,73.53,73.53,73.53-32.92,73.53-73.53-32.92-73.53-73.53-73.53h0Z"/>
    </g>
    <g class="st0">
      <path class="st1" d="M1201.71,598.24c35.03,0,63.53,28.5,63.53,63.53s-28.5,63.53-63.53,63.53-63.53-28.5-63.53-63.53,28.5-63.53,63.53-63.53M1201.71,588.24c-40.61,0-73.53,32.92-73.53,73.53s32.92,73.53,73.53,73.53,73.53-32.92,73.53-73.53-32.92-73.53-73.53-73.53h0Z"/>
    </g>
    <g class="st0">
      <path class="st1" d="M907.6,598.24c35.03,0,63.53,28.5,63.53,63.53s-28.5,63.53-63.53,63.53-63.53-28.5-63.53-63.53,28.5-63.53,63.53-63.53M907.6,588.24c-40.61,0-73.53,32.92-73.53,73.53s32.92,73.53,73.53,73.53,73.53-32.92,73.53-73.53-32.92-73.53-73.53-73.53h0Z"/>
    </g>
    <g class="st0">
      <path class="st1" d="M613.48,598.24c35.03,0,63.53,28.5,63.53,63.53s-28.5,63.53-63.53,63.53-63.53-28.5-63.53-63.53,28.5-63.53,63.53-63.53M613.48,588.24c-40.61,0-73.53,32.92-73.53,73.53s32.92,73.53,73.53,73.53,73.53-32.92,73.53-73.53-32.92-73.53-73.53-73.53h0Z"/>
    </g>
    <g class="st0">
      <path class="st1" d="M466.42,598.24c35.03,0,63.53,28.5,63.53,63.53s-28.5,63.53-63.53,63.53-63.53-28.5-63.53-63.53,28.5-63.53,63.53-63.53M466.42,588.24c-40.61,0-73.53,32.92-73.53,73.53s32.92,73.53,73.53,73.53,73.53-32.92,73.53-73.53-32.92-73.53-73.53-73.53h0Z"/>
    </g>
    <g class="st0">
      <path class="st1" d="M172.3,598.24c35.03,0,63.53,28.5,63.53,63.53s-28.5,63.53-63.53,63.53-63.53-28.5-63.53-63.53,28.5-63.53,63.53-63.53M172.3,588.24c-40.61,0-73.53,32.92-73.53,73.53s32.92,73.53,73.53,73.53,73.53-32.92,73.53-73.53-32.92-73.53-73.53-73.53h0Z"/>
    </g>
    <g class="st0">
      <path class="st1" d="M1201.71,745.29c35.03,0,63.53,28.5,63.53,63.53s-28.5,63.53-63.53,63.53-63.53-28.5-63.53-63.53,28.5-63.53,63.53-63.53M1201.71,735.29c-40.61,0-73.53,32.92-73.53,73.53s32.92,73.53,73.53,73.53,73.53-32.92,73.53-73.53-32.92-73.53-73.53-73.53h0Z"/>
    </g>
    <g class="st0">
      <path class="st1" d="M466.42,745.29c35.03,0,63.53,28.5,63.53,63.53s-28.5,63.53-63.53,63.53-63.53-28.5-63.53-63.53,28.5-63.53,63.53-63.53M466.42,735.29c-40.61,0-73.53,32.92-73.53,73.53s32.92,73.53,73.53,73.53,73.53-32.92,73.53-73.53-32.92-73.53-73.53-73.53h0Z"/>
    </g>
  </g>
  <g>
    <polygon class="st1" points="1450.68 .31 1409.84 47.68 1369.1 .42 1355.57 12.07 1398.05 61.36 1355.68 110.52 1369.2 122.18 1409.84 75.03 1450.57 122.29 1464.1 110.63 1421.63 61.36 1464.2 11.97 1450.68 .31 1450.68 .31"/>
    <polygon class="st1" points="1334.71 137.99 1293.91 185.33 1253.18 138.08 1239.65 149.74 1282.12 199.01 1239.71 248.21 1253.24 259.87 1293.91 212.68 1334.65 259.95 1348.18 248.3 1305.69 199.01 1348.24 149.65 1334.71 137.99 1334.71 137.99"/>
    <polygon class="st1" points="1217.49 .35 1176.66 47.72 1135.94 .48 1122.41 12.14 1164.87 61.4 1122.49 110.56 1136.02 122.22 1176.66 75.07 1217.41 122.35 1230.94 110.69 1188.45 61.4 1231.02 12 1217.49 .35 1217.49 .35"/>
    <polygon class="st1" points="1699.95 .35 1659.14 47.69 1618.43 .45 1604.9 12.11 1647.36 61.37 1604.95 110.57 1618.47 122.22 1659.14 75.04 1699.9 122.32 1713.43 110.67 1670.93 61.37 1713.48 12.01 1699.95 .35 1699.95 .35"/>
    <polygon class="st1" points="1568.11 149.47 1527.31 196.8 1486.61 149.59 1473.09 161.25 1515.52 210.48 1473.11 259.69 1486.64 271.34 1527.31 224.15 1568.09 271.46 1581.62 259.8 1539.1 210.48 1581.64 161.13 1568.11 149.47 1568.11 149.47"/>
    <polygon class="st1" points="1437.92 285.45 1397.11 332.79 1356.39 285.55 1342.86 297.21 1385.32 346.46 1342.92 395.66 1356.44 407.32 1397.11 360.14 1437.86 407.42 1451.39 395.76 1408.9 346.46 1451.44 297.1 1437.92 285.45 1437.92 285.45"/>
    <polygon class="st1" points="1321.95 423.13 1281.14 470.47 1240.37 423.17 1226.84 434.82 1269.36 484.15 1226.95 533.34 1240.48 545 1281.14 497.82 1321.84 545.04 1335.37 533.38 1292.93 484.15 1335.48 434.79 1321.95 423.13 1321.95 423.13"/>
    <polygon class="st1" points="1204.73 285.48 1163.92 332.83 1123.17 285.55 1109.64 297.21 1152.14 346.51 1109.73 395.7 1123.26 407.36 1163.92 360.18 1204.64 407.42 1218.17 395.76 1175.71 346.51 1218.26 297.14 1204.73 285.48 1204.73 285.48"/>
    <polygon class="st1" points="1087.48 149.48 1046.68 196.82 1005.96 149.58 992.44 161.24 1034.89 210.49 992.48 259.7 1006.01 271.36 1046.68 224.17 1087.44 271.45 1100.96 259.79 1058.47 210.49 1101.01 161.14 1087.48 149.48 1087.48 149.48"/>
    <polygon class="st1" points="964.03 .35 923.2 47.72 882.49 .49 868.96 12.15 911.41 61.4 869.03 110.57 882.56 122.22 923.2 75.07 963.96 122.36 977.49 110.7 934.99 61.4 977.56 12.01 964.03 .35 964.03 .35"/>
    <polygon class="st1" points="1699.99 285.5 1659.18 332.85 1618.43 285.57 1604.91 297.23 1647.39 346.52 1604.99 395.72 1618.51 407.37 1659.18 360.2 1699.91 407.45 1713.43 395.79 1670.97 346.52 1713.51 297.16 1699.99 285.5 1699.99 285.5"/>
    <polygon class="st1" points="1568.15 434.62 1527.35 481.96 1486.62 434.71 1473.1 446.37 1515.56 495.63 1473.15 544.84 1486.67 556.49 1527.35 509.31 1568.1 556.58 1581.62 544.93 1539.13 495.63 1581.68 446.28 1568.15 434.62 1568.15 434.62"/>
    <polygon class="st1" points="1437.89 570.6 1397.09 617.94 1356.39 570.73 1342.87 582.39 1385.3 631.62 1342.89 680.81 1356.42 692.47 1397.09 645.29 1437.87 692.6 1451.39 680.95 1408.87 631.62 1451.42 582.26 1437.89 570.6 1437.89 570.6"/>
    <polygon class="st1" points="1321.88 708.24 1281.11 755.55 1240.37 708.29 1226.85 719.95 1269.32 769.22 1226.88 818.46 1240.41 830.11 1281.11 782.9 1321.85 830.16 1335.37 818.5 1292.89 769.22 1335.41 719.9 1321.88 708.24 1321.88 708.24"/>
    <polygon class="st1" points="1087.52 434.64 1046.69 482.01 1005.97 434.76 992.44 446.42 1034.9 495.68 992.52 544.85 1006.05 556.51 1046.69 509.36 1087.45 556.64 1100.97 544.98 1058.48 495.68 1101.05 446.29 1087.52 434.64 1087.52 434.64"/>
    <polygon class="st1" points="964.07 285.5 923.27 332.84 882.55 285.61 869.03 297.27 911.48 346.52 869.07 395.72 882.6 407.37 923.27 360.19 964.03 407.48 977.55 395.83 935.05 346.52 977.6 297.16 964.07 285.5 964.07 285.5"/>
    <polygon class="st1" points="581.65 -.83 540.82 46.54 500.15 -.64 486.63 11.02 529.03 60.21 486.65 109.38 500.17 121.04 540.82 73.89 581.63 121.23 595.15 109.58 552.6 60.21 595.17 10.83 581.65 -.83 581.65 -.83"/>
    <polygon class="st1" points="465.68 136.85 424.85 184.22 384.13 136.98 370.61 148.64 413.07 197.89 370.68 247.07 384.21 258.73 424.85 211.57 465.61 258.85 479.13 247.19 436.64 197.89 479.21 148.51 465.68 136.85 465.68 136.85"/>
    <polygon class="st1" points="348.46 -.79 307.63 46.58 266.93 -.64 253.41 11.02 295.84 60.25 253.46 109.42 266.99 121.08 307.63 73.93 348.41 121.23 361.93 109.58 319.42 60.25 361.99 10.87 348.46 -.79 348.46 -.79"/>
    <polygon class="st1" points="830.88 -.74 790.12 46.55 749.42 -.67 735.89 10.99 778.33 60.22 735.88 109.47 749.4 121.13 790.12 73.9 830.89 121.21 844.42 109.55 801.9 60.22 844.4 10.92 830.88 -.74 830.88 -.74"/>
    <polygon class="st1" points="699.08 148.33 658.28 195.66 617.61 148.47 604.08 160.13 646.5 209.34 604.08 258.55 617.61 270.21 658.28 223.01 699.08 270.35 712.61 258.69 670.07 209.34 712.61 159.99 699.08 148.33 699.08 148.33"/>
    <polygon class="st1" points="568.89 284.37 528.08 331.71 487.38 284.49 473.86 296.15 516.29 345.38 473.89 394.58 487.41 406.24 528.08 359.06 568.86 406.37 582.38 394.71 539.87 345.38 582.41 296.03 568.89 284.37 568.89 284.37"/>
    <polygon class="st1" points="452.87 421.95 412.05 469.31 371.36 422.11 357.84 433.77 400.26 482.99 357.87 532.17 371.4 543.82 412.05 496.66 452.84 543.98 466.36 532.33 423.84 482.99 466.4 433.61 452.87 421.95 452.87 421.95"/>
    <polygon class="st1" points="335.7 284.35 294.87 331.72 254.16 284.49 240.64 296.15 283.08 345.4 240.7 394.56 254.23 406.22 294.87 359.07 335.64 406.37 349.16 394.71 306.66 345.4 349.23 296 335.7 284.35 335.7 284.35"/>
    <polygon class="st1" points="218.45 148.35 177.63 195.71 136.96 148.53 123.43 160.18 165.84 209.38 123.45 258.56 136.98 270.22 177.63 223.06 218.43 270.4 231.96 258.74 189.42 209.38 231.98 160 218.45 148.35 218.45 148.35"/>
    <polygon class="st1" points="95 -.79 54.2 46.55 13.54 -.63 .02 11.03 42.42 60.22 0 109.43 13.53 121.08 54.2 73.9 95.02 121.24 108.54 109.59 65.99 60.22 108.53 10.87 95 -.79 95 -.79"/>
    <polygon class="st1" points="699.12 433.48 658.32 480.82 617.57 433.55 604.05 445.21 646.53 494.49 604.12 543.7 617.64 555.36 658.32 508.17 699.05 555.42 712.58 543.76 670.11 494.49 712.65 445.14 699.12 433.48 699.12 433.48"/>
    <polygon class="st1" points="568.82 569.42 528.02 616.75 487.35 569.57 473.82 581.23 516.23 630.43 473.82 679.63 487.34 691.29 528.02 644.1 568.82 691.44 582.35 679.78 539.81 630.43 582.34 581.08 568.82 569.42 568.82 569.42"/>
    <polygon class="st1" points="335.63 569.46 294.86 616.76 254.19 569.57 240.66 581.23 283.08 630.43 240.63 679.67 254.16 691.33 294.86 644.11 335.66 691.44 349.19 679.78 306.65 630.43 349.16 581.11 335.63 569.46 335.63 569.46"/>
    <polygon class="st1" points="95.04 284.36 54.24 331.7 13.55 284.49 .02 296.15 42.45 345.38 .04 394.58 13.57 406.24 54.24 359.05 95.02 406.37 108.55 394.71 66.03 345.38 108.57 296.02 95.04 284.36 95.04 284.36"/>
  </g>
</svg>