<?xml version="1.0" encoding="UTF-8"?>
<svg xmlns="http://www.w3.org/2000/svg" version="1.1" xmlns:xlink="http://www.w3.org/1999/xlink" viewBox="0 0 1920 1080">
  <!-- Generator: Adobe Illustrator 29.8.2, SVG Export Plug-In . SVG Version: 2.1.1 Build 3)  -->
  <defs>
    <style>
      .st0, .st1, .st2, .st3 {
        fill: #e83150;
      }

      .st0, .st3 {
        fill-rule: evenodd;
      }

      .st4 {
        opacity: .11;
      }

      .st1, .st5, .st3 {
        opacity: .1;
      }

      .st6 {
        display: none;
      }

      .st7 {
        fill: url(#linear-gradient);
      }
    </style>
    <linearGradient id="linear-gradient" x1="1450.38" y1="1922.77" x2="843.74" y2="212.16" gradientUnits="userSpaceOnUse">
      <stop offset="0" stop-color="#e83150"/>
      <stop offset=".26" stop-color="#941f33"/>
      <stop offset=".5" stop-color="#51111b"/>
      <stop offset=".66" stop-color="#27080d"/>
      <stop offset=".75" stop-color="#180508"/>
      <stop offset=".85" stop-color="#080102"/>
      <stop offset=".93" stop-color="#000"/>
    </linearGradient>
  </defs>
  <g id="Layer_1" class="st6">
    <g>
      <rect class="st7" x=".5" y=".5" width="1919" height="1079"/>
      <path d="M1919,1v1078H1V1h1918M1920,0H0v1080h1920V0h0Z"/>
    </g>
  </g>
  <g id="Layer_2" class="st6">
    <g class="st4">
      <path class="st2" d="M1846.47,10c35.03,0,63.53,28.5,63.53,63.53s-28.5,63.53-63.53,63.53-63.53-28.5-63.53-63.53,28.5-63.53,63.53-63.53M1846.47,0C1805.86,0,1772.94,32.92,1772.94,73.53s32.92,73.53,73.53,73.53,73.53-32.92,73.53-73.53S1887.08,0,1846.47,0h0Z"/>
    </g>
    <g class="st4">
      <path class="st2" d="M1699.41,10c35.03,0,63.53,28.5,63.53,63.53s-28.5,63.53-63.53,63.53-63.53-28.5-63.53-63.53,28.5-63.53,63.53-63.53M1699.41,0C1658.8,0,1625.88,32.92,1625.88,73.53s32.92,73.53,73.53,73.53,73.53-32.92,73.53-73.53S1740.02,0,1699.41,0h0Z"/>
    </g>
    <g class="st4">
      <path class="st2" d="M1552.35,10c35.03,0,63.53,28.5,63.53,63.53s-28.5,63.53-63.53,63.53-63.53-28.5-63.53-63.53,28.5-63.53,63.53-63.53M1552.35,0C1511.74,0,1478.82,32.92,1478.82,73.53s32.92,73.53,73.53,73.53,73.53-32.92,73.53-73.53S1592.96,0,1552.35,0h0Z"/>
    </g>
    <g class="st4">
      <path class="st2" d="M1405.29,10c35.03,0,63.53,28.5,63.53,63.53s-28.5,63.53-63.53,63.53-63.53-28.5-63.53-63.53,28.5-63.53,63.53-63.53M1405.29,0C1364.68,0,1331.76,32.92,1331.76,73.53s32.92,73.53,73.53,73.53,73.53-32.92,73.53-73.53S1445.9,0,1405.29,0h0Z"/>
    </g>
    <g class="st4">
      <path class="st2" d="M1258.24,10c35.03,0,63.53,28.5,63.53,63.53s-28.5,63.53-63.53,63.53-63.53-28.5-63.53-63.53,28.5-63.53,63.53-63.53M1258.24,0C1217.63,0,1184.71,32.92,1184.71,73.53s32.92,73.53,73.53,73.53,73.53-32.92,73.53-73.53S1298.84,0,1258.24,0h0Z"/>
    </g>
    <g class="st4">
      <path class="st2" d="M1111.18,10c35.03,0,63.53,28.5,63.53,63.53s-28.5,63.53-63.53,63.53-63.53-28.5-63.53-63.53,28.5-63.53,63.53-63.53M1111.18,0C1070.57,0,1037.65,32.92,1037.65,73.53s32.92,73.53,73.53,73.53,73.53-32.92,73.53-73.53S1151.79,0,1111.18,0h0Z"/>
    </g>
    <g class="st4">
      <path class="st2" d="M964.12,10c35.03,0,63.53,28.5,63.53,63.53s-28.5,63.53-63.53,63.53-63.53-28.5-63.53-63.53,28.5-63.53,63.53-63.53M964.12,0C923.51,0,890.59,32.92,890.59,73.53s32.92,73.53,73.53,73.53,73.53-32.92,73.53-73.53S1004.73,0,964.12,0h0Z"/>
    </g>
    <g class="st4">
      <path class="st2" d="M817.06,10c35.03,0,63.53,28.5,63.53,63.53s-28.5,63.53-63.53,63.53-63.53-28.5-63.53-63.53,28.5-63.53,63.53-63.53M817.06,0C776.45,0,743.53,32.92,743.53,73.53s32.92,73.53,73.53,73.53,73.53-32.92,73.53-73.53S857.67,0,817.06,0h0Z"/>
    </g>
    <g class="st4">
      <path class="st2" d="M670,10c35.03,0,63.53,28.5,63.53,63.53s-28.5,63.53-63.53,63.53-63.53-28.5-63.53-63.53,28.5-63.53,63.53-63.53M670,0C629.39,0,596.47,32.92,596.47,73.53s32.92,73.53,73.53,73.53,73.53-32.92,73.53-73.53S710.61,0,670,0h0Z"/>
    </g>
    <g class="st4">
      <path class="st2" d="M522.94,10c35.03,0,63.53,28.5,63.53,63.53s-28.5,63.53-63.53,63.53-63.53-28.5-63.53-63.53,28.5-63.53,63.53-63.53M522.94,0C482.33,0,449.41,32.92,449.41,73.53s32.92,73.53,73.53,73.53,73.53-32.92,73.53-73.53S563.55,0,522.94,0h0Z"/>
    </g>
    <g class="st4">
      <path class="st2" d="M375.88,10c35.03,0,63.53,28.5,63.53,63.53s-28.5,63.53-63.53,63.53-63.53-28.5-63.53-63.53,28.5-63.53,63.53-63.53M375.88,0C335.27,0,302.35,32.92,302.35,73.53s32.92,73.53,73.53,73.53,73.53-32.92,73.53-73.53S416.49,0,375.88,0h0Z"/>
    </g>
    <g class="st4">
      <path class="st2" d="M228.82,10c35.03,0,63.53,28.5,63.53,63.53s-28.5,63.53-63.53,63.53-63.53-28.5-63.53-63.53,28.5-63.53,63.53-63.53M228.82,0C188.21,0,155.29,32.92,155.29,73.53s32.92,73.53,73.53,73.53,73.53-32.92,73.53-73.53S269.43,0,228.82,0h0Z"/>
    </g>
    <g class="st4">
      <path class="st2" d="M1846.47,157.06c35.03,0,63.53,28.5,63.53,63.53s-28.5,63.53-63.53,63.53-63.53-28.5-63.53-63.53,28.5-63.53,63.53-63.53M1846.47,147.06c-40.61,0-73.53,32.92-73.53,73.53s32.92,73.53,73.53,73.53,73.53-32.92,73.53-73.53-32.92-73.53-73.53-73.53h0Z"/>
    </g>
    <g class="st4">
      <path class="st2" d="M228.82,157.06c35.03,0,63.53,28.5,63.53,63.53s-28.5,63.53-63.53,63.53-63.53-28.5-63.53-63.53,28.5-63.53,63.53-63.53M228.82,147.06c-40.61,0-73.53,32.92-73.53,73.53s32.92,73.53,73.53,73.53,73.53-32.92,73.53-73.53-32.92-73.53-73.53-73.53h0Z"/>
    </g>
    <g class="st4">
      <path class="st2" d="M1699.41,157.06c35.03,0,63.53,28.5,63.53,63.53s-28.5,63.53-63.53,63.53-63.53-28.5-63.53-63.53,28.5-63.53,63.53-63.53M1699.41,147.06c-40.61,0-73.53,32.92-73.53,73.53s32.92,73.53,73.53,73.53,73.53-32.92,73.53-73.53-32.92-73.53-73.53-73.53h0Z"/>
    </g>
    <g class="st4">
      <path class="st2" d="M1552.35,157.06c35.03,0,63.53,28.5,63.53,63.53s-28.5,63.53-63.53,63.53-63.53-28.5-63.53-63.53,28.5-63.53,63.53-63.53M1552.35,147.06c-40.61,0-73.53,32.92-73.53,73.53s32.92,73.53,73.53,73.53,73.53-32.92,73.53-73.53-32.92-73.53-73.53-73.53h0Z"/>
    </g>
    <g class="st4">
      <path class="st2" d="M1405.29,157.06c35.03,0,63.53,28.5,63.53,63.53s-28.5,63.53-63.53,63.53-63.53-28.5-63.53-63.53,28.5-63.53,63.53-63.53M1405.29,147.06c-40.61,0-73.53,32.92-73.53,73.53s32.92,73.53,73.53,73.53,73.53-32.92,73.53-73.53-32.92-73.53-73.53-73.53h0Z"/>
    </g>
    <g class="st4">
      <path class="st2" d="M1258.24,157.06c35.03,0,63.53,28.5,63.53,63.53s-28.5,63.53-63.53,63.53-63.53-28.5-63.53-63.53,28.5-63.53,63.53-63.53M1258.24,147.06c-40.61,0-73.53,32.92-73.53,73.53s32.92,73.53,73.53,73.53,73.53-32.92,73.53-73.53-32.92-73.53-73.53-73.53h0Z"/>
    </g>
    <g class="st4">
      <path class="st2" d="M1111.18,157.06c35.03,0,63.53,28.5,63.53,63.53s-28.5,63.53-63.53,63.53-63.53-28.5-63.53-63.53,28.5-63.53,63.53-63.53M1111.18,147.06c-40.61,0-73.53,32.92-73.53,73.53s32.92,73.53,73.53,73.53,73.53-32.92,73.53-73.53-32.92-73.53-73.53-73.53h0Z"/>
    </g>
    <g class="st4">
      <path class="st2" d="M964.12,157.06c35.03,0,63.53,28.5,63.53,63.53s-28.5,63.53-63.53,63.53-63.53-28.5-63.53-63.53,28.5-63.53,63.53-63.53M964.12,147.06c-40.61,0-73.53,32.92-73.53,73.53s32.92,73.53,73.53,73.53,73.53-32.92,73.53-73.53-32.92-73.53-73.53-73.53h0Z"/>
    </g>
    <g class="st4">
      <path class="st2" d="M817.06,157.06c35.03,0,63.53,28.5,63.53,63.53s-28.5,63.53-63.53,63.53-63.53-28.5-63.53-63.53,28.5-63.53,63.53-63.53M817.06,147.06c-40.61,0-73.53,32.92-73.53,73.53s32.92,73.53,73.53,73.53,73.53-32.92,73.53-73.53-32.92-73.53-73.53-73.53h0Z"/>
    </g>
    <g class="st4">
      <path class="st2" d="M670,157.06c35.03,0,63.53,28.5,63.53,63.53s-28.5,63.53-63.53,63.53-63.53-28.5-63.53-63.53,28.5-63.53,63.53-63.53M670,147.06c-40.61,0-73.53,32.92-73.53,73.53s32.92,73.53,73.53,73.53,73.53-32.92,73.53-73.53-32.92-73.53-73.53-73.53h0Z"/>
    </g>
    <g class="st4">
      <path class="st2" d="M522.94,157.06c35.03,0,63.53,28.5,63.53,63.53s-28.5,63.53-63.53,63.53-63.53-28.5-63.53-63.53,28.5-63.53,63.53-63.53M522.94,147.06c-40.61,0-73.53,32.92-73.53,73.53s32.92,73.53,73.53,73.53,73.53-32.92,73.53-73.53-32.92-73.53-73.53-73.53h0Z"/>
    </g>
    <g class="st4">
      <path class="st2" d="M375.88,157.06c35.03,0,63.53,28.5,63.53,63.53s-28.5,63.53-63.53,63.53-63.53-28.5-63.53-63.53,28.5-63.53,63.53-63.53M375.88,147.06c-40.61,0-73.53,32.92-73.53,73.53s32.92,73.53,73.53,73.53,73.53-32.92,73.53-73.53-32.92-73.53-73.53-73.53h0Z"/>
    </g>
    <g class="st4">
      <path class="st2" d="M1846.47,304.12c35.03,0,63.53,28.5,63.53,63.53s-28.5,63.53-63.53,63.53-63.53-28.5-63.53-63.53,28.5-63.53,63.53-63.53M1846.47,294.12c-40.61,0-73.53,32.92-73.53,73.53s32.92,73.53,73.53,73.53,73.53-32.92,73.53-73.53-32.92-73.53-73.53-73.53h0Z"/>
    </g>
    <g class="st4">
      <path class="st2" d="M1699.41,304.12c35.03,0,63.53,28.5,63.53,63.53s-28.5,63.53-63.53,63.53-63.53-28.5-63.53-63.53,28.5-63.53,63.53-63.53M1699.41,294.12c-40.61,0-73.53,32.92-73.53,73.53s32.92,73.53,73.53,73.53,73.53-32.92,73.53-73.53-32.92-73.53-73.53-73.53h0Z"/>
    </g>
    <g class="st4">
      <path class="st2" d="M1552.35,304.12c35.03,0,63.53,28.5,63.53,63.53s-28.5,63.53-63.53,63.53-63.53-28.5-63.53-63.53,28.5-63.53,63.53-63.53M1552.35,294.12c-40.61,0-73.53,32.92-73.53,73.53s32.92,73.53,73.53,73.53,73.53-32.92,73.53-73.53-32.92-73.53-73.53-73.53h0Z"/>
    </g>
    <g class="st4">
      <path class="st2" d="M1405.29,304.12c35.03,0,63.53,28.5,63.53,63.53s-28.5,63.53-63.53,63.53-63.53-28.5-63.53-63.53,28.5-63.53,63.53-63.53M1405.29,294.12c-40.61,0-73.53,32.92-73.53,73.53s32.92,73.53,73.53,73.53,73.53-32.92,73.53-73.53-32.92-73.53-73.53-73.53h0Z"/>
    </g>
    <g class="st4">
      <path class="st2" d="M1258.24,304.12c35.03,0,63.53,28.5,63.53,63.53s-28.5,63.53-63.53,63.53-63.53-28.5-63.53-63.53,28.5-63.53,63.53-63.53M1258.24,294.12c-40.61,0-73.53,32.92-73.53,73.53s32.92,73.53,73.53,73.53,73.53-32.92,73.53-73.53-32.92-73.53-73.53-73.53h0Z"/>
    </g>
    <g class="st4">
      <path class="st2" d="M1111.18,304.12c35.03,0,63.53,28.5,63.53,63.53s-28.5,63.53-63.53,63.53-63.53-28.5-63.53-63.53,28.5-63.53,63.53-63.53M1111.18,294.12c-40.61,0-73.53,32.92-73.53,73.53s32.92,73.53,73.53,73.53,73.53-32.92,73.53-73.53-32.92-73.53-73.53-73.53h0Z"/>
    </g>
    <g class="st4">
      <path class="st2" d="M964.12,304.12c35.03,0,63.53,28.5,63.53,63.53s-28.5,63.53-63.53,63.53-63.53-28.5-63.53-63.53,28.5-63.53,63.53-63.53M964.12,294.12c-40.61,0-73.53,32.92-73.53,73.53s32.92,73.53,73.53,73.53,73.53-32.92,73.53-73.53-32.92-73.53-73.53-73.53h0Z"/>
    </g>
    <g class="st4">
      <path class="st2" d="M817.06,304.12c35.03,0,63.53,28.5,63.53,63.53s-28.5,63.53-63.53,63.53-63.53-28.5-63.53-63.53,28.5-63.53,63.53-63.53M817.06,294.12c-40.61,0-73.53,32.92-73.53,73.53s32.92,73.53,73.53,73.53,73.53-32.92,73.53-73.53-32.92-73.53-73.53-73.53h0Z"/>
    </g>
    <g class="st4">
      <path class="st2" d="M670,304.12c35.03,0,63.53,28.5,63.53,63.53s-28.5,63.53-63.53,63.53-63.53-28.5-63.53-63.53,28.5-63.53,63.53-63.53M670,294.12c-40.61,0-73.53,32.92-73.53,73.53s32.92,73.53,73.53,73.53,73.53-32.92,73.53-73.53-32.92-73.53-73.53-73.53h0Z"/>
    </g>
    <g class="st4">
      <path class="st2" d="M522.94,304.12c35.03,0,63.53,28.5,63.53,63.53s-28.5,63.53-63.53,63.53-63.53-28.5-63.53-63.53,28.5-63.53,63.53-63.53M522.94,294.12c-40.61,0-73.53,32.92-73.53,73.53s32.92,73.53,73.53,73.53,73.53-32.92,73.53-73.53-32.92-73.53-73.53-73.53h0Z"/>
    </g>
    <g class="st4">
      <path class="st2" d="M375.88,304.12c35.03,0,63.53,28.5,63.53,63.53s-28.5,63.53-63.53,63.53-63.53-28.5-63.53-63.53,28.5-63.53,63.53-63.53M375.88,294.12c-40.61,0-73.53,32.92-73.53,73.53s32.92,73.53,73.53,73.53,73.53-32.92,73.53-73.53-32.92-73.53-73.53-73.53h0Z"/>
    </g>
    <g class="st4">
      <path class="st2" d="M1846.47,451.18c35.03,0,63.53,28.5,63.53,63.53s-28.5,63.53-63.53,63.53-63.53-28.5-63.53-63.53,28.5-63.53,63.53-63.53M1846.47,441.18c-40.61,0-73.53,32.92-73.53,73.53s32.92,73.53,73.53,73.53,73.53-32.92,73.53-73.53-32.92-73.53-73.53-73.53h0Z"/>
    </g>
    <g class="st4">
      <path class="st2" d="M1552.35,451.18c35.03,0,63.53,28.5,63.53,63.53s-28.5,63.53-63.53,63.53-63.53-28.5-63.53-63.53,28.5-63.53,63.53-63.53M1552.35,441.18c-40.61,0-73.53,32.92-73.53,73.53s32.92,73.53,73.53,73.53,73.53-32.92,73.53-73.53-32.92-73.53-73.53-73.53h0Z"/>
    </g>
    <g class="st4">
      <path class="st2" d="M1405.29,451.18c35.03,0,63.53,28.5,63.53,63.53s-28.5,63.53-63.53,63.53-63.53-28.5-63.53-63.53,28.5-63.53,63.53-63.53M1405.29,441.18c-40.61,0-73.53,32.92-73.53,73.53s32.92,73.53,73.53,73.53,73.53-32.92,73.53-73.53-32.92-73.53-73.53-73.53h0Z"/>
    </g>
    <g class="st4">
      <path class="st2" d="M1258.24,451.18c35.03,0,63.53,28.5,63.53,63.53s-28.5,63.53-63.53,63.53-63.53-28.5-63.53-63.53,28.5-63.53,63.53-63.53M1258.24,441.18c-40.61,0-73.53,32.92-73.53,73.53s32.92,73.53,73.53,73.53,73.53-32.92,73.53-73.53-32.92-73.53-73.53-73.53h0Z"/>
    </g>
    <g class="st4">
      <path class="st2" d="M1111.18,451.18c35.03,0,63.53,28.5,63.53,63.53s-28.5,63.53-63.53,63.53-63.53-28.5-63.53-63.53,28.5-63.53,63.53-63.53M1111.18,441.18c-40.61,0-73.53,32.92-73.53,73.53s32.92,73.53,73.53,73.53,73.53-32.92,73.53-73.53-32.92-73.53-73.53-73.53h0Z"/>
    </g>
    <g class="st4">
      <path class="st2" d="M817.06,451.18c35.03,0,63.53,28.5,63.53,63.53s-28.5,63.53-63.53,63.53-63.53-28.5-63.53-63.53,28.5-63.53,63.53-63.53M817.06,441.18c-40.61,0-73.53,32.92-73.53,73.53s32.92,73.53,73.53,73.53,73.53-32.92,73.53-73.53-32.92-73.53-73.53-73.53h0Z"/>
    </g>
    <g class="st4">
      <path class="st2" d="M670,451.18c35.03,0,63.53,28.5,63.53,63.53s-28.5,63.53-63.53,63.53-63.53-28.5-63.53-63.53,28.5-63.53,63.53-63.53M670,441.18c-40.61,0-73.53,32.92-73.53,73.53s32.92,73.53,73.53,73.53,73.53-32.92,73.53-73.53-32.92-73.53-73.53-73.53h0Z"/>
    </g>
    <g class="st4">
      <path class="st2" d="M522.94,451.18c35.03,0,63.53,28.5,63.53,63.53s-28.5,63.53-63.53,63.53-63.53-28.5-63.53-63.53,28.5-63.53,63.53-63.53M522.94,441.18c-40.61,0-73.53,32.92-73.53,73.53s32.92,73.53,73.53,73.53,73.53-32.92,73.53-73.53-32.92-73.53-73.53-73.53h0Z"/>
    </g>
    <g class="st4">
      <path class="st2" d="M375.88,451.18c35.03,0,63.53,28.5,63.53,63.53s-28.5,63.53-63.53,63.53-63.53-28.5-63.53-63.53,28.5-63.53,63.53-63.53M375.88,441.18c-40.61,0-73.53,32.92-73.53,73.53s32.92,73.53,73.53,73.53,73.53-32.92,73.53-73.53-32.92-73.53-73.53-73.53h0Z"/>
    </g>
    <g class="st4">
      <path class="st2" d="M1552.35,598.24c35.03,0,63.53,28.5,63.53,63.53s-28.5,63.53-63.53,63.53-63.53-28.5-63.53-63.53,28.5-63.53,63.53-63.53M1552.35,588.24c-40.61,0-73.53,32.92-73.53,73.53s32.92,73.53,73.53,73.53,73.53-32.92,73.53-73.53-32.92-73.53-73.53-73.53h0Z"/>
    </g>
    <g class="st4">
      <path class="st2" d="M1405.29,598.24c35.03,0,63.53,28.5,63.53,63.53s-28.5,63.53-63.53,63.53-63.53-28.5-63.53-63.53,28.5-63.53,63.53-63.53M1405.29,588.24c-40.61,0-73.53,32.92-73.53,73.53s32.92,73.53,73.53,73.53,73.53-32.92,73.53-73.53-32.92-73.53-73.53-73.53h0Z"/>
    </g>
    <g class="st4">
      <path class="st2" d="M1111.18,598.24c35.03,0,63.53,28.5,63.53,63.53s-28.5,63.53-63.53,63.53-63.53-28.5-63.53-63.53,28.5-63.53,63.53-63.53M1111.18,588.24c-40.61,0-73.53,32.92-73.53,73.53s32.92,73.53,73.53,73.53,73.53-32.92,73.53-73.53-32.92-73.53-73.53-73.53h0Z"/>
    </g>
    <g class="st4">
      <path class="st2" d="M817.06,598.24c35.03,0,63.53,28.5,63.53,63.53s-28.5,63.53-63.53,63.53-63.53-28.5-63.53-63.53,28.5-63.53,63.53-63.53M817.06,588.24c-40.61,0-73.53,32.92-73.53,73.53s32.92,73.53,73.53,73.53,73.53-32.92,73.53-73.53-32.92-73.53-73.53-73.53h0Z"/>
    </g>
    <g class="st4">
      <path class="st2" d="M670,598.24c35.03,0,63.53,28.5,63.53,63.53s-28.5,63.53-63.53,63.53-63.53-28.5-63.53-63.53,28.5-63.53,63.53-63.53M670,588.24c-40.61,0-73.53,32.92-73.53,73.53s32.92,73.53,73.53,73.53,73.53-32.92,73.53-73.53-32.92-73.53-73.53-73.53h0Z"/>
    </g>
    <g class="st4">
      <path class="st2" d="M375.88,598.24c35.03,0,63.53,28.5,63.53,63.53s-28.5,63.53-63.53,63.53-63.53-28.5-63.53-63.53,28.5-63.53,63.53-63.53M375.88,588.24c-40.61,0-73.53,32.92-73.53,73.53s32.92,73.53,73.53,73.53,73.53-32.92,73.53-73.53-32.92-73.53-73.53-73.53h0Z"/>
    </g>
    <g class="st4">
      <path class="st2" d="M1405.29,745.29c35.03,0,63.53,28.5,63.53,63.53s-28.5,63.53-63.53,63.53-63.53-28.5-63.53-63.53,28.5-63.53,63.53-63.53M1405.29,735.29c-40.61,0-73.53,32.92-73.53,73.53s32.92,73.53,73.53,73.53,73.53-32.92,73.53-73.53-32.92-73.53-73.53-73.53h0Z"/>
    </g>
    <g class="st4">
      <path class="st2" d="M670,745.29c35.03,0,63.53,28.5,63.53,63.53s-28.5,63.53-63.53,63.53-63.53-28.5-63.53-63.53,28.5-63.53,63.53-63.53M670,735.29c-40.61,0-73.53,32.92-73.53,73.53s32.92,73.53,73.53,73.53,73.53-32.92,73.53-73.53-32.92-73.53-73.53-73.53h0Z"/>
    </g>
  </g>
  <g id="Layer_3" class="st6">
    <g class="st5">
      <polygon class="st2" points="1638.26 25.31 1597.42 72.68 1556.68 25.42 1543.15 37.07 1585.63 86.36 1543.26 135.52 1556.78 147.18 1597.42 100.03 1638.15 147.29 1651.68 135.63 1609.21 86.36 1651.78 36.97 1638.26 25.31 1638.26 25.31"/>
      <polygon class="st2" points="1522.29 162.99 1481.49 210.33 1440.76 163.08 1427.23 174.74 1469.7 224.01 1427.29 273.21 1440.82 284.87 1481.49 237.68 1522.23 284.95 1535.76 273.3 1493.27 224.01 1535.82 174.65 1522.29 162.99 1522.29 162.99"/>
      <polygon class="st2" points="1405.07 25.35 1364.24 72.72 1323.52 25.48 1309.99 37.14 1352.45 86.4 1310.07 135.56 1323.6 147.22 1364.24 100.07 1404.99 147.35 1418.52 135.69 1376.03 86.4 1418.6 37 1405.07 25.35 1405.07 25.35"/>
      <polygon class="st2" points="1887.53 25.35 1846.72 72.69 1806.01 25.45 1792.48 37.11 1834.94 86.37 1792.53 135.57 1806.05 147.22 1846.72 100.04 1887.48 147.32 1901.01 135.67 1858.51 86.37 1901.06 37.01 1887.53 25.35 1887.53 25.35"/>
      <polygon class="st2" points="1755.69 174.47 1714.89 221.8 1674.19 174.59 1660.67 186.25 1703.1 235.48 1660.69 284.69 1674.22 296.34 1714.89 249.15 1755.67 296.46 1769.2 284.8 1726.68 235.48 1769.22 186.13 1755.69 174.47 1755.69 174.47"/>
      <polygon class="st2" points="1625.5 310.45 1584.69 357.79 1543.97 310.55 1530.44 322.21 1572.9 371.46 1530.5 420.66 1544.02 432.32 1584.69 385.14 1625.44 432.42 1638.97 420.76 1596.48 371.46 1639.02 322.1 1625.5 310.45 1625.5 310.45"/>
      <polygon class="st2" points="1509.53 448.13 1468.72 495.47 1427.95 448.17 1414.42 459.82 1456.94 509.15 1414.53 558.34 1428.06 570 1468.72 522.82 1509.42 570.04 1522.95 558.38 1480.51 509.15 1523.06 459.79 1509.53 448.13 1509.53 448.13"/>
      <polygon class="st2" points="1392.31 310.48 1351.5 357.83 1310.75 310.55 1297.22 322.21 1339.72 371.51 1297.31 420.7 1310.84 432.36 1351.5 385.18 1392.22 432.42 1405.75 420.76 1363.29 371.51 1405.84 322.14 1392.31 310.48 1392.31 310.48"/>
      <polygon class="st2" points="1275.06 174.48 1234.26 221.82 1193.54 174.58 1180.02 186.24 1222.47 235.49 1180.06 284.7 1193.59 296.36 1234.26 249.17 1275.02 296.45 1288.54 284.79 1246.05 235.49 1288.59 186.14 1275.06 174.48 1275.06 174.48"/>
      <polygon class="st2" points="1151.61 25.35 1110.78 72.72 1070.07 25.49 1056.54 37.15 1098.99 86.4 1056.61 135.57 1070.14 147.22 1110.78 100.07 1151.54 147.36 1165.07 135.7 1122.57 86.4 1165.14 37.01 1151.61 25.35 1151.61 25.35"/>
      <polygon class="st2" points="1887.57 310.5 1846.76 357.85 1806.01 310.57 1792.49 322.23 1834.97 371.52 1792.57 420.72 1806.09 432.37 1846.76 385.2 1887.49 432.45 1901.01 420.79 1858.55 371.52 1901.09 322.16 1887.57 310.5 1887.57 310.5"/>
      <polygon class="st2" points="1755.73 459.62 1714.93 506.96 1674.2 459.71 1660.68 471.37 1703.14 520.63 1660.73 569.84 1674.25 581.49 1714.93 534.31 1755.68 581.58 1769.2 569.93 1726.71 520.63 1769.26 471.28 1755.73 459.62 1755.73 459.62"/>
      <polygon class="st2" points="1625.47 595.6 1584.67 642.94 1543.97 595.73 1530.45 607.39 1572.88 656.62 1530.47 705.81 1544 717.47 1584.67 670.29 1625.45 717.6 1638.97 705.95 1596.45 656.62 1639 607.26 1625.47 595.6 1625.47 595.6"/>
      <polygon class="st2" points="1509.46 733.24 1468.69 780.55 1427.95 733.29 1414.43 744.95 1456.9 794.22 1414.46 843.46 1427.99 855.11 1468.69 807.9 1509.43 855.16 1522.95 843.5 1480.47 794.22 1522.99 744.9 1509.46 733.24 1509.46 733.24"/>
      <polygon class="st2" points="1275.1 459.64 1234.27 507.01 1193.55 459.76 1180.02 471.42 1222.48 520.68 1180.1 569.85 1193.63 581.51 1234.27 534.36 1275.03 581.64 1288.55 569.98 1246.06 520.68 1288.63 471.29 1275.1 459.64 1275.1 459.64"/>
      <polygon class="st2" points="1151.65 310.5 1110.85 357.84 1070.13 310.61 1056.61 322.27 1099.06 371.52 1056.65 420.72 1070.18 432.37 1110.85 385.19 1151.61 432.48 1165.13 420.83 1122.63 371.52 1165.18 322.16 1151.65 310.5 1151.65 310.5"/>
      <polygon class="st2" points="769.23 18.17 728.4 65.54 687.73 18.36 674.21 30.02 716.61 79.21 674.23 128.38 687.75 140.04 728.4 92.89 769.21 140.23 782.73 128.58 740.18 79.21 782.75 29.83 769.23 18.17 769.23 18.17"/>
      <polygon class="st2" points="653.26 155.85 612.43 203.22 571.71 155.98 558.19 167.64 600.65 216.89 558.26 266.07 571.79 277.73 612.43 230.57 653.19 277.85 666.71 266.19 624.22 216.89 666.79 167.51 653.26 155.85 653.26 155.85"/>
      <polygon class="st2" points="536.04 18.21 495.21 65.58 454.51 18.36 440.99 30.02 483.42 79.25 441.04 128.42 454.57 140.08 495.21 92.93 535.99 140.23 549.51 128.58 507 79.25 549.57 29.87 536.04 18.21 536.04 18.21"/>
      <polygon class="st2" points="1018.46 18.26 977.7 65.55 937 18.33 923.47 29.99 965.91 79.22 923.46 128.47 936.98 140.13 977.7 92.9 1018.47 140.21 1032 128.55 989.48 79.22 1031.98 29.92 1018.46 18.26 1018.46 18.26"/>
      <polygon class="st2" points="886.66 167.33 845.86 214.66 805.19 167.47 791.66 179.13 834.08 228.34 791.66 277.55 805.19 289.21 845.86 242.01 886.66 289.35 900.19 277.69 857.65 228.34 900.19 178.99 886.66 167.33 886.66 167.33"/>
      <polygon class="st2" points="756.47 303.37 715.66 350.71 674.96 303.49 661.44 315.15 703.87 364.38 661.47 413.58 674.99 425.24 715.66 378.06 756.44 425.37 769.96 413.71 727.45 364.38 769.99 315.03 756.47 303.37 756.47 303.37"/>
      <polygon class="st2" points="640.45 440.95 599.63 488.31 558.94 441.11 545.42 452.77 587.84 501.99 545.45 551.17 558.98 562.82 599.63 515.66 640.42 562.98 653.94 551.33 611.42 501.99 653.98 452.61 640.45 440.95 640.45 440.95"/>
      <polygon class="st2" points="523.28 303.35 482.45 350.72 441.74 303.49 428.22 315.15 470.66 364.4 428.28 413.56 441.81 425.22 482.45 378.07 523.22 425.37 536.74 413.71 494.24 364.4 536.81 315 523.28 303.35 523.28 303.35"/>
      <polygon class="st2" points="406.03 167.35 365.21 214.71 324.54 167.53 311.01 179.18 353.42 228.38 311.03 277.56 324.56 289.22 365.21 242.06 406.01 289.4 419.54 277.74 377 228.38 419.56 179 406.03 167.35 406.03 167.35"/>
      <polygon class="st2" points="282.58 18.21 241.78 65.55 201.12 18.37 187.6 30.03 230 79.22 187.58 128.43 201.11 140.08 241.78 92.9 282.6 140.24 296.12 128.59 253.57 79.22 296.11 29.87 282.58 18.21 282.58 18.21"/>
      <polygon class="st2" points="886.7 452.48 845.9 499.82 805.15 452.55 791.63 464.21 834.11 513.49 791.7 562.7 805.22 574.36 845.9 527.17 886.63 574.42 900.16 562.76 857.69 513.49 900.23 464.14 886.7 452.48 886.7 452.48"/>
      <polygon class="st2" points="756.4 588.42 715.6 635.75 674.93 588.57 661.4 600.23 703.81 649.43 661.4 698.63 674.92 710.29 715.6 663.1 756.4 710.44 769.93 698.78 727.39 649.43 769.92 600.08 756.4 588.42 756.4 588.42"/>
      <polygon class="st2" points="523.21 588.46 482.44 635.76 441.77 588.57 428.24 600.23 470.66 649.43 428.21 698.67 441.74 710.33 482.44 663.11 523.24 710.44 536.77 698.78 494.23 649.43 536.74 600.11 523.21 588.46 523.21 588.46"/>
      <polygon class="st2" points="282.62 303.36 241.82 350.7 201.13 303.49 187.6 315.15 230.03 364.38 187.62 413.58 201.15 425.24 241.82 378.05 282.6 425.37 296.13 413.71 253.61 364.38 296.15 315.02 282.62 303.36 282.62 303.36"/>
    </g>
  </g>
  <g id="Layer_4" class="st6">
    <rect class="st1" x="1065.27" y="2.3" width="44.99" height="89.97"/>
    <rect class="st1" x="1155.24" y="2.3" width="44.99" height="89.97"/>
    <rect class="st1" x="1110.25" y="92.27" width="44.99" height="89.97"/>
    <rect class="st1" x="1065.27" y="182.24" width="44.99" height="89.97"/>
    <rect class="st1" x="1155.24" y="182.24" width="44.99" height="89.97"/>
    <rect class="st1" x="1245.21" y="92.27" width="44.99" height="89.97"/>
    <rect class="st1" x="1290.2" y="2.3" width="44.99" height="89.97"/>
    <rect class="st1" x="1380.17" y="2.3" width="44.99" height="89.97"/>
    <rect class="st1" x="1290.2" y="182.24" width="44.99" height="89.97"/>
    <rect class="st1" x="1380.17" y="182.24" width="44.99" height="89.97"/>
    <rect class="st1" x="1335.18" y="92.27" width="44.99" height="89.97"/>
    <rect class="st1" x="1425.16" y="92.27" width="44.99" height="89.97"/>
    <rect class="st1" x="1515.13" y="2.3" width="44.99" height="89.97"/>
    <rect class="st1" x="1605.1" y="2.3" width="44.99" height="89.97"/>
    <rect class="st1" x="1560.11" y="92.27" width="44.99" height="89.97"/>
    <rect class="st1" x="1515.13" y="182.24" width="44.99" height="89.97"/>
    <rect class="st1" x="1605.1" y="182.24" width="44.99" height="89.97"/>
    <rect class="st1" x="1695.07" y="92.27" width="44.99" height="89.97"/>
    <rect class="st1" x="1740.06" y="2.3" width="44.99" height="89.97"/>
    <rect class="st1" x="1830.03" y="2.3" width="44.99" height="89.97"/>
    <rect class="st1" x="1740.06" y="182.24" width="44.99" height="89.97"/>
    <rect class="st1" x="1830.03" y="182.24" width="44.99" height="89.97"/>
    <rect class="st1" x="1785.04" y="92.27" width="44.99" height="89.97"/>
    <rect class="st1" x="1875.01" y="92.27" width="44.99" height="89.97"/>
    <path class="st3" d="M1065.27,362.19h44.99v89.97h-44.99v-89.97ZM1155.24,362.19h44.99v89.97h-44.99v-89.97ZM1200.23,272.22h44.99v89.97h-44.99v-89.97ZM1110.25,272.22h44.99v89.97h-44.99v-89.97ZM1110.25,452.16h44.99v89.97h-44.99v-89.97ZM1020.28,272.22h44.99v89.97h-44.99v-89.97ZM1065.27,542.13h44.99v89.97h-44.99v-89.97ZM1155.24,542.13h44.99v89.97h-44.99v-89.97ZM1245.21,452.16h44.99v89.97h-44.99v-89.97ZM1335.18,272.22h44.99v89.97h-44.99v-89.97ZM1290.2,362.19h44.99v89.97h-44.99v-89.97ZM1380.17,362.19h44.99v89.97h-44.99v-89.97ZM1290.2,542.13h44.99v89.97h-44.99v-89.97ZM1380.17,542.13h44.99v89.97h-44.99v-89.97ZM1335.18,452.16h44.99v89.97h-44.99v-89.97ZM1425.16,452.16h44.99v89.97h-44.99v-89.97Z"/>
    <rect class="st1" x="1515.13" y="362.19" width="44.99" height="89.97"/>
    <rect class="st1" x="1605.1" y="362.19" width="44.99" height="89.97"/>
    <rect class="st1" x="1650.08" y="272.22" width="44.99" height="89.97"/>
    <rect class="st1" x="1560.11" y="272.22" width="44.99" height="89.97"/>
    <rect class="st1" x="1560.11" y="452.16" width="44.99" height="89.97"/>
    <rect class="st1" x="1470.14" y="272.22" width="44.99" height="89.97"/>
    <rect class="st1" x="1695.07" y="452.16" width="44.99" height="89.97"/>
    <rect class="st1" x="1785.04" y="272.22" width="44.99" height="89.97"/>
    <rect class="st1" x="1740.06" y="362.19" width="44.99" height="89.97"/>
    <rect class="st1" x="1830.03" y="362.19" width="44.99" height="89.97"/>
    <rect class="st1" x="1740.06" y="542.13" width="44.99" height="89.97"/>
    <rect class="st1" x="1830.03" y="542.13" width="44.99" height="89.97"/>
    <rect class="st1" x="1785.04" y="452.16" width="44.99" height="89.97"/>
    <rect class="st1" x="1875.01" y="452.16" width="44.99" height="89.97"/>
    <rect class="st1" x="615.41" y="2.3" width="44.99" height="89.97"/>
    <rect class="st1" x="705.38" y="2.3" width="44.99" height="89.97"/>
    <rect class="st1" x="660.4" y="92.27" width="44.99" height="89.97"/>
    <rect class="st1" x="615.41" y="182.24" width="44.99" height="89.97"/>
    <rect class="st1" x="705.38" y="182.24" width="44.99" height="89.97"/>
    <rect class="st1" x="795.35" y="92.27" width="44.99" height="89.97"/>
    <rect class="st1" x="840.34" y="2.3" width="44.99" height="89.97"/>
    <rect class="st1" x="930.31" y="2.3" width="44.99" height="89.97"/>
    <rect class="st1" x="840.34" y="182.24" width="44.99" height="89.97"/>
    <rect class="st1" x="930.31" y="182.24" width="44.99" height="89.97"/>
    <rect class="st1" x="885.33" y="92.27" width="44.99" height="89.97"/>
    <rect class="st1" x="975.3" y="92.27" width="44.99" height="89.97"/>
    <rect class="st1" x="615.41" y="362.19" width="44.99" height="89.97"/>
    <rect class="st1" x="705.38" y="362.19" width="44.99" height="89.97"/>
    <rect class="st1" x="750.37" y="272.22" width="44.99" height="89.97"/>
    <rect class="st1" x="660.4" y="272.22" width="44.99" height="89.97"/>
    <rect class="st1" x="660.4" y="452.16" width="44.99" height="89.97"/>
    <rect class="st1" x="570.42" y="272.22" width="44.99" height="89.97"/>
    <rect class="st1" x="795.35" y="452.16" width="44.99" height="89.97"/>
    <rect class="st1" x="885.33" y="272.22" width="44.99" height="89.97"/>
    <rect class="st1" x="840.34" y="362.19" width="44.99" height="89.97"/>
    <rect class="st1" x="930.31" y="362.19" width="44.99" height="89.97"/>
    <rect class="st1" x="840.34" y="542.13" width="44.99" height="89.97"/>
    <rect class="st1" x="885.33" y="632.1" width="44.99" height="89.97"/>
    <rect class="st1" x="930.31" y="542.13" width="44.99" height="89.97"/>
    <rect class="st1" x="885.33" y="452.16" width="44.99" height="89.97"/>
    <rect class="st1" x="975.3" y="452.16" width="44.99" height="89.97"/>
    <rect class="st1" x="1065.27" y="722.07" width="44.99" height="89.97"/>
    <rect class="st1" x="1155.24" y="722.07" width="44.99" height="89.97"/>
    <rect class="st1" x="1200.23" y="632.1" width="44.99" height="89.97"/>
    <rect class="st1" x="1110.25" y="632.1" width="44.99" height="89.97"/>
    <rect class="st1" x="1110.25" y="812.05" width="44.99" height="89.97"/>
    <rect class="st1" x="1020.28" y="632.1" width="44.99" height="89.97"/>
    <rect class="st1" x="1335.18" y="632.1" width="44.99" height="89.97"/>
    <rect class="st1" x="1785.04" y="632.1" width="44.99" height="89.97"/>
    <g class="st5">
      <path class="st2" d="M1298.67,1156.71c1.93,0,1.93-3,0-3s-1.93,3,0,3h0Z"/>
    </g>
  </g>
  <g id="Layer_5">
    <g id="Page-1" class="st5">
      <g id="signal">
        <path id="Combined-Shape" class="st0" d="M1454.51,25.16h65.52v32.76h-65.52V25.16ZM1607.4,68.85h65.52v32.76h-65.52v-32.76ZM1683.84,25.16h65.52v32.76h-65.52V25.16ZM1760.29,25.16h65.52v32.76h-65.52V25.16ZM1760.29,68.85h65.52v32.76h-65.52v-32.76ZM1683.84,68.85h65.52v32.76h-65.52v-32.76ZM1683.84,156.21h65.52v32.76h-65.52v-32.76ZM1760.29,112.53h65.52v32.76h-65.52v-32.76ZM1836.73,112.53h65.52v32.76h-65.52v-32.76ZM1836.73,25.16h65.52v32.76h-65.52V25.16ZM1607.4,199.89h65.52v32.76h-65.52v-32.76ZM1530.95,112.53h65.52v32.76h-65.52v-32.76ZM1454.51,156.21h65.52v32.76h-65.52v-32.76ZM1454.51,199.89h65.52v32.76h-65.52v-32.76ZM1530.95,199.89h65.52v32.76h-65.52v-32.76ZM1607.4,243.58h65.52v32.76h-65.52v-32.76ZM1530.95,243.58h65.52v32.76h-65.52v-32.76ZM1683.84,243.58h65.52v32.76h-65.52v-32.76ZM1760.29,199.89h65.52v32.76h-65.52v-32.76ZM1760.29,156.21h65.52v32.76h-65.52v-32.76ZM1836.73,199.89h65.52v32.76h-65.52v-32.76ZM1836.73,243.58h65.52v32.76h-65.52v-32.76ZM1530.95,156.21h65.52v32.76h-65.52v-32.76ZM1607.4,112.53h65.52v32.76h-65.52v-32.76ZM1530.95,68.85h65.52v32.76h-65.52v-32.76ZM1454.51,68.85h65.52v32.76h-65.52v-32.76Z"/>
      </g>
    </g>
    <g id="Page-11" data-name="Page-1" class="st5">
      <g id="signal1" data-name="signal">
        <path id="Combined-Shape1" data-name="Combined-Shape" class="st0" d="M992.42,25.16h65.52v32.76h-65.52V25.16ZM1145.31,68.85h65.52v32.76h-65.52v-32.76ZM1221.75,25.16h65.52v32.76h-65.52V25.16ZM1298.2,25.16h65.52v32.76h-65.52V25.16ZM1298.2,68.85h65.52v32.76h-65.52v-32.76ZM1221.75,68.85h65.52v32.76h-65.52v-32.76ZM1221.75,156.21h65.52v32.76h-65.52v-32.76ZM1298.2,112.53h65.52v32.76h-65.52v-32.76ZM1374.64,112.53h65.52v32.76h-65.52v-32.76ZM1374.64,25.16h65.52v32.76h-65.52V25.16ZM1145.31,199.89h65.52v32.76h-65.52v-32.76ZM1068.86,112.53h65.52v32.76h-65.52v-32.76ZM992.42,156.21h65.52v32.76h-65.52v-32.76ZM992.42,199.89h65.52v32.76h-65.52v-32.76ZM1068.86,199.89h65.52v32.76h-65.52v-32.76ZM1145.31,243.58h65.52v32.76h-65.52v-32.76ZM1068.86,243.58h65.52v32.76h-65.52v-32.76ZM1221.75,243.58h65.52v32.76h-65.52v-32.76ZM1298.2,199.89h65.52v32.76h-65.52v-32.76ZM1298.2,156.21h65.52v32.76h-65.52v-32.76ZM1374.64,199.89h65.52v32.76h-65.52v-32.76ZM1374.64,243.58h65.52v32.76h-65.52v-32.76ZM1068.86,156.21h65.52v32.76h-65.52v-32.76ZM1145.31,112.53h65.52v32.76h-65.52v-32.76ZM1068.86,68.85h65.52v32.76h-65.52v-32.76ZM992.42,68.85h65.52v32.76h-65.52v-32.76Z"/>
      </g>
    </g>
    <g id="Page-12" data-name="Page-1" class="st5">
      <g id="signal2" data-name="signal">
        <path id="Combined-Shape2" data-name="Combined-Shape" class="st0" d="M530.33,25.16h65.52v32.76h-65.52V25.16ZM683.22,68.85h65.52v32.76h-65.52v-32.76ZM759.66,25.16h65.52v32.76h-65.52V25.16ZM836.11,25.16h65.52v32.76h-65.52V25.16ZM836.11,68.85h65.52v32.76h-65.52v-32.76ZM759.66,68.85h65.52v32.76h-65.52v-32.76ZM759.66,156.21h65.52v32.76h-65.52v-32.76ZM836.11,112.53h65.52v32.76h-65.52v-32.76ZM912.55,112.53h65.52v32.76h-65.52v-32.76ZM912.55,25.16h65.52v32.76h-65.52V25.16ZM683.22,199.89h65.52v32.76h-65.52v-32.76ZM606.77,112.53h65.52v32.76h-65.52v-32.76ZM530.33,156.21h65.52v32.76h-65.52v-32.76ZM530.33,199.89h65.52v32.76h-65.52v-32.76ZM606.77,199.89h65.52v32.76h-65.52v-32.76ZM683.22,243.58h65.52v32.76h-65.52v-32.76ZM606.77,243.58h65.52v32.76h-65.52v-32.76ZM759.66,243.58h65.52v32.76h-65.52v-32.76ZM836.11,199.89h65.52v32.76h-65.52v-32.76ZM836.11,156.21h65.52v32.76h-65.52v-32.76ZM912.55,199.89h65.52v32.76h-65.52v-32.76ZM912.55,243.58h65.52v32.76h-65.52v-32.76ZM606.77,156.21h65.52v32.76h-65.52v-32.76ZM683.22,112.53h65.52v32.76h-65.52v-32.76ZM606.77,68.85h65.52v32.76h-65.52v-32.76ZM530.33,68.85h65.52v32.76h-65.52v-32.76Z"/>
      </g>
    </g>
    <g id="Page-13" data-name="Page-1" class="st5">
      <g id="signal3" data-name="signal">
        <path id="Combined-Shape3" data-name="Combined-Shape" class="st0" d="M1454.51,288.83h65.52v32.76h-65.52v-32.76ZM1607.4,332.51h65.52v32.76h-65.52v-32.76ZM1683.84,288.83h65.52v32.76h-65.52v-32.76ZM1760.29,288.83h65.52v32.76h-65.52v-32.76ZM1760.29,332.51h65.52v32.76h-65.52v-32.76ZM1683.84,332.51h65.52v32.76h-65.52v-32.76ZM1683.84,419.87h65.52v32.76h-65.52v-32.76ZM1760.29,376.19h65.52v32.76h-65.52v-32.76ZM1836.73,376.19h65.52v32.76h-65.52v-32.76ZM1836.73,288.83h65.52v32.76h-65.52v-32.76ZM1607.4,463.56h65.52v32.76h-65.52v-32.76ZM1530.95,376.19h65.52v32.76h-65.52v-32.76ZM1454.51,419.87h65.52v32.76h-65.52v-32.76ZM1454.51,463.56h65.52v32.76h-65.52v-32.76ZM1530.95,463.56h65.52v32.76h-65.52v-32.76ZM1607.4,507.24h65.52v32.76h-65.52v-32.76ZM1530.95,507.24h65.52v32.76h-65.52v-32.76ZM1683.84,507.24h65.52v32.76h-65.52v-32.76ZM1760.29,463.56h65.52v32.76h-65.52v-32.76ZM1760.29,419.87h65.52v32.76h-65.52v-32.76ZM1836.73,463.56h65.52v32.76h-65.52v-32.76ZM1836.73,507.24h65.52v32.76h-65.52v-32.76ZM1530.95,419.87h65.52v32.76h-65.52v-32.76ZM1607.4,376.19h65.52v32.76h-65.52v-32.76ZM1530.95,332.51h65.52v32.76h-65.52v-32.76ZM1454.51,332.51h65.52v32.76h-65.52v-32.76Z"/>
      </g>
    </g>
    <g id="Page-14" data-name="Page-1" class="st5">
      <g id="signal4" data-name="signal">
        <path id="Combined-Shape4" data-name="Combined-Shape" class="st0" d="M992.42,288.83h65.52v32.76h-65.52v-32.76ZM1145.31,332.51h65.52v32.76h-65.52v-32.76ZM1221.75,288.83h65.52v32.76h-65.52v-32.76ZM1298.2,288.83h65.52v32.76h-65.52v-32.76ZM1298.2,332.51h65.52v32.76h-65.52v-32.76ZM1221.75,332.51h65.52v32.76h-65.52v-32.76ZM1221.75,419.87h65.52v32.76h-65.52v-32.76ZM1298.2,376.19h65.52v32.76h-65.52v-32.76ZM1374.64,376.19h65.52v32.76h-65.52v-32.76ZM1374.64,288.83h65.52v32.76h-65.52v-32.76ZM1145.31,463.56h65.52v32.76h-65.52v-32.76ZM1068.86,376.19h65.52v32.76h-65.52v-32.76ZM992.42,419.87h65.52v32.76h-65.52v-32.76ZM992.42,463.56h65.52v32.76h-65.52v-32.76ZM1068.86,463.56h65.52v32.76h-65.52v-32.76ZM1145.31,507.24h65.52v32.76h-65.52v-32.76ZM1068.86,507.24h65.52v32.76h-65.52v-32.76ZM1221.75,507.24h65.52v32.76h-65.52v-32.76ZM1298.2,463.56h65.52v32.76h-65.52v-32.76ZM1298.2,419.87h65.52v32.76h-65.52v-32.76ZM1374.64,463.56h65.52v32.76h-65.52v-32.76ZM1374.64,507.24h65.52v32.76h-65.52v-32.76ZM1068.86,419.87h65.52v32.76h-65.52v-32.76ZM1145.31,376.19h65.52v32.76h-65.52v-32.76ZM1068.86,332.51h65.52v32.76h-65.52v-32.76ZM992.42,332.51h65.52v32.76h-65.52v-32.76Z"/>
      </g>
    </g>
    <rect class="st1" x="1454.51" y="550.92" width="65.52" height="32.76"/>
    <rect class="st1" x="1607.4" y="594.6" width="65.52" height="32.76"/>
    <rect class="st1" x="1683.84" y="550.92" width="65.52" height="32.76"/>
    <rect class="st1" x="1760.29" y="550.92" width="65.52" height="32.76"/>
    <rect class="st1" x="1760.29" y="594.6" width="65.52" height="32.76"/>
    <rect class="st1" x="1683.84" y="594.6" width="65.52" height="32.76"/>
    <rect class="st1" x="1683.84" y="681.97" width="65.52" height="32.76"/>
    <rect class="st1" x="1760.29" y="638.29" width="65.52" height="32.76"/>
    <rect class="st1" x="1836.73" y="638.29" width="65.52" height="32.76"/>
    <rect class="st1" x="1836.73" y="681.97" width="65.52" height="32.76"/>
    <rect class="st1" x="1836.73" y="550.92" width="65.52" height="32.76"/>
    <rect class="st1" x="1760.29" y="725.65" width="65.52" height="32.76"/>
    <rect class="st1" x="1760.29" y="681.97" width="65.52" height="32.76"/>
    <rect class="st1" x="1530.95" y="594.6" width="65.52" height="32.76"/>
    <rect class="st1" x="1454.51" y="594.6" width="65.52" height="32.76"/>
    <rect class="st1" x="992.42" y="550.92" width="65.52" height="32.76"/>
    <rect class="st1" x="1145.31" y="594.6" width="65.52" height="32.76"/>
    <rect class="st1" x="1221.75" y="550.92" width="65.52" height="32.76"/>
    <rect class="st1" x="1298.2" y="550.92" width="65.52" height="32.76"/>
    <rect class="st1" x="1298.2" y="594.6" width="65.52" height="32.76"/>
    <rect class="st1" x="1221.75" y="594.6" width="65.52" height="32.76"/>
    <rect class="st1" x="1221.75" y="681.97" width="65.52" height="32.76"/>
    <rect class="st1" x="1298.2" y="638.29" width="65.52" height="32.76"/>
    <rect class="st1" x="1374.64" y="638.29" width="65.52" height="32.76"/>
    <rect class="st1" x="1374.64" y="550.92" width="65.52" height="32.76"/>
    <rect class="st1" x="1068.86" y="638.29" width="65.52" height="32.76"/>
    <rect class="st1" x="992.42" y="681.97" width="65.52" height="32.76"/>
    <rect class="st1" x="1298.2" y="681.97" width="65.52" height="32.76"/>
    <rect class="st1" x="1068.86" y="681.97" width="65.52" height="32.76"/>
    <rect class="st1" x="1145.31" y="638.29" width="65.52" height="32.76"/>
    <rect class="st1" x="1068.86" y="594.6" width="65.52" height="32.76"/>
    <rect class="st1" x="992.42" y="594.6" width="65.52" height="32.76"/>
    <rect class="st1" x="530.33" y="288.83" width="65.52" height="32.76"/>
    <rect class="st1" x="683.22" y="332.51" width="65.52" height="32.76"/>
    <rect class="st1" x="759.66" y="288.83" width="65.52" height="32.76"/>
    <rect class="st1" x="836.11" y="288.83" width="65.52" height="32.76"/>
    <rect class="st1" x="836.11" y="332.51" width="65.52" height="32.76"/>
    <rect class="st1" x="759.66" y="332.51" width="65.52" height="32.76"/>
    <rect class="st1" x="759.66" y="419.87" width="65.52" height="32.76"/>
    <rect class="st1" x="836.11" y="376.19" width="65.52" height="32.76"/>
    <rect class="st1" x="912.55" y="376.19" width="65.52" height="32.76"/>
    <rect class="st1" x="912.55" y="288.83" width="65.52" height="32.76"/>
    <rect class="st1" x="606.77" y="376.19" width="65.52" height="32.76"/>
    <rect class="st1" x="836.11" y="463.56" width="65.52" height="32.76"/>
    <rect class="st1" x="836.11" y="419.87" width="65.52" height="32.76"/>
    <rect class="st1" x="912.55" y="463.56" width="65.52" height="32.76"/>
    <rect class="st1" x="912.55" y="507.24" width="65.52" height="32.76"/>
    <rect class="st1" x="683.22" y="376.19" width="65.52" height="32.76"/>
    <rect class="st1" x="606.77" y="332.51" width="65.52" height="32.76"/>
    <rect class="st1" x="530.33" y="332.51" width="65.52" height="32.76"/>
  </g>
</svg>